<svg width="358" height="263" viewBox="0 0 358 263" fill="none" xmlns="http://www.w3.org/2000/svg">
<g clip-path="url(#clip0_55_980)">
<g clip-path="url(#clip1_55_980)">
<path d="M348.512 255.054L344.967 256.188L338.908 243.056L344.139 241.382L348.512 255.054Z" fill="#FFB6B6"/>
<path d="M350.515 258.2L339.086 261.856L339.04 261.711C338.663 260.531 338.769 259.25 339.337 258.149C339.904 257.048 340.885 256.218 342.065 255.84L343.646 253.589L348.048 253.927L349.046 253.607L350.515 258.2Z" fill="#2F2E41"/>
<path d="M314.907 258.589H311.185L309.415 244.235H314.907L314.907 258.589Z" fill="#FFB6B6"/>
<path d="M315.856 262.196L303.857 262.196V262.044C303.857 260.805 304.349 259.618 305.225 258.742C306.101 257.866 307.289 257.374 308.527 257.374L310.719 255.711L314.809 257.374L315.856 257.374L315.856 262.196Z" fill="#2F2E41"/>
<path d="M297.133 110.258C296.854 110.606 296.654 111.011 296.549 111.445C296.443 111.878 296.434 112.33 296.521 112.767C296.609 113.205 296.792 113.618 297.056 113.977C297.321 114.337 297.661 114.633 298.053 114.847L296.268 125.547L301.42 123.26L302.325 113.45C302.641 112.768 302.695 111.994 302.478 111.275C302.261 110.556 301.787 109.941 301.147 109.548C300.507 109.154 299.745 109.009 299.005 109.14C298.265 109.271 297.599 109.669 297.133 110.258Z" fill="#FFB6B6"/>
<path d="M344.106 199.014C344.106 199.014 344.974 187.711 341.898 185.612C338.822 183.513 313.459 182.456 313.459 182.456L311.885 184.527C311.885 184.527 311.742 185.494 309.353 193.374L308.38 237.356C308.284 241.644 307.536 247.032 309.327 248.133L310.198 252.486H314.985L317.63 245.168C318.77 243.327 319.256 241.155 319.009 239.004L320.453 232.544C320.352 232.442 320.281 232.315 320.247 232.175C320.084 231.213 320.301 230.224 320.851 229.418C320.979 229.23 321.119 229.05 321.272 228.881L326.563 205.212L333.701 232.9L338.106 242.734C337.673 243.765 337.961 244.699 338.75 245.566C338.457 246.372 339.724 246.938 340.269 247.981L341.97 251.18L346.758 248.568L347.193 245.957C347.483 245.183 346.704 244.669 346.129 243.061C347.201 241.923 347.143 240.814 346.11 239.731L344.3 231.927L344.279 228.349L344.256 224.525L344.106 199.014Z" fill="#2F2E41"/>
<path d="M324.088 131.816C328.682 131.816 332.405 128.092 332.405 123.498C332.405 118.905 328.682 115.181 324.088 115.181C319.495 115.181 315.771 118.905 315.771 123.498C315.771 128.092 319.495 131.816 324.088 131.816Z" fill="#FFB6B6"/>
<path d="M332.455 124.801L332.318 124.526C332.106 124.101 330.347 120.57 330.126 119.662L327.913 119.922L322.149 119.923L322.95 118.722L320.833 118.998C320.059 119.092 319.319 119.371 318.675 119.811C318.28 120.073 317.947 120.417 317.697 120.82C316.94 122.115 315.785 124.234 315.773 124.255L315.663 124.458L314.702 122.842C314.69 122.78 313.5 116.573 317.482 114.468C318.05 113.359 318.929 112.439 320.011 111.822C321.093 111.204 322.331 110.915 323.575 110.99C324.03 110.472 324.67 110.154 325.358 110.104C326.303 110.055 327.283 110.551 328.268 111.585C329.576 112.959 331.368 114.84 332.452 116.929L332.751 117.355C333.175 117.966 333.386 118.699 333.349 119.442C333.579 120.627 333.497 121.852 333.111 122.996L332.455 124.801Z" fill="#2F2E41"/>
<path d="M344.068 139.326L335.027 136.795L330.425 133.38L321.385 134.823L321.346 134.874C319.763 136.93 317.323 138.961 314.729 139.042C314.062 139.064 313.399 139.159 312.752 139.326L311.885 155.195V169.383C312.02 169.429 312.141 169.508 312.237 169.615C312.333 169.721 312.4 169.85 312.431 169.989C312.686 171.436 312.662 172.918 312.36 174.355C312.253 174.856 312.094 175.345 311.885 175.813C312.137 176.335 312.268 176.908 312.268 177.488C312.268 178.068 312.137 178.64 311.885 179.163C311.112 179.899 311.212 180.702 311.885 181.548V184.527C326.558 196.77 341.86 186.287 341.86 186.287L341.369 162.983L344.068 139.326Z" fill="#3F3D56"/>
<path d="M314.78 141.506L312.753 139.326L301.579 138.06L302.627 120.898L296.535 116.552L293.776 131.445C292.828 132.266 292.652 133.074 293.327 133.869C292.568 135.388 292.372 136.623 292.631 137.63L292.059 140.713L312.735 155.195L314.78 141.506Z" fill="#3F3D56"/>
<path d="M342.418 197.622C342.177 197.246 342.022 196.822 341.963 196.379C341.904 195.937 341.943 195.487 342.077 195.061C342.211 194.636 342.436 194.245 342.737 193.915C343.039 193.586 343.408 193.327 343.821 193.156L343.184 182.328L348.064 185.149L347.92 195C348.161 195.711 348.133 196.487 347.841 197.179C347.548 197.871 347.012 198.432 346.334 198.755C345.655 199.078 344.882 199.141 344.161 198.932C343.439 198.723 342.819 198.257 342.418 197.622Z" fill="#FFB6B6"/>
<path d="M340.671 142.034L344.068 139.326C344.068 139.326 347.54 141.241 348.597 144.676C349.654 148.11 351.503 167.661 351.503 167.661L351.789 174.94C352.154 176.095 352.058 177.125 351.188 177.946C352.496 179.299 352.301 180.427 350.514 181.315L348.66 192.76L342.841 191.552L343.578 168.982L338.822 154.451L340.671 142.034Z" fill="#3F3D56"/>
<path d="M108.245 52.379H107.054V19.7537C107.054 17.274 106.566 14.8186 105.617 12.5277C104.668 10.2367 103.277 8.15512 101.524 6.4017C99.7701 4.64828 97.6885 3.2574 95.3976 2.30845C93.1066 1.35951 90.6512 0.871095 88.1715 0.871094H19.0504C14.0424 0.871083 9.23953 2.86049 5.69834 6.40166C2.15716 9.94283 0.167736 14.7457 0.167725 19.7537V198.739C0.167722 203.747 2.15713 208.549 5.6983 212.091C9.23948 215.632 14.0423 217.621 19.0503 217.621H88.1714C90.6511 217.621 93.1065 217.133 95.3975 216.184C97.6884 215.235 99.77 213.844 101.523 212.091C103.277 210.337 104.668 208.256 105.617 205.965C106.566 203.674 107.054 201.218 107.054 198.739V75.6023H108.245V52.379Z" fill="#3F3D56"/>
<path d="M88.9332 5.78372H79.9107C80.3256 6.80098 80.484 7.90467 80.3718 8.99756C80.2597 10.0905 79.8806 11.139 79.2678 12.0508C78.655 12.9627 77.8273 13.7098 76.8578 14.2265C75.8882 14.7431 74.8064 15.0134 73.7078 15.0135H34.1092C33.0106 15.0134 31.9288 14.7431 30.9593 14.2265C29.9897 13.7098 29.162 12.9627 28.5492 12.0508C27.9364 11.139 27.5573 10.0904 27.4452 8.99755C27.3331 7.90465 27.4915 6.80096 27.9064 5.78369H19.4793C15.7394 5.78369 12.1526 7.26935 9.50813 9.91386C6.86361 12.5584 5.37794 16.1451 5.37793 19.885V198.607C5.37793 200.459 5.74267 202.293 6.45133 204.004C7.15998 205.715 8.19868 207.269 9.50811 208.578C10.8175 209.888 12.3721 210.927 14.0829 211.635C15.7938 212.344 17.6274 212.709 19.4793 212.709H88.9332C90.7851 212.709 92.6187 212.344 94.3296 211.635C96.0404 210.927 97.595 209.888 98.9044 208.578C100.214 207.269 101.253 205.715 101.961 204.004C102.67 202.293 103.035 200.459 103.035 198.607V19.885C103.035 18.0332 102.67 16.1995 101.961 14.4887C101.253 12.7778 100.214 11.2233 98.9044 9.91389C97.595 8.60446 96.0404 7.56576 94.3296 6.85711C92.6187 6.14845 90.7851 5.78372 88.9332 5.78372Z" fill="#FFEBCE"/>
<path d="M88.2653 72.7219C88.2704 76.7817 87.5464 80.8095 86.1279 84.6135C85.4837 86.3558 84.6935 88.0406 83.7657 89.6499C80.7829 94.8548 76.4786 99.1798 71.2882 102.188C66.0977 105.195 60.2051 106.779 54.2061 106.779C48.2072 106.779 42.3146 105.195 37.1241 102.188C31.9337 99.1798 27.6294 94.8548 24.6466 89.6499C24.3447 89.1265 24.0583 88.5952 23.7876 88.0561C21.4724 83.4635 20.2273 78.4062 20.1456 73.2637C20.064 68.1212 21.148 63.027 23.3162 58.3632C25.4845 53.6994 28.6808 49.5872 32.6652 46.335C36.6497 43.0829 41.3188 40.7753 46.3224 39.5853C51.3261 38.3953 56.5342 38.3539 61.5561 39.4641C66.578 40.5744 71.2833 42.8074 75.319 45.9958C79.3547 49.1841 82.6159 53.245 84.8581 57.8736C87.1003 62.5023 88.2652 67.5787 88.2653 72.7219Z" fill="#F1F1F1"/>
<path d="M55.977 78.4718C59.5732 78.4718 62.4884 75.5565 62.4884 71.9603C62.4884 68.3642 59.5732 65.4489 55.977 65.4489C52.3808 65.4489 49.4656 68.3642 49.4656 71.9603C49.4656 75.5565 52.3808 78.4718 55.977 78.4718Z" fill="#FF6582"/>
<path d="M23.7878 88.0561C26.6567 84.9557 30.492 80.0334 34.089 83.5901C35.8942 85.2678 38.7194 89.4252 41.4239 86.7073L62.5429 65.5883C62.9405 65.1958 63.4125 64.8867 63.9312 64.6792C64.45 64.4716 65.0049 64.3699 65.5635 64.3799C66.1222 64.3899 66.6731 64.5114 67.1841 64.7374C67.6951 64.9634 68.1557 65.2891 68.539 65.6957L86.1281 84.6135C85.4839 86.3558 84.6937 88.0406 83.7659 89.65H24.6468L23.7878 88.0561Z" fill="#E2A27D"/>
<path d="M70.187 141.885C69.954 141.886 69.7307 141.979 69.5661 142.144C69.4015 142.309 69.3091 142.532 69.3091 142.765C69.3091 142.998 69.4015 143.222 69.5661 143.387C69.7307 143.552 69.954 143.645 70.187 143.645H79.4203C79.6537 143.645 79.8775 143.553 80.0425 143.388C80.2075 143.223 80.3002 142.999 80.3002 142.765C80.3002 142.532 80.2075 142.308 80.0425 142.143C79.8775 141.978 79.6537 141.885 79.4203 141.885H70.187Z" fill="#E2A27D"/>
<path d="M28.5884 128.962C28.355 128.962 28.1312 129.054 27.9662 129.219C27.8012 129.384 27.7085 129.608 27.7085 129.841C27.7085 130.075 27.8012 130.299 27.9662 130.464C28.1312 130.629 28.355 130.721 28.5884 130.721H79.8243C80.0577 130.721 80.2815 130.629 80.4465 130.464C80.6115 130.299 80.7042 130.075 80.7042 129.841C80.7042 129.608 80.6115 129.384 80.4465 129.219C80.2815 129.054 80.0577 128.962 79.8243 128.962H28.5884Z" fill="#E5E5E5"/>
<path d="M28.5884 135.424C28.3554 135.424 28.1321 135.517 27.9675 135.682C27.8029 135.847 27.7104 136.07 27.7104 136.303C27.7104 136.536 27.8029 136.76 27.9675 136.925C28.1321 137.09 28.3554 137.183 28.5884 137.183H79.8243C79.94 137.184 80.0546 137.161 80.1616 137.117C80.2686 137.073 80.3658 137.008 80.4477 136.926C80.5296 136.845 80.5946 136.747 80.639 136.641C80.6833 136.534 80.7061 136.419 80.7061 136.303C80.7061 136.188 80.6833 136.073 80.639 135.966C80.5946 135.859 80.5296 135.762 80.4477 135.681C80.3658 135.599 80.2686 135.534 80.1616 135.49C80.0546 135.446 79.94 135.423 79.8243 135.424H28.5884Z" fill="#E5E5E5"/>
<path d="M70.187 183.35C69.9537 183.35 69.7299 183.442 69.5649 183.607C69.3998 183.772 69.3071 183.996 69.3071 184.229C69.3071 184.463 69.3998 184.687 69.5649 184.852C69.7299 185.017 69.9537 185.109 70.187 185.109H79.4203C79.6537 185.109 79.8775 185.017 80.0425 184.852C80.2075 184.687 80.3002 184.463 80.3002 184.229C80.3002 183.996 80.2075 183.772 80.0425 183.607C79.8775 183.442 79.6537 183.35 79.4203 183.35H70.187Z" fill="#E2A27D"/>
<path d="M28.5884 170.426C28.355 170.426 28.1312 170.518 27.9662 170.683C27.8012 170.848 27.7085 171.072 27.7085 171.306C27.7085 171.539 27.8012 171.763 27.9662 171.928C28.1312 172.093 28.355 172.185 28.5884 172.185H79.8243C79.94 172.186 80.0546 172.163 80.1616 172.119C80.2686 172.075 80.3658 172.01 80.4477 171.928C80.5297 171.847 80.5946 171.75 80.639 171.643C80.6833 171.536 80.7062 171.421 80.7062 171.306C80.7062 171.19 80.6833 171.075 80.639 170.968C80.5946 170.862 80.5297 170.764 80.4477 170.683C80.3658 170.601 80.2686 170.536 80.1616 170.492C80.0546 170.448 79.94 170.425 79.8243 170.426H28.5884Z" fill="#E5E5E5"/>
<path d="M28.5884 176.888C28.355 176.888 28.1312 176.98 27.9662 177.145C27.8012 177.31 27.7085 177.534 27.7085 177.768C27.7085 178.001 27.8012 178.225 27.9662 178.39C28.1312 178.555 28.355 178.647 28.5884 178.647H79.8243C80.0577 178.647 80.2815 178.555 80.4465 178.39C80.6115 178.225 80.7042 178.001 80.7042 177.768C80.7042 177.534 80.6115 177.31 80.4465 177.145C80.2815 176.98 80.0577 176.888 79.8243 176.888H28.5884Z" fill="#E5E5E5"/>
<path d="M292.251 100.057L285.22 96.8784C285.185 97.8173 284.92 98.7331 284.447 99.5451C283.975 100.357 283.31 101.041 282.511 101.535C281.713 102.03 280.804 102.32 279.867 102.381C278.929 102.442 277.991 102.272 277.135 101.885L246.28 87.933C245.424 87.5459 244.677 86.9542 244.103 86.21C243.53 85.4659 243.148 84.5921 242.992 83.6657C242.836 82.7393 242.91 81.7886 243.207 80.8976C243.505 80.0065 244.017 79.2023 244.699 78.5559L238.133 75.5867C235.218 74.2691 231.9 74.163 228.908 75.2918C225.916 76.4207 223.494 78.692 222.177 81.6061L159.208 220.865C158.555 222.308 158.193 223.865 158.143 225.448C158.092 227.031 158.354 228.608 158.913 230.09C159.472 231.571 160.317 232.928 161.401 234.083C162.484 235.238 163.784 236.169 165.227 236.821L219.345 261.292C222.259 262.609 225.577 262.715 228.57 261.587C231.562 260.458 233.983 258.186 235.301 255.272L298.27 116.013C298.922 114.57 299.284 113.013 299.335 111.43C299.385 109.848 299.124 108.27 298.565 106.789C298.006 105.307 297.161 103.95 296.077 102.795C294.994 101.64 293.694 100.71 292.251 100.057Z" fill="#E4E4E4"/>
<path d="M229.618 166.365C224.879 164.213 220.79 160.851 217.762 156.618C214.734 152.385 212.874 147.429 212.368 142.249C212.317 141.736 212.28 141.207 212.259 140.681C212.052 136.062 212.945 131.46 214.863 127.253C216.646 123.313 219.273 119.812 222.557 116.998C225.841 114.184 229.703 112.124 233.869 110.965C238.036 109.806 242.406 109.575 246.672 110.289C250.937 111.003 254.994 112.644 258.556 115.096C262.119 117.549 265.099 120.753 267.288 124.484C269.477 128.214 270.82 132.379 271.224 136.685C271.628 140.991 271.082 145.333 269.625 149.405C268.167 153.477 265.834 157.179 262.79 160.251C261.657 161.399 260.429 162.449 259.12 163.39C254.896 166.432 249.946 168.308 244.768 168.83C239.589 169.352 234.364 168.502 229.618 166.365ZM253.618 113.288C246.683 110.162 238.792 109.915 231.675 112.6C224.558 115.285 218.797 120.684 215.656 127.611C213.795 131.694 212.928 136.161 213.128 140.644C213.149 141.155 213.185 141.666 213.234 142.165C213.717 147.195 215.52 152.009 218.46 156.119C221.4 160.229 225.373 163.49 229.977 165.572C234.582 167.654 239.655 168.484 244.683 167.977C249.711 167.469 254.515 165.644 258.611 162.684C259.882 161.771 261.072 160.752 262.171 159.639C265.431 156.35 267.845 152.321 269.21 147.896C270.575 143.471 270.849 138.782 270.008 134.228C269.168 129.674 267.238 125.392 264.384 121.745C261.53 118.099 257.836 115.197 253.618 113.288Z" fill="#FFEBCE"/>
<path d="M232.532 111.803L231.719 112.114L252.402 166.109L253.215 165.798L232.532 111.803Z" fill="#FFEBCE"/>
<path d="M268.158 128.644L214.162 149.324L214.473 150.137L268.469 129.457L268.158 128.644Z" fill="#FFEBCE"/>
<path d="M241.38 208.552L190.301 185.456C189.923 185.284 189.628 184.969 189.481 184.581C189.334 184.192 189.348 183.76 189.519 183.381L194.324 172.755C194.495 172.376 194.81 172.081 195.199 171.935C195.588 171.788 196.019 171.801 196.398 171.972L247.477 195.068C247.855 195.24 248.15 195.555 248.297 195.944C248.444 196.333 248.43 196.764 248.259 197.143L243.454 207.769C243.283 208.148 242.968 208.443 242.579 208.59C242.19 208.737 241.759 208.723 241.38 208.552ZM196.04 172.765C195.871 172.689 195.679 172.683 195.506 172.749C195.333 172.814 195.193 172.945 195.117 173.114L190.312 183.74C190.236 183.909 190.23 184.1 190.295 184.273C190.36 184.446 190.492 184.587 190.66 184.663L241.738 207.759C241.907 207.835 242.099 207.841 242.272 207.776C242.445 207.71 242.585 207.579 242.661 207.411L247.466 196.784C247.542 196.616 247.548 196.424 247.483 196.251C247.418 196.078 247.286 195.938 247.118 195.861L196.04 172.765Z" fill="#FFEBCE"/>
<path d="M229.006 235.917L177.928 212.82C177.55 212.649 177.255 212.334 177.108 211.945C176.961 211.556 176.975 211.125 177.146 210.746L181.951 200.119C182.122 199.741 182.437 199.446 182.826 199.299C183.215 199.152 183.646 199.166 184.025 199.337L235.103 222.433C235.482 222.604 235.777 222.919 235.924 223.308C236.07 223.697 236.057 224.128 235.886 224.507L231.081 235.134C230.909 235.512 230.595 235.807 230.206 235.954C229.817 236.101 229.385 236.087 229.006 235.917ZM183.666 200.13C183.498 200.054 183.306 200.048 183.133 200.113C182.96 200.178 182.82 200.31 182.744 200.478L177.939 211.104C177.863 211.273 177.857 211.465 177.922 211.638C177.987 211.811 178.118 211.951 178.287 212.027L229.365 235.123C229.534 235.199 229.725 235.205 229.898 235.14C230.071 235.075 230.212 234.944 230.288 234.775L235.093 224.149C235.169 223.98 235.175 223.788 235.11 223.615C235.044 223.442 234.913 223.302 234.745 223.226L183.666 200.13Z" fill="#FFEBCE"/>
<path d="M209.265 166.677C208.215 161.445 205.946 156.534 202.642 152.343C199.284 148.087 195.183 144.474 190.537 141.681C185.735 138.765 180.506 136.621 175.039 135.326C168.245 133.694 161.229 133.162 154.256 133.23C147.232 133.297 140.232 133.955 133.252 134.688C132.364 134.781 131.477 134.875 130.59 134.97C129.763 135.059 129.754 136.365 130.59 136.276C137.467 135.542 144.354 134.82 151.271 134.598C158.131 134.378 165.042 134.648 171.793 135.957C177.415 137 182.84 138.918 187.869 141.641C192.553 144.178 196.755 147.52 200.282 151.513C203.737 155.416 206.235 160.07 207.58 165.106C207.742 165.741 207.883 166.38 208.006 167.024C208.164 167.849 209.422 167.499 209.265 166.677Z" fill="#2F2E41"/>
<path d="M135.254 125.626L124.824 136.72C124.755 136.791 124.703 136.877 124.671 136.971C124.639 137.066 124.63 137.166 124.642 137.265C124.655 137.363 124.69 137.458 124.744 137.541C124.799 137.624 124.871 137.694 124.957 137.745L134.366 142.243C135.12 142.603 135.783 141.478 135.025 141.115L125.616 136.618L125.748 137.643L136.177 126.55C136.752 125.938 135.831 125.013 135.254 125.626Z" fill="#2F2E41"/>
<path d="M357.314 262.771H158.28C158.143 262.771 158.011 262.717 157.914 262.619C157.817 262.522 157.762 262.39 157.762 262.253C157.762 262.115 157.817 261.984 157.914 261.886C158.011 261.789 158.143 261.735 158.28 261.735H357.314C357.452 261.735 357.583 261.789 357.681 261.886C357.778 261.984 357.832 262.115 357.832 262.253C357.832 262.39 357.778 262.522 357.681 262.619C357.583 262.717 357.452 262.771 357.314 262.771Z" fill="#CACACA"/>
</g>
</g>
<defs>
<clipPath id="clip0_55_980">
<rect width="357.665" height="261.9" fill="white" transform="translate(0.167725 0.871094)"/>
</clipPath>
<clipPath id="clip1_55_980">
<rect width="357.665" height="261.9" fill="white" transform="translate(0.167725 0.871094)"/>
</clipPath>
</defs>
</svg>
