<svg width="400" height="261" viewBox="0 0 400 261" fill="none" xmlns="http://www.w3.org/2000/svg">
<g clip-path="url(#clip0_55_1016)">
<path d="M390.504 159.643H376.439C376.139 159.644 375.842 159.576 375.571 159.446C375.301 159.315 375.063 159.125 374.876 158.89C374.692 158.661 374.561 158.392 374.495 158.106C374.429 157.819 374.429 157.521 374.495 157.234C375.815 151.403 375.752 145.344 374.309 139.543C374.197 139.099 374.243 138.63 374.439 138.216C374.634 137.803 374.967 137.469 375.38 137.274C381.255 134.524 386.65 134.596 391.414 137.486C391.664 137.635 391.878 137.838 392.042 138.078C392.205 138.319 392.315 138.592 392.362 138.88C393.372 145.187 393.41 151.612 392.476 157.931C392.41 158.406 392.174 158.842 391.811 159.157C391.448 159.472 390.984 159.644 390.504 159.643Z" fill="#E2A27D"/>
<path d="M390.29 150.429H379.536C379.269 150.428 379.013 150.322 378.825 150.133C378.636 149.944 378.53 149.687 378.53 149.42C378.53 149.153 378.636 148.897 378.825 148.708C379.013 148.518 379.269 148.412 379.536 148.411H390.29C390.558 148.412 390.814 148.518 391.002 148.708C391.191 148.897 391.297 149.153 391.297 149.42C391.297 149.687 391.191 149.944 391.002 150.133C390.814 150.322 390.558 150.428 390.29 150.429Z" fill="#FFEBCE"/>
<path d="M390.29 146.891H379.536C379.269 146.891 379.013 146.784 378.825 146.595C378.636 146.406 378.53 146.15 378.53 145.882C378.53 145.615 378.636 145.359 378.825 145.17C379.013 144.981 379.269 144.874 379.536 144.874H390.29C390.558 144.874 390.814 144.981 391.002 145.17C391.191 145.359 391.297 145.615 391.297 145.882C391.297 146.15 391.191 146.406 391.002 146.595C390.814 146.784 390.558 146.891 390.29 146.891Z" fill="#FFEBCE"/>
<path d="M108.853 158.233C150.129 158.233 183.59 124.772 183.59 83.4966C183.59 42.2208 150.129 8.76019 108.853 8.76019C67.5776 8.76019 34.1169 42.2208 34.1169 83.4966C34.1169 124.772 67.5776 158.233 108.853 158.233Z" fill="#F2F2F2"/>
<path d="M195.53 156.022C203.346 156.022 209.681 149.686 209.681 141.871C209.681 134.055 203.346 127.719 195.53 127.719C187.715 127.719 181.379 134.055 181.379 141.871C181.379 149.686 187.715 156.022 195.53 156.022Z" fill="#F2F2F2"/>
<path d="M266.729 187.862C269.904 187.862 272.478 185.288 272.478 182.113C272.478 178.938 269.904 176.364 266.729 176.364C263.554 176.364 260.98 178.938 260.98 182.113C260.98 185.288 263.554 187.862 266.729 187.862Z" fill="#F2F2F2"/>
<path d="M311.117 204.725C308.693 186.199 297.085 168.005 279.364 162.084C286.46 181.123 286.592 202.058 279.738 221.185C277.068 228.552 273.332 236.468 275.935 243.859C277.555 248.458 281.467 251.959 285.83 254.136C290.192 256.313 295.025 257.333 299.798 258.332L300.74 259.102C308.196 241.97 313.541 223.251 311.117 204.725Z" fill="#F2F2F2"/>
<path d="M279.191 162.436C289.562 173.908 296.055 188.356 297.747 203.728C298.09 207.023 298.15 210.396 297.45 213.651C296.744 216.818 295.202 219.739 292.985 222.109C290.962 224.36 288.632 226.428 287.192 229.132C285.673 231.982 285.635 235.209 286.706 238.219C288.017 241.902 290.572 244.895 293.173 247.734C296.061 250.886 299.111 254.115 300.356 258.311C300.507 258.82 301.287 258.556 301.137 258.048C298.969 250.748 291.843 246.639 288.415 240.073C286.815 237.009 286.129 233.445 287.589 230.19C288.867 227.345 291.267 225.21 293.335 222.948C295.506 220.573 297.166 217.972 298.01 214.841C298.873 211.638 298.944 208.255 298.687 204.966C298.049 197.51 296.243 190.201 293.335 183.306C290.059 175.419 285.459 168.151 279.732 161.815C279.378 161.423 278.839 162.046 279.191 162.436Z" fill="#FFEBCE"/>
<path d="M297.494 198.746C300.034 198.112 302.267 196.595 303.792 194.467C305.318 192.339 306.038 189.738 305.822 187.129C305.777 186.601 304.955 186.646 305 187.175C305.205 189.605 304.534 192.027 303.11 194.006C301.685 195.985 299.6 197.389 297.231 197.966C296.716 198.092 296.982 198.871 297.494 198.746Z" fill="#FFEBCE"/>
<path d="M294.16 221.102C289.547 218.388 286.127 214.034 284.581 208.909C284.428 208.402 283.648 208.665 283.8 209.173C285.419 214.502 288.988 219.026 293.795 221.84C294.253 222.108 294.616 221.369 294.16 221.102Z" fill="#FFEBCE"/>
<path d="M289.3 176.204C288.368 176.654 287.339 176.866 286.305 176.82C285.271 176.774 284.265 176.472 283.377 175.942C282.922 175.668 282.559 176.408 283.011 176.679C283.995 177.261 285.107 177.593 286.249 177.647C287.392 177.7 288.529 177.472 289.563 176.985C289.665 176.947 289.748 176.872 289.796 176.775C289.844 176.678 289.853 176.566 289.822 176.463C289.787 176.36 289.712 176.275 289.614 176.226C289.517 176.178 289.404 176.17 289.3 176.204Z" fill="#FFEBCE"/>
<path d="M225.679 195.545C225.958 195.724 226.237 195.903 226.516 196.089C230.256 198.514 233.792 201.238 237.091 204.236C237.349 204.464 237.608 204.698 237.86 204.933C245.729 212.24 252.173 220.944 256.865 230.603C258.729 234.448 260.297 238.43 261.556 242.513C263.295 248.152 264.732 254.405 268.133 259.005C268.482 259.489 268.861 259.951 269.267 260.388L299.728 260.193C299.797 260.157 299.867 260.129 299.936 260.094L301.152 260.142C301.102 259.927 301.045 259.705 300.995 259.49C300.967 259.365 300.931 259.24 300.903 259.115C300.881 259.032 300.86 258.948 300.845 258.872C300.838 258.844 300.831 258.816 300.824 258.796C300.81 258.719 300.788 258.65 300.774 258.581C300.46 257.338 300.137 256.097 299.805 254.855C299.805 254.848 299.805 254.848 299.798 254.841C297.242 245.384 293.875 236.058 289.198 227.539C289.058 227.283 288.917 227.02 288.762 226.764C286.633 222.936 284.195 219.288 281.471 215.857C279.974 213.983 278.383 212.187 276.704 210.474C272.357 206.056 267.343 202.35 261.844 199.49C250.882 193.792 238.22 191.663 226.566 195.261C226.268 195.354 225.977 195.446 225.679 195.545Z" fill="#F2F2F2"/>
<path d="M225.75 195.931C240.937 198.847 254.82 206.473 265.426 217.728C267.684 220.153 269.763 222.81 271.164 225.83C272.506 228.785 273.033 232.045 272.69 235.272C272.43 238.287 271.816 241.342 272.293 244.368C272.797 247.557 274.709 250.157 277.377 251.916C280.641 254.067 284.483 254.917 288.269 255.619C292.473 256.397 296.852 257.139 300.373 259.739C300.799 260.054 301.263 259.374 300.837 259.059C294.711 254.535 286.547 255.545 279.857 252.367C276.735 250.884 274.041 248.451 273.248 244.973C272.555 241.932 273.186 238.782 273.475 235.731C273.779 232.528 273.538 229.451 272.327 226.443C271.087 223.366 269.108 220.623 266.922 218.151C261.924 212.582 256.081 207.834 249.608 204.08C242.244 199.754 234.195 196.721 225.808 195.11C225.288 195.01 225.234 195.832 225.75 195.931Z" fill="#FFEBCE"/>
<path d="M262.225 213.903C263.871 211.867 264.741 209.313 264.678 206.695C264.615 204.077 263.623 201.567 261.88 199.613C261.526 199.219 260.897 199.75 261.251 200.145C262.878 201.962 263.801 204.3 263.855 206.738C263.909 209.175 263.089 211.552 261.545 213.439C261.209 213.849 261.891 214.311 262.225 213.903Z" fill="#FFEBCE"/>
<path d="M273.023 233.76C267.705 234.37 262.353 232.954 258.033 229.793C257.606 229.479 257.142 230.159 257.569 230.473C262.07 233.754 267.643 235.217 273.175 234.57C273.703 234.508 273.547 233.699 273.023 233.76Z" fill="#FFEBCE"/>
<path d="M242.111 200.838C241.638 201.758 240.943 202.547 240.09 203.133C239.237 203.719 238.252 204.084 237.223 204.195C236.695 204.25 236.851 205.059 237.375 205.004C238.512 204.876 239.599 204.472 240.543 203.827C241.487 203.181 242.259 202.315 242.791 201.303C242.849 201.211 242.87 201.101 242.85 200.995C242.83 200.889 242.77 200.794 242.683 200.73C242.593 200.669 242.482 200.646 242.375 200.666C242.267 200.687 242.173 200.748 242.111 200.838Z" fill="#FFEBCE"/>
<path d="M371.777 132.323L367.657 92.4501L366.57 76.0397L378.1 73.9549C378.1 73.9549 379.827 85.2362 381.337 91.8566C382.828 98.3896 379.351 131.448 379.259 132.319C380.106 133.077 380.703 134.073 380.971 135.177C381.239 136.281 381.166 137.44 380.761 138.501C380.356 139.562 379.638 140.476 378.703 141.12C377.768 141.765 376.659 142.11 375.523 142.111C374.387 142.111 373.277 141.767 372.341 141.123C371.405 140.48 370.687 139.567 370.281 138.506C369.875 137.445 369.8 136.286 370.068 135.182C370.335 134.078 370.931 133.081 371.777 132.323Z" fill="#FFB8B8"/>
<path d="M324.661 254.75H318.795L316.004 232.126L324.661 232.126L324.661 254.75Z" fill="#FFB6B6"/>
<path d="M326.156 260.436L307.243 260.436V260.196C307.243 258.244 308.019 256.372 309.399 254.991C310.78 253.611 312.652 252.835 314.605 252.835H314.605L318.06 250.214L324.506 252.835L326.156 252.836L326.156 260.436Z" fill="#2F2E41"/>
<path d="M376.355 254.75H370.49L367.7 232.126L376.357 232.126L376.355 254.75Z" fill="#FFB6B6"/>
<path d="M377.852 260.436L358.939 260.436V260.196C358.939 258.244 359.714 256.372 361.095 254.991C362.476 253.611 364.348 252.835 366.3 252.835H366.301L369.755 250.214L376.201 252.835L377.852 252.836L377.852 260.436Z" fill="#2F2E41"/>
<path d="M367.435 133.664L372.368 180.531C372.368 180.531 378.936 227.459 377.702 233.934C376.469 240.409 378.011 241.334 378.011 241.334L366.757 240.533C366.757 240.533 367.065 236.524 365.215 234.674C363.365 232.824 364.29 227.274 364.29 227.274L342.459 150.931L329.201 191.015C329.201 191.015 327.042 235.107 326.734 235.724C326.426 236.341 325.501 244.666 325.501 244.666H314.092C314.092 244.666 315.634 239.732 313.475 238.191C311.317 236.649 309.467 237.882 311.317 235.107C313.167 232.332 313.784 228.941 313.167 227.399C312.55 225.857 312.55 219.69 312.55 219.69C312.55 219.69 313.475 136.439 318.717 133.664C323.959 130.889 367.435 133.664 367.435 133.664Z" fill="#2F2E41"/>
<path d="M344.071 38.7688C350.772 38.7688 356.205 33.3361 356.205 26.6346C356.205 19.9331 350.772 14.5005 344.071 14.5005C337.369 14.5005 331.937 19.9331 331.937 26.6346C331.937 33.3361 337.369 38.7688 344.071 38.7688Z" fill="#FFB8B8"/>
<path d="M380.044 80.316L368.11 84.5959L364.475 85.8983L361.822 52.0118L370.927 56.8407C370.942 56.852 370.956 56.8655 370.967 56.8808C372.544 58.6222 373.864 60.5803 374.886 62.6955C379.879 72.8462 380.044 80.316 380.044 80.316Z" fill="#3F3D56"/>
<path d="M297.831 129.46C297.831 129.46 309.961 91.7742 310.173 91.3223C311.762 79.2581 316.331 73.9364 317.016 74.5142L328.809 78.5998C328.809 78.5998 325.301 89.7081 322.926 96.3063C320.657 102.611 305.114 131.72 304.678 132.48C305.146 133.515 305.29 134.667 305.089 135.785C304.888 136.904 304.353 137.934 303.554 138.741C302.754 139.549 301.729 140.094 300.613 140.306C299.497 140.517 298.343 140.385 297.304 139.927C296.264 139.468 295.389 138.705 294.793 137.738C294.196 136.771 293.908 135.646 293.965 134.512C294.022 133.377 294.423 132.287 295.113 131.385C295.803 130.483 296.751 129.812 297.831 129.46Z" fill="#FFB8B8"/>
<path d="M334.474 54.1942C334.474 54.1942 324.264 49.19 320.304 59.0184C317.71 65.6467 316.482 68.5379 314.75 75.4416C314.75 75.4416 325.158 77.0031 328.495 82.8846L334.474 54.1942Z" fill="#3F3D56"/>
<path d="M371.628 138.772C348.129 143.625 316.987 135.281 316.987 135.281L325.295 99.271L322.341 61.5854C321.98 56.9769 324.605 52.657 328.689 51.1262L334.327 49.0143L338.988 42.3419L352.3 42.7787L357.622 49.7837L361.822 52.0118L370.927 56.8407L370.967 56.8607V56.8807L368.11 84.5959L366.386 101.307C366.386 101.307 371.62 120.101 370.546 122.594C369.472 125.083 370.406 123.88 370.666 125.211C370.927 126.541 371.724 126.625 371.844 129.246C371.969 131.863 371.628 138.772 371.628 138.772Z" fill="#3F3D56"/>
<path d="M357.234 22.3137C356.275 21.3678 357.719 18.8633 357.446 17.5442C357.133 16.0318 355.467 15.9875 355.069 14.4952C354.642 12.8898 352.931 12.0158 351.349 11.507C347.295 10.2098 342.969 10.0116 338.814 10.9328C336.975 11.3819 335.164 11.9398 333.39 12.6034C332.166 13.0342 333.347 11.862 332.123 12.2928C331.659 12.396 331.251 12.6673 330.975 13.0542C330.755 13.4703 331.052 14.1357 331.515 14.0514C330.021 14.7104 328.526 15.3693 327.032 16.0283C327.87 16.9062 328.708 17.7841 329.546 18.6621C328.355 18.323 327.085 19.7435 327.554 20.8896C327.743 21.2515 328.017 21.5619 328.353 21.7943C328.689 22.0266 329.076 22.1739 329.481 22.2233C330.827 22.4853 329.806 23.7662 331.177 23.7413C332.548 23.7163 342.109 20.9059 342.775 22.1043C343.25 22.9576 343.198 24.0879 343.875 24.791C344.742 25.6904 346.256 25.3615 347.36 24.7759C348.463 24.1904 349.582 23.3855 350.824 23.5259C352.12 23.6725 353.1 26.0675 353.419 27.3322C353.739 28.5969 353.537 29.9276 353.334 31.2161C353.067 32.9082 350.396 34.6003 350.129 36.2924C353.094 37.1123 356.274 34.5036 357.446 29.9671C357.329 27.0994 359.277 24.3295 357.234 22.3137Z" fill="#2F2E41"/>
<path d="M168.598 179.904C132.878 179.906 101.798 153.259 97.207 116.914L98.0846 116.803C102.619 152.699 133.32 179.018 168.599 179.02C171.596 179.02 174.591 178.831 177.564 178.454C216.474 173.538 244.13 137.884 239.215 98.9746L240.092 98.8636C245.069 138.257 217.069 174.355 177.675 179.331C174.664 179.712 171.633 179.904 168.598 179.904Z" fill="#3F3D56"/>
<path d="M170.516 194.696H156.452C156.151 194.697 155.854 194.629 155.584 194.499C155.313 194.368 155.075 194.178 154.888 193.943C154.704 193.714 154.574 193.445 154.508 193.159C154.442 192.872 154.441 192.574 154.507 192.287C155.842 186.396 155.763 180.274 154.277 174.42C154.176 174.016 154.204 173.59 154.359 173.203C154.514 172.816 154.787 172.488 155.14 172.265C160.005 169.251 165.304 169.345 171.338 172.553C171.612 172.698 171.849 172.904 172.031 173.155C172.213 173.406 172.334 173.696 172.385 174.001C173.384 180.287 173.419 186.688 172.489 192.984C172.422 193.459 172.186 193.895 171.823 194.21C171.461 194.525 170.996 194.697 170.516 194.696Z" fill="#E2A27D"/>
<path d="M106.393 119.517H92.3288C92.0283 119.518 91.7316 119.45 91.4608 119.32C91.1901 119.19 90.9525 119 90.7657 118.764C90.5811 118.535 90.4509 118.267 90.3848 117.98C90.3187 117.693 90.3185 117.395 90.3841 117.108C91.7236 111.197 91.6395 105.053 90.1386 99.1817C90.0437 98.7951 90.0666 98.3889 90.2045 98.0155C90.3424 97.6421 90.5889 97.3184 90.9123 97.0863C98.1442 91.8849 103.84 92.0359 107.84 97.5356C108.021 97.7863 108.141 98.0754 108.19 98.3802C109.259 104.807 109.319 111.36 108.366 117.805C108.3 118.281 108.063 118.716 107.701 119.031C107.338 119.346 106.873 119.519 106.393 119.517Z" fill="#CCCCCC"/>
<path d="M163.945 181.496H159.107C158.839 181.495 158.583 181.389 158.395 181.2C158.206 181.011 158.1 180.754 158.1 180.487C158.1 180.22 158.206 179.964 158.395 179.775C158.583 179.586 158.839 179.479 159.107 179.478H163.945C164.212 179.478 164.469 179.585 164.658 179.774C164.847 179.963 164.953 180.22 164.953 180.487C164.953 180.755 164.847 181.011 164.658 181.201C164.469 181.39 164.212 181.496 163.945 181.496Z" fill="#FFEBCE"/>
<path d="M169.86 185.482H159.107C158.839 185.481 158.583 185.375 158.395 185.186C158.206 184.997 158.1 184.74 158.1 184.473C158.1 184.206 158.206 183.95 158.395 183.761C158.583 183.571 158.839 183.465 159.107 183.464H169.86C170.128 183.465 170.384 183.571 170.572 183.761C170.761 183.95 170.867 184.206 170.867 184.473C170.867 184.74 170.761 184.997 170.572 185.186C170.384 185.375 170.128 185.481 169.86 185.482Z" fill="#FFEBCE"/>
<path d="M102.033 105.433H97.1946C96.9275 105.432 96.6714 105.326 96.4827 105.137C96.294 104.947 96.188 104.691 96.188 104.424C96.188 104.157 96.294 103.901 96.4827 103.711C96.6714 103.522 96.9275 103.416 97.1946 103.415H102.033C102.3 103.416 102.556 103.522 102.745 103.711C102.934 103.901 103.04 104.157 103.04 104.424C103.04 104.691 102.934 104.947 102.745 105.137C102.556 105.326 102.3 105.432 102.033 105.433Z" fill="#FFEBCE"/>
<path d="M102.033 108.971H97.1946C96.9275 108.97 96.6714 108.864 96.4827 108.674C96.294 108.485 96.188 108.229 96.188 107.962C96.188 107.695 96.294 107.438 96.4827 107.249C96.6714 107.06 96.9275 106.954 97.1946 106.953H102.033C102.3 106.954 102.556 107.06 102.745 107.249C102.934 107.438 103.04 107.695 103.04 107.962C103.04 108.229 102.934 108.485 102.745 108.674C102.556 108.864 102.3 108.97 102.033 108.971Z" fill="#FFEBCE"/>
<path d="M102.033 112.508H97.1946C96.9275 112.508 96.6714 112.401 96.4827 112.212C96.294 112.023 96.188 111.767 96.188 111.5C96.188 111.233 96.294 110.976 96.4827 110.787C96.6714 110.598 96.9275 110.491 97.1946 110.491H102.033C102.3 110.491 102.556 110.598 102.745 110.787C102.934 110.976 103.04 111.233 103.04 111.5C103.04 111.767 102.934 112.023 102.745 112.212C102.556 112.401 102.3 112.508 102.033 112.508Z" fill="#FFEBCE"/>
<path d="M295.685 136.133H250.726C249.521 136.132 248.366 135.652 247.514 134.8C246.662 133.949 246.183 132.793 246.181 131.588V103.898C246.183 102.693 246.662 101.538 247.514 100.686C248.366 99.8338 249.521 99.3546 250.726 99.3532H295.685C296.89 99.3546 298.045 99.8338 298.897 100.686C299.749 101.538 300.228 102.693 300.23 103.898V131.588C300.228 132.793 299.749 133.949 298.897 134.801C298.045 135.653 296.89 136.132 295.685 136.133Z" fill="#E6E6E6"/>
<path d="M277.822 132.566H253.886C252.758 132.565 251.676 132.116 250.878 131.318C250.08 130.52 249.631 129.439 249.63 128.31V107.176C249.631 106.048 250.08 104.966 250.878 104.168C251.676 103.37 252.758 102.921 253.886 102.92H292.525C293.653 102.921 294.735 103.37 295.533 104.168C296.331 104.966 296.78 106.048 296.781 107.176V113.608C296.775 118.634 294.776 123.453 291.222 127.007C287.668 130.561 282.849 132.561 277.822 132.566Z" fill="#FFEBCE"/>
<path d="M288.67 114.492H257.741C257.473 114.492 257.217 114.386 257.027 114.197C256.838 114.008 256.732 113.751 256.732 113.484C256.732 113.216 256.838 112.96 257.027 112.77C257.217 112.581 257.473 112.475 257.741 112.475H288.67C288.938 112.475 289.194 112.581 289.384 112.77C289.573 112.96 289.679 113.216 289.679 113.484C289.679 113.751 289.573 114.008 289.384 114.197C289.194 114.386 288.938 114.492 288.67 114.492Z" fill="#E2A27D"/>
<path d="M262.579 118.478H257.741C257.473 118.478 257.217 118.371 257.029 118.182C256.84 117.993 256.734 117.737 256.734 117.47C256.734 117.202 256.84 116.946 257.029 116.757C257.217 116.568 257.473 116.461 257.741 116.461H262.579C262.846 116.461 263.102 116.568 263.291 116.757C263.479 116.946 263.585 117.202 263.585 117.47C263.585 117.737 263.479 117.993 263.291 118.182C263.102 118.371 262.846 118.478 262.579 118.478Z" fill="#E2A27D"/>
<path d="M271.148 122.464H257.741C257.473 122.464 257.217 122.358 257.027 122.169C256.838 121.98 256.732 121.723 256.732 121.456C256.732 121.188 256.838 120.931 257.027 120.742C257.217 120.553 257.473 120.447 257.741 120.447H271.148C271.415 120.447 271.672 120.553 271.861 120.742C272.05 120.931 272.157 121.188 272.157 121.456C272.157 121.723 272.05 121.98 271.861 122.169C271.672 122.358 271.415 122.464 271.148 122.464Z" fill="#E2A27D"/>
<path d="M244.612 108.312C249.865 108.312 254.123 104.054 254.123 98.8017C254.123 93.5491 249.865 89.2911 244.612 89.2911C239.36 89.2911 235.102 93.5491 235.102 98.8017C235.102 104.054 239.36 108.312 244.612 108.312Z" fill="#3F3D56"/>
<path d="M136.952 26.4538C137.582 23.2581 138.834 20.2177 140.639 17.5061C142.444 14.7946 144.765 12.4651 147.47 10.6506C152.932 6.98597 159.627 5.64157 166.081 6.9131C169.277 7.54269 172.317 8.79556 175.029 10.6002C177.74 12.4048 180.07 14.7258 181.884 17.4307C183.699 20.1356 184.963 23.1715 185.604 26.3649C186.246 29.5583 186.252 32.8467 185.622 36.0424L184.754 35.8715C185.98 29.6477 184.684 23.1916 181.15 17.9237C177.616 12.6557 172.134 9.00733 165.91 7.78113C159.686 6.55494 153.23 7.85137 147.962 11.3852C142.695 14.9191 139.046 20.4009 137.82 26.6247L136.952 26.4538Z" fill="#3F3D56"/>
<path d="M146.37 42.1017L132.318 42.6838C132.018 42.6968 131.718 42.6418 131.443 42.5227C131.167 42.4036 130.921 42.2236 130.725 41.9961C130.531 41.7746 130.39 41.512 130.312 41.2281C130.234 40.9442 130.222 40.6464 130.275 40.3569C131.354 34.4767 131.039 28.4256 129.358 22.6887C129.228 22.25 129.254 21.7798 129.432 21.3583C129.61 20.9368 129.929 20.5901 130.334 20.3773C136.09 17.3869 141.483 17.2353 146.363 19.9261C146.619 20.0651 146.841 20.2581 147.015 20.4918C147.188 20.7256 147.308 20.9943 147.367 21.2793C148.638 27.5395 148.942 33.9572 148.27 40.3095C148.224 40.7874 148.006 41.2324 147.656 41.5619C147.307 41.8914 146.85 42.0832 146.37 42.1017Z" fill="#E2A27D"/>
<path d="M145.776 32.9044L135.031 33.3494C134.899 33.355 134.766 33.3345 134.642 33.289C134.517 33.2434 134.403 33.1738 134.306 33.0841C134.208 32.9944 134.129 32.8863 134.073 32.7661C134.018 32.6458 133.986 32.5158 133.981 32.3833C133.975 32.2509 133.996 32.1187 134.041 31.9942C134.087 31.8698 134.157 31.7556 134.247 31.6581C134.336 31.5606 134.445 31.4818 134.565 31.4261C134.685 31.3704 134.815 31.339 134.948 31.3336L145.692 30.8886C145.825 30.8831 145.957 30.9038 146.081 30.9494C146.206 30.995 146.32 31.0646 146.417 31.1543C146.515 31.244 146.594 31.3521 146.649 31.4722C146.705 31.5924 146.736 31.7224 146.742 31.8548C146.747 31.9871 146.727 32.1193 146.681 32.2437C146.636 32.368 146.566 32.4822 146.476 32.5797C146.387 32.6772 146.278 32.756 146.158 32.8117C146.038 32.8674 145.908 32.8989 145.776 32.9044Z" fill="#FFEBCE"/>
<path d="M145.629 29.3696L134.885 29.8147C134.617 29.8257 134.357 29.7302 134.16 29.549C133.963 29.3678 133.846 29.1158 133.835 28.8485C133.824 28.5812 133.92 28.3204 134.101 28.1236C134.282 27.9267 134.534 27.8099 134.801 27.7989L145.546 27.3538C145.813 27.3428 146.074 27.4383 146.271 27.6195C146.468 27.8007 146.584 28.0527 146.596 28.32C146.607 28.5873 146.511 28.8481 146.33 29.0449C146.149 29.2418 145.897 29.3586 145.629 29.3696Z" fill="#FFEBCE"/>
<path d="M238.335 37.651H193.376C192.171 37.6496 191.016 37.1704 190.164 36.3184C189.312 35.4664 188.832 34.3112 188.831 33.1063V5.41577C188.832 4.21087 189.312 3.0557 190.164 2.20371C191.016 1.35171 192.171 0.87246 193.376 0.871094H238.335C239.54 0.872455 240.695 1.3517 241.547 2.2037C242.399 3.0557 242.878 4.21086 242.879 5.41577V33.1063C242.878 34.3112 242.399 35.4664 241.547 36.3184C240.695 37.1704 239.54 37.6497 238.335 37.651Z" fill="#E6E6E6"/>
<path d="M220.472 34.0843H196.536C195.408 34.083 194.326 33.6342 193.528 32.8363C192.73 32.0384 192.281 30.9565 192.28 29.828V8.694C192.281 7.56554 192.73 6.48368 193.528 5.68576C194.326 4.88784 195.408 4.43902 196.536 4.43777H235.175C236.303 4.43903 237.385 4.88785 238.183 5.68578C238.981 6.4837 239.43 7.56556 239.431 8.694V15.1255C239.425 20.152 237.426 24.9709 233.872 28.5252C230.317 32.0794 225.498 34.0786 220.472 34.0843Z" fill="#FFEBCE"/>
<path d="M231.32 16.0103H200.391C200.123 16.0103 199.866 15.904 199.677 15.7149C199.488 15.5257 199.382 15.2691 199.382 15.0016C199.382 14.7341 199.488 14.4775 199.677 14.2883C199.866 14.0991 200.123 13.9929 200.391 13.9929H231.32C231.588 13.9929 231.844 14.0991 232.033 14.2883C232.223 14.4775 232.329 14.7341 232.329 15.0016C232.329 15.2691 232.223 15.5257 232.033 15.7149C231.844 15.904 231.588 16.0103 231.32 16.0103Z" fill="#E2A27D"/>
<path d="M205.229 19.9963H200.39C200.123 19.9957 199.867 19.8892 199.679 19.7001C199.49 19.5109 199.384 19.2547 199.384 18.9875C199.384 18.7203 199.49 18.4641 199.679 18.2749C199.867 18.0858 200.123 17.9793 200.39 17.9787H205.229C205.496 17.9793 205.752 18.0858 205.941 18.2749C206.129 18.4641 206.235 18.7203 206.235 18.9875C206.235 19.2547 206.129 19.5109 205.941 19.7001C205.752 19.8892 205.496 19.9957 205.229 19.9963Z" fill="#E2A27D"/>
<path d="M213.798 23.9822H200.391C200.123 23.9822 199.866 23.8759 199.677 23.6867C199.488 23.4976 199.382 23.241 199.382 22.9734C199.382 22.7059 199.488 22.4493 199.677 22.2601C199.866 22.0709 200.123 21.9647 200.391 21.9647H213.798C214.065 21.9652 214.321 22.0718 214.51 22.2609C214.699 22.45 214.805 22.7063 214.805 22.9734C214.805 23.2406 214.699 23.4969 214.51 23.686C214.321 23.8751 214.065 23.9816 213.798 23.9822Z" fill="#E2A27D"/>
<path d="M194.174 42.4446C196.947 37.9837 195.579 32.1194 191.118 29.3464C186.657 26.5734 180.793 27.9418 178.02 32.4027C175.247 36.8636 176.615 42.7279 181.076 45.5009C185.537 48.2739 191.401 46.9055 194.174 42.4446Z" fill="#3F3D56"/>
<path d="M399.594 260.839H268.928C268.82 260.839 268.717 260.797 268.641 260.72C268.564 260.644 268.521 260.541 268.521 260.433C268.521 260.325 268.564 260.222 268.641 260.145C268.717 260.069 268.82 260.026 268.928 260.026H399.594C399.701 260.026 399.805 260.069 399.881 260.145C399.957 260.222 400 260.325 400 260.433C400 260.541 399.957 260.644 399.881 260.72C399.805 260.797 399.701 260.839 399.594 260.839Z" fill="#CCCCCC"/>
<path d="M59.4036 111.618C55.5016 101.303 55.8571 89.8601 60.3919 79.807C64.9267 69.7539 73.2694 61.9141 83.5845 58.0121C93.8997 54.1101 105.342 54.4656 115.396 59.0004C125.449 63.5352 133.288 71.8778 137.19 82.193L136.363 82.5061C134.472 77.5072 131.615 72.9297 127.955 69.035C124.295 65.1402 119.904 62.0045 115.032 59.8069C110.16 57.6092 104.903 56.3927 99.561 56.2267C94.2189 56.0607 88.8965 56.9485 83.8976 58.8395C78.8987 60.7305 74.3212 63.5875 70.4265 67.2475C66.5317 70.9075 63.396 75.2988 61.1984 80.1707C59.0007 85.0425 57.7842 90.2995 57.6182 95.6416C57.4522 100.984 58.3401 106.306 60.231 111.305L59.4036 111.618Z" fill="#3F3D56"/>
<path d="M95.7798 70.43H81.7153C81.4148 70.4306 81.1181 70.3632 80.8474 70.2328C80.5767 70.1024 80.339 69.9124 80.1522 69.677C79.9676 69.4477 79.8374 69.1795 79.7714 68.8926C79.7053 68.6057 79.705 68.3076 79.7706 68.0206C81.1021 62.1443 81.0267 56.0366 79.5508 50.1948C79.4462 49.7814 79.4783 49.3452 79.6423 48.9516C79.8063 48.558 80.0935 48.2281 80.4608 48.0113C85.5554 45.0457 90.996 45.1362 96.631 48.281C96.8978 48.4265 97.1278 48.631 97.3035 48.8789C97.4792 49.1267 97.5961 49.4115 97.645 49.7114C98.648 56.0045 98.6841 62.4138 97.7523 68.7179C97.6861 69.1935 97.4498 69.629 97.0871 69.9438C96.7245 70.2586 96.26 70.4313 95.7798 70.43Z" fill="#E2A27D"/>
<path d="M89.2081 56.7878H84.3699C84.1028 56.7872 83.8467 56.6807 83.658 56.4916C83.4693 56.3025 83.3633 56.0462 83.3633 55.779C83.3633 55.5119 83.4693 55.2556 83.658 55.0665C83.8467 54.8773 84.1028 54.7708 84.3699 54.7703H89.2081C89.4753 54.7708 89.7314 54.8773 89.9201 55.0665C90.1088 55.2556 90.2148 55.5119 90.2148 55.779C90.2148 56.0462 90.1088 56.3025 89.9201 56.4916C89.7314 56.6807 89.4753 56.7872 89.2081 56.7878Z" fill="#FFEBCE"/>
<path d="M95.124 60.7737H84.3701C84.1026 60.7737 83.846 60.6674 83.6568 60.4782C83.4676 60.2891 83.3613 60.0325 83.3613 59.7649C83.3613 59.4974 83.4676 59.2408 83.6568 59.0516C83.846 58.8624 84.1026 58.7562 84.3701 58.7562H95.124C95.3912 58.7567 95.6472 58.8633 95.8359 59.0524C96.0246 59.2415 96.1306 59.4978 96.1306 59.7649C96.1306 60.0321 96.0246 60.2884 95.8359 60.4775C95.6472 60.6666 95.3912 60.7731 95.124 60.7737Z" fill="#FFEBCE"/>
<path d="M49.5037 111.061H4.54465C3.33975 111.059 2.18459 110.58 1.33259 109.728C0.480602 108.876 0.0013589 107.721 0 106.516V78.8256C0.0013589 77.6207 0.480602 76.4655 1.33259 75.6135C2.18459 74.7615 3.33975 74.2822 4.54465 74.2809H49.5037C50.7086 74.2822 51.8638 74.7615 52.7158 75.6135C53.5678 76.4655 54.0471 77.6206 54.0484 78.8256V106.516C54.0471 107.721 53.5678 108.876 52.7158 109.728C51.8638 110.58 50.7086 111.059 49.5037 111.061Z" fill="#E6E6E6"/>
<path d="M31.6407 107.494H7.70493C6.57647 107.493 5.49458 107.044 4.69662 106.246C3.89866 105.448 3.44979 104.366 3.44849 103.238V82.1038C3.44979 80.9753 3.89866 79.8935 4.69662 79.0955C5.49458 78.2976 6.57647 77.8488 7.70493 77.8476H46.3435C47.4719 77.8488 48.5538 78.2976 49.3517 79.0956C50.1496 79.8935 50.5984 80.9753 50.5997 82.1038V88.5353C50.594 93.5618 48.5947 98.3807 45.0404 101.935C41.4861 105.489 36.6672 107.488 31.6407 107.494Z" fill="#FFEBCE"/>
<path d="M42.4889 89.4201H11.5593C11.2917 89.4201 11.0352 89.3138 10.846 89.1246C10.6568 88.9354 10.5505 88.6789 10.5505 88.4113C10.5505 88.1438 10.6568 87.8872 10.846 87.6981C11.0352 87.5089 11.2917 87.4026 11.5593 87.4026H42.4889C42.7564 87.4026 43.013 87.5089 43.2022 87.6981C43.3913 87.8872 43.4976 88.1438 43.4976 88.4113C43.4976 88.6789 43.3913 88.9354 43.2022 89.1246C43.013 89.3138 42.7564 89.4201 42.4889 89.4201Z" fill="#E2A27D"/>
<path d="M16.3976 93.406H11.5594C11.2922 93.4055 11.0362 93.2989 10.8474 93.1098C10.6587 92.9207 10.5527 92.6644 10.5527 92.3973C10.5527 92.1301 10.6587 91.8738 10.8474 91.6847C11.0362 91.4956 11.2922 91.389 11.5594 91.3885H16.3976C16.6648 91.389 16.9208 91.4956 17.1095 91.6847C17.2983 91.8738 17.4043 92.1301 17.4043 92.3973C17.4043 92.6644 17.2983 92.9207 17.1095 93.1098C16.9208 93.2989 16.6648 93.4055 16.3976 93.406Z" fill="#E2A27D"/>
<path d="M24.9666 97.392H11.5594C11.2922 97.3914 11.0362 97.2849 10.8474 97.0958C10.6587 96.9066 10.5527 96.6504 10.5527 96.3832C10.5527 96.116 10.6587 95.8597 10.8474 95.6706C11.0362 95.4815 11.2922 95.375 11.5594 95.3744H24.9666C25.2342 95.3744 25.4908 95.4807 25.6799 95.6699C25.8691 95.8591 25.9754 96.1156 25.9754 96.3832C25.9754 96.6507 25.8691 96.9073 25.6799 97.0965C25.4908 97.2857 25.2342 97.392 24.9666 97.392Z" fill="#E2A27D"/>
<path d="M67.2553 114.97C70.0283 110.509 68.6599 104.645 64.199 101.872C59.738 99.0987 53.8738 100.467 51.1008 104.928C48.3278 109.389 49.6961 115.253 54.1571 118.026C58.618 120.799 64.4823 119.431 67.2553 114.97Z" fill="#3F3D56"/>
<path d="M143.982 96.9636H129.918C129.618 96.9643 129.321 96.8969 129.05 96.7665C128.779 96.6361 128.542 96.446 128.355 96.2107C128.17 95.9813 128.04 95.7131 127.974 95.4262C127.908 95.1394 127.908 94.8413 127.973 94.5543C129.302 88.6883 129.23 82.5916 127.761 76.7589C127.657 76.3398 127.692 75.898 127.862 75.5008C128.031 75.1035 128.326 74.7723 128.701 74.5575C135.533 70.6466 140.943 70.7545 145.24 74.8877C145.541 75.1825 145.739 75.5664 145.805 75.9827C146.849 82.3594 146.9 88.8593 145.955 95.2515C145.889 95.7272 145.652 96.1627 145.29 96.4775C144.927 96.7922 144.463 96.965 143.982 96.9636Z" fill="#FF6584"/>
<path d="M138.296 83.7637H133.457C133.19 83.7631 132.934 83.6566 132.745 83.4675C132.557 83.2784 132.451 83.0221 132.451 82.7549C132.451 82.4877 132.557 82.2315 132.745 82.0424C132.934 81.8532 133.19 81.7467 133.457 81.7462H138.296C138.563 81.7467 138.819 81.8532 139.007 82.0424C139.196 82.2315 139.302 82.4877 139.302 82.7549C139.302 83.0221 139.196 83.2784 139.007 83.4675C138.819 83.6566 138.563 83.7631 138.296 83.7637Z" fill="#FFEBCE"/>
<path d="M144.211 87.7496H133.457C133.19 87.7496 132.933 87.6433 132.744 87.4541C132.555 87.265 132.448 87.0084 132.448 86.7408C132.448 86.4733 132.555 86.2167 132.744 86.0275C132.933 85.8383 133.19 85.7321 133.457 85.7321H144.211C144.478 85.7326 144.734 85.8392 144.923 86.0283C145.112 86.2174 145.218 86.4737 145.218 86.7408C145.218 87.008 145.112 87.2643 144.923 87.4534C144.734 87.6425 144.478 87.749 144.211 87.7496Z" fill="#FFEBCE"/>
</g>
<defs>
<clipPath id="clip0_55_1016">
<rect width="400" height="259.968" fill="white" transform="translate(0 0.871094)"/>
</clipPath>
</defs>
</svg>
