<svg width="241" height="173" viewBox="0 0 241 173" fill="none" xmlns="http://www.w3.org/2000/svg">
<g clip-path="url(#clip0_55_1163)">
<path d="M32.7542 138.164H213.81V2.97421H32.7542V138.164Z" fill="white"/>
<path d="M215.303 140.367H31.2605V0.77124H215.303V140.367ZM34.2476 135.961H212.316V5.177H34.2476V135.961Z" fill="#E5E5E5"/>
<path d="M117.257 31.5742V77.4592H72.0333L63.6786 92.2444L64.6326 77.4592H60.5674V31.5742H117.257Z" fill="#E2A27D"/>
<path d="M144.625 34.2966V63.7162H173.62L178.977 73.1955L178.365 63.7162H180.971V34.2966H144.625Z" fill="#F0F0F0"/>
<path d="M24.9602 168.28H27.5762L28.8208 153.398H24.96L24.9602 168.28Z" fill="#FFB7B7"/>
<path d="M24.293 167.02L29.4448 167.02C30.3155 167.02 31.1507 167.53 31.7664 168.438C32.3821 169.346 32.728 170.578 32.7281 171.862V172.019L24.2931 172.02L24.293 167.02Z" fill="#2F2E41"/>
<path d="M56.3889 168.153L58.9292 167.231L57.7266 152.341L53.9775 153.702L56.3889 168.153Z" fill="#FFB7B7"/>
<path d="M55.5371 167.165L60.5396 165.349C61.3851 165.042 62.2788 165.243 63.0238 165.908C63.7688 166.573 64.3042 167.647 64.5123 168.894L64.5378 169.047L56.3472 172.02L55.5371 167.165Z" fill="#2F2E41"/>
<path d="M23.3516 164.731L23.895 160.63C23.895 160.63 24.8953 144.797 32.0742 128.994L34.4109 111.828C34.4109 111.828 33.7169 98.8344 40.4149 91.8009L42.4799 89.7028L49.7198 90.3149L51.392 103.817L54.7612 135.765C54.7612 135.765 55.6306 135.886 55.9567 139.58C56.6194 141.131 57.0114 142.901 57.0979 144.73C57.0979 144.73 58.8221 151.746 59.284 156.911L59.2297 161.966L55.5888 164.827L48.0002 133.173L42.5726 115.477C42.5726 115.477 39.9602 127.945 35.9589 138.626C35.9589 138.626 30.4784 156.122 29.3835 159.677L28.188 165.494L23.3516 164.731Z" fill="#2F2E41"/>
<path d="M47.5584 62.5332C50.4164 62.5332 52.7333 59.116 52.7333 54.9007C52.7333 50.6853 50.4164 47.2681 47.5584 47.2681C44.7004 47.2681 42.3835 50.6853 42.3835 54.9007C42.3835 59.116 44.7004 62.5332 47.5584 62.5332Z" fill="#FFB7B7"/>
<path d="M47.5584 62.5332C50.4164 62.5332 52.7333 59.116 52.7333 54.9007C52.7333 50.6853 50.4164 47.2681 47.5584 47.2681C44.7004 47.2681 42.3835 50.6853 42.3835 54.9007C42.3835 59.116 44.7004 62.5332 47.5584 62.5332Z" fill="#FFB8B8"/>
<path d="M40.4299 91.8824L42.1382 85.5887C40.9313 79.8227 41.0052 73.6386 42.3494 67.9389L42.6762 67.5419C45.5235 64.0835 48.0226 64.7131 50.3416 68.9437C50.7151 69.6314 51.1518 70.2389 51.6393 70.7483C52.6621 71.8067 54.2847 77.557 52.1422 80.9276L50.4282 95.6744C50.6087 103.816 46.603 100.75 40.4299 91.8824Z" fill="#3F3D56"/>
<path d="M64.9245 83.3224C64.7036 83.076 64.4487 82.904 64.1779 82.8185C63.907 82.7331 63.6268 82.7363 63.3568 82.8279C63.0869 82.9196 62.8339 83.0974 62.6156 83.3488C62.3973 83.6002 62.219 83.9192 62.0933 84.2833L57.7769 83.7876L56.9329 87.583L63.0352 88.1568C63.4639 88.4276 63.945 88.4571 64.3874 88.2398C64.8298 88.0224 65.2028 87.5731 65.4357 86.9772C65.6686 86.3813 65.7452 85.6802 65.651 85.0065C65.5567 84.3329 65.2983 83.7337 64.9245 83.3224Z" fill="#FFB7B7"/>
<path d="M60.7919 89.4794L48.4922 86.0921L44.4917 76.1996C44.2347 75.1484 44.2713 73.9897 44.5935 72.9783C44.9156 71.9669 45.497 71.1858 46.2097 70.8067C46.9224 70.4275 47.708 70.4815 48.3938 70.9567C49.0795 71.432 49.6091 72.2895 49.8661 73.3406L51.7425 80.9937L61.4698 83.3685L60.7919 89.4794Z" fill="#CCCCCC"/>
<path d="M38.3343 53.229C41.0762 53.229 43.2989 49.9506 43.2989 45.9065C43.2989 41.8624 41.0762 38.584 38.3343 38.584C35.5924 38.584 33.3696 41.8624 33.3696 45.9065C33.3696 49.9506 35.5924 53.229 38.3343 53.229Z" fill="#2F2E41"/>
<path d="M34.0519 51.97C34.6945 52.655 35.439 53.1031 36.223 53.2767C37.0071 53.4503 37.8079 53.3445 38.5586 52.9681C39.3092 52.5916 39.9878 51.9555 40.5376 51.1129C41.0874 50.2703 41.4924 49.2458 41.7187 48.1251C41.633 49.1295 41.4072 50.0967 41.0553 50.9658C40.7034 51.8349 40.2332 52.587 39.6743 53.1746C39.1154 53.7621 38.48 54.1724 37.8082 54.3795C37.1364 54.5865 36.4428 54.5859 35.7711 54.3777C35.0995 54.1694 34.4644 53.758 33.906 53.1695C33.3476 52.581 32.878 51.8281 32.5268 50.9584C32.1756 50.0886 31.9505 49.121 31.8657 48.1165C31.7809 47.1119 31.8382 46.0924 32.034 45.1222C31.9228 46.4257 32.0514 47.7492 32.4065 48.9541C32.7616 50.159 33.3299 51.2007 34.0519 51.97Z" fill="#2F2E41"/>
<path d="M53.6446 51.9781C52.7779 49.6896 52.4463 48.7336 51.3288 47.3419C50.3406 46.1112 49.125 45.7497 48.1446 46.9159C46.9848 46.1768 45.6942 46.0092 44.4647 46.438C43.2351 46.8669 42.1322 47.8692 41.3196 49.2962C40.5071 50.7233 40.0283 52.4988 39.9544 54.3591C39.8805 56.2194 40.2154 58.0653 40.9094 59.6225C41.6034 61.1797 42.6195 62.3652 43.8067 63.0029C44.9939 63.6405 46.2888 63.6964 47.4993 63.1621C48.7097 62.6278 49.771 61.5319 50.5255 60.0371C51.2799 58.5424 51.6874 56.7285 51.6873 54.865C51.6864 54.5378 51.6731 54.2108 51.6473 53.8858C52.4995 53.7093 52.7924 52.1547 53.6446 51.9781Z" fill="#2F2E41"/>
<path d="M206.265 106.759C206.281 106.254 206.372 105.761 206.532 105.313C206.691 104.866 206.916 104.475 207.189 104.169C207.461 103.863 207.777 103.649 208.112 103.543C208.447 103.436 208.794 103.438 209.128 103.551L212.229 97.1048L215.345 98.929L210.878 107.941C210.713 108.757 210.351 109.455 209.86 109.903C209.37 110.351 208.785 110.518 208.216 110.373C207.647 110.227 207.134 109.779 206.775 109.113C206.415 108.447 206.234 107.61 206.265 106.759Z" fill="#A0616A"/>
<path d="M209.667 101.216L215.18 87.5387L212.934 78.7033L215.994 66.6696L216.106 66.741C216.18 66.7878 217.919 67.9319 218.176 72.0294L221.692 88.3272L212.309 106.282L209.667 101.216Z" fill="#3F3D56"/>
<path d="M179.722 50.9339C180.062 50.9968 180.388 51.1689 180.679 51.4382C180.969 51.7075 181.215 52.0673 181.401 52.4924C181.587 52.9174 181.707 53.3973 181.753 53.8983C181.8 54.3993 181.771 54.9092 181.669 55.3921L185.787 60.4507L184.313 64.891L178.566 57.6268C178.027 57.321 177.584 56.7344 177.319 55.9781C177.054 55.2218 176.986 54.3484 177.128 53.5234C177.271 52.6984 177.613 51.9791 178.091 51.5019C178.569 51.0246 179.149 50.8225 179.722 50.9339Z" fill="#A0616A"/>
<path d="M183.206 56.365L192.025 65.5304L198.171 62.9102L206.069 68.3396L206.012 68.5C205.975 68.6052 205.067 71.0731 202.277 71.1351L190.989 75.0452L179.577 59.8585L183.206 56.365Z" fill="#3F3D56"/>
<path d="M199.343 167.821H196.277L194.819 150.378L199.344 150.379L199.343 167.821Z" fill="#A0616A"/>
<path d="M194.087 166.529H200V172.02H190.364C190.364 171.299 190.461 170.584 190.648 169.918C190.835 169.252 191.109 168.647 191.455 168.137C191.8 167.627 192.211 167.222 192.663 166.946C193.114 166.671 193.598 166.529 194.087 166.529Z" fill="#2F2E41"/>
<path d="M211.598 167.821H208.531L207.073 150.378L211.598 150.379L211.598 167.821Z" fill="#A0616A"/>
<path d="M206.342 166.529H212.255V172.02H202.619C202.619 171.299 202.715 170.584 202.902 169.918C203.089 169.252 203.363 168.647 203.709 168.137C204.055 167.627 204.465 167.222 204.917 166.946C205.369 166.671 205.853 166.529 206.342 166.529Z" fill="#2F2E41"/>
<path d="M212.688 104.154L212.438 129.974L212.187 163.909L206.686 163.171L203.935 116.327L200.434 163.171H194.754L194.181 115.957L196.182 105.63L212.688 104.154Z" fill="#2F2E41"/>
<path d="M195.634 105.787L194.796 105.734L198.689 74.101L197.095 64.5399C197.012 64.0425 197.056 63.5175 197.218 63.0644C197.38 62.6114 197.649 62.2618 197.974 62.0818L200.842 60.4956L201.855 56.3856L209.85 57.6562L210.047 60.8682C210.913 61.278 218.047 64.7823 217.555 68.7751C217.069 72.7162 214.2 85.1153 214.055 85.7437L213.552 103.526L213.49 103.571C213.416 103.626 207.906 107.622 201.919 107.622C199.76 107.675 197.617 107.05 195.634 105.787Z" fill="#3F3D56"/>
<path d="M205.54 54.3517C208.719 54.3517 211.296 50.5507 211.296 45.8619C211.296 41.173 208.719 37.372 205.54 37.372C202.361 37.372 199.783 41.173 199.783 45.8619C199.783 50.5507 202.361 54.3517 205.54 54.3517Z" fill="#A0616A"/>
<path d="M210.202 54.0802C209.105 55.8037 207.068 54.8785 206.925 52.524C206.913 52.3412 206.914 52.1572 206.927 51.9747C207.001 50.9317 207.409 49.9848 207.312 48.8836C207.289 48.6096 207.22 48.3484 207.11 48.1248C206.236 46.3983 204.184 48.897 203.359 47.3341C202.853 46.3757 203.448 44.8668 203.06 43.7957C202.548 42.382 201.03 43.0794 200.078 42.3052C199.019 41.4437 199.083 39.0476 199.78 37.5901C200.63 35.8127 202.12 34.8643 203.592 34.7276C205.064 34.5909 206.525 35.1777 207.9 35.9675C209.461 36.8649 211.009 38.1051 211.97 40.1299C213.138 42.5922 213.251 45.9026 212.666 48.7818C212.311 50.5332 211.098 52.6728 210.202 54.0802Z" fill="#2F2E41"/>
<path d="M147.837 165.475L148.692 162.231L140.615 155.822L139.353 160.61L147.837 165.475Z" fill="#FFB8B8"/>
<path d="M152.419 157.012C152.057 156.804 151.67 156.703 151.281 156.716C150.892 156.728 150.509 156.853 150.153 157.085C149.797 157.316 149.475 157.648 149.206 158.063C148.937 158.477 148.726 158.966 148.586 159.501L148.009 161.688L147.119 165.064L146.902 165.891L149.752 167.527L152.509 157.064L152.419 157.012Z" fill="#2F2E41"/>
<path d="M147.119 159.232L146.748 160.686L145.819 164.317L145.797 164.408C143.432 164.856 140.84 163.978 138.442 162.613C137.483 162.067 136.543 161.449 135.627 160.76C134.271 159.749 133.057 158.683 132.088 157.771C130.63 156.39 129.728 155.354 129.728 155.354C129.728 155.354 129.49 155.671 129.059 156.216C128.481 156.945 127.558 158.083 126.388 159.424C125.942 159.938 125.463 160.477 124.951 161.039C121.178 165.167 116.336 154.152 116.336 154.152C116.336 154.152 117.698 152.874 118.054 152.625C119.199 151.826 121.891 149.94 124.213 148.263C125.409 147.399 126.506 146.588 127.242 146.011C129.849 143.964 133.091 147.838 133.091 147.838L147.119 159.232Z" fill="#2F2E41"/>
<path opacity="0.14" d="M147.119 159.232L146.748 160.686L145.819 164.317L145.797 164.408C143.432 164.856 140.84 163.978 138.442 162.613C137.483 162.067 136.543 161.449 135.627 160.76C134.271 159.749 133.057 158.683 132.088 157.771C130.63 156.39 129.728 155.354 129.728 155.354C129.728 155.354 129.49 155.671 129.059 156.216C128.481 156.945 127.558 158.083 126.388 159.424C125.942 159.938 125.463 160.477 124.951 161.039C121.178 165.167 116.336 154.152 116.336 154.152C116.336 154.152 117.698 152.874 118.054 152.625C119.199 151.826 121.891 149.94 124.213 148.263C125.409 147.399 126.506 146.588 127.242 146.011C129.849 143.964 133.091 147.838 133.091 147.838L147.119 159.232Z" fill="black"/>
<path d="M109.379 128.696H98.2139C97.9842 128.696 97.7641 128.561 97.6017 128.321C97.4393 128.082 97.3479 127.757 97.3477 127.418V120.32C97.3477 117.798 98.0271 115.379 99.2364 113.595C100.446 111.811 102.086 110.809 103.796 110.809C105.507 110.809 107.147 111.811 108.356 113.595C109.565 115.379 110.245 117.798 110.245 120.32V127.418C110.245 127.757 110.153 128.082 109.991 128.321C109.828 128.561 109.608 128.696 109.379 128.696Z" fill="#2F2E41"/>
<path d="M119.996 137.612C119.736 137.679 119.49 137.829 119.273 138.053C119.057 138.276 118.877 138.566 118.745 138.903C118.613 139.24 118.533 139.616 118.51 140.004C118.487 140.392 118.523 140.782 118.613 141.148L115.577 145.266L116.824 148.598L121.056 142.693C121.462 142.428 121.789 141.952 121.973 141.356C122.157 140.759 122.187 140.084 122.056 139.458C121.926 138.832 121.644 138.298 121.264 137.957C120.884 137.617 120.433 137.494 119.996 137.612Z" fill="#FFB8B8"/>
<path d="M110.861 156.336C110.724 156.336 110.587 156.328 110.449 156.31C109.63 156.209 108.842 155.803 108.159 155.13C107.475 154.457 106.919 153.539 106.542 152.462L101.678 138.654C101.36 137.749 101.29 136.698 101.483 135.719C101.676 134.74 102.118 133.909 102.716 133.398C103.315 132.888 104.023 132.737 104.695 132.977C105.367 133.218 105.95 133.831 106.323 134.689L110.81 149.539L116.916 142.222L120.451 144.252L114.481 153.974C114.022 154.717 113.463 155.31 112.84 155.717C112.217 156.124 111.543 156.335 110.861 156.336Z" fill="#E2A27D"/>
<path d="M147.155 170.038L148.176 166.901L140.457 159.595L138.949 164.226L147.155 170.038Z" fill="#FFB8B8"/>
<path d="M152.164 162.119C151.813 161.871 151.433 161.726 151.045 161.695C150.656 161.663 150.267 161.745 149.9 161.935C149.533 162.125 149.195 162.42 148.906 162.803C148.616 163.186 148.38 163.649 148.212 164.166L147.523 166.281L146.46 169.546L146.2 170.347L148.957 172.3L152.251 162.182L152.164 162.119Z" fill="#2F2E41"/>
<path d="M146.764 163.732L146.318 165.14L145.203 168.655L145.176 168.743C142.795 168.922 140.256 167.752 137.937 166.12C137.008 165.467 136.104 164.744 135.226 163.953C133.927 162.792 132.772 161.591 131.854 160.572C130.472 159.03 129.627 157.894 129.627 157.894C129.627 157.894 129.372 158.184 128.914 158.678C128.3 159.34 127.32 160.37 126.085 161.574C125.613 162.037 125.107 162.519 124.568 163.022C120.591 166.71 114.935 171.202 110.125 172.15C101.676 173.817 103.665 157.187 103.665 157.187L110.389 152.037L113.243 152.892L116.421 153.84L117.547 154.178C117.547 154.178 117.761 154.059 118.129 153.851C119.313 153.184 122.094 151.609 124.497 150.2C125.734 149.473 126.87 148.789 127.634 148.298C130.341 146.552 133.371 150.782 133.371 150.782L146.764 163.732Z" fill="#2F2E41"/>
<path d="M91.3608 172.547C91.618 172.46 91.8591 172.291 92.0672 172.051C92.2753 171.812 92.4452 171.508 92.5651 171.162C92.685 170.815 92.7519 170.434 92.761 170.045C92.7702 169.656 92.7214 169.268 92.6182 168.91L95.5057 164.566L94.1437 161.334L90.1244 167.553C89.7279 167.849 89.4188 168.349 89.2556 168.959C89.0923 169.568 89.0864 170.245 89.2388 170.86C89.3912 171.476 89.6914 171.987 90.0825 172.298C90.4736 172.609 90.9284 172.698 91.3608 172.547Z" fill="#FFB8B8"/>
<path d="M105.377 129.013C107.863 129.013 109.879 126.04 109.879 122.373C109.879 118.706 107.863 115.733 105.377 115.733C102.891 115.733 100.875 118.706 100.875 122.373C100.875 126.04 102.891 129.013 105.377 129.013Z" fill="#FFB8B8"/>
<path d="M99.5205 140.804L103.442 157.202L103.418 157.26C102.873 158.59 102.695 159.662 102.903 160.362C102.958 160.54 103.038 160.698 103.139 160.825C103.239 160.953 103.357 161.047 103.484 161.101L112.764 151.534L112.439 147.7L112.457 147.657C113.354 145.54 113.645 143.623 113.321 141.959C113.027 140.613 112.393 139.485 111.551 138.811L111.518 138.773L106.89 130.464L100.702 132.085L99.5205 140.804Z" fill="#E2A27D"/>
<path d="M93.557 169.587L90.9299 164.818L97.2629 149.398L100.216 135.937C100.377 135.202 100.643 134.526 100.997 133.955C101.35 133.384 101.782 132.932 102.264 132.628C102.746 132.325 103.266 132.177 103.79 132.195C104.314 132.214 104.829 132.397 105.301 132.734C105.773 133.071 106.19 133.553 106.525 134.147C106.86 134.742 107.104 135.435 107.242 136.181C107.379 136.927 107.407 137.708 107.323 138.47C107.238 139.233 107.044 139.961 106.753 140.604L101.333 152.582L93.557 169.587Z" fill="#E2A27D"/>
<path d="M111.77 121.03H104.943L104.873 119.585L104.523 121.03H103.472L103.333 118.165L102.64 121.03H100.606V120.888C100.607 118.894 101.145 116.981 102.101 115.571C103.058 114.16 104.354 113.367 105.707 113.365H106.669C108.022 113.367 109.318 114.16 110.275 115.571C111.231 116.981 111.769 118.894 111.77 120.888V121.03Z" fill="#2F2E41"/>
<path d="M104.888 130.021C104.836 130.021 104.785 130.014 104.734 130.001L99.7354 128.7V116.514H105.238L105.102 116.749C103.207 120.009 104.635 125.296 105.655 128.158C105.73 128.367 105.763 128.604 105.751 128.84C105.739 129.077 105.682 129.303 105.587 129.494C105.507 129.657 105.402 129.79 105.28 129.882C105.159 129.973 105.024 130.021 104.888 130.021Z" fill="#2F2E41"/>
<path d="M179.575 108.19V125.357H128.013L120.567 138.533L121.417 125.357H117.795V108.19H179.575Z" fill="#F0F0F0"/>
<path d="M139.231 119.857C140.396 119.857 141.341 118.464 141.341 116.746C141.341 115.027 140.396 113.634 139.231 113.634C138.066 113.634 137.122 115.027 137.122 116.746C137.122 118.464 138.066 119.857 139.231 119.857Z" fill="white"/>
<path d="M132.112 119.857C133.277 119.857 134.221 118.464 134.221 116.746C134.221 115.027 133.277 113.634 132.112 113.634C130.947 113.634 130.002 115.027 130.002 116.746C130.002 118.464 130.947 119.857 132.112 119.857Z" fill="white"/>
<path d="M124.993 119.857C126.158 119.857 127.102 118.464 127.102 116.746C127.102 115.027 126.158 113.634 124.993 113.634C123.827 113.634 122.883 115.027 122.883 116.746C122.883 118.464 123.827 119.857 124.993 119.857Z" fill="white"/>
<path d="M240.478 172.36H0.263682C0.193749 172.36 0.12668 172.319 0.0772305 172.246C0.0277805 172.173 0 172.074 0 171.971C0 171.868 0.0277805 171.769 0.0772305 171.696C0.12668 171.623 0.193749 171.582 0.263682 171.582H240.478C240.548 171.582 240.615 171.623 240.664 171.696C240.714 171.769 240.742 171.868 240.742 171.971C240.742 172.074 240.714 172.173 240.664 172.246C240.615 172.319 240.548 172.36 240.478 172.36Z" fill="#CACACA"/>
</g>
<defs>
<clipPath id="clip0_55_1163">
<rect width="240.742" height="171.848" fill="white" transform="translate(0 0.77124)"/>
</clipPath>
</defs>
</svg>
