<svg width="164" height="153" viewBox="0 0 164 153" fill="none" xmlns="http://www.w3.org/2000/svg">
<g clip-path="url(#clip0_55_1218)">
<path d="M158.801 123.576C158.801 132.996 153.201 136.285 146.293 136.285C146.133 136.285 145.973 136.283 145.813 136.279C145.494 136.272 145.176 136.258 144.863 136.236C138.629 135.795 133.785 132.336 133.785 123.576C133.785 114.511 145.368 103.072 146.241 102.223L146.243 102.222C146.276 102.189 146.293 102.173 146.293 102.173C146.293 102.173 158.801 114.156 158.801 123.576Z" fill="#3F3D56"/>
<path d="M145.837 134.844L150.412 128.452L145.826 135.545L145.813 136.279C145.494 136.272 145.176 136.258 144.863 136.236L145.356 126.812L145.353 126.739L145.361 126.725L145.407 125.835L140.81 118.723L145.421 125.167L145.433 125.356L145.806 118.235L141.869 110.887L145.853 116.984L146.241 102.223L146.243 102.173V102.222L146.179 113.863L150.096 109.248L146.162 114.865L146.059 121.24L149.717 115.122L146.043 122.179L145.986 125.723L151.297 117.207L145.966 126.96L145.837 134.844Z" fill="#F2F2F2"/>
<path d="M28.8559 133.702C28.8559 139.347 25.5004 141.318 21.3616 141.318C21.2652 141.318 21.1694 141.316 21.074 141.314C20.8824 141.31 20.6922 141.301 20.5047 141.288C16.769 141.024 13.8667 138.951 13.8667 133.702C13.8667 128.271 20.8068 121.416 21.3303 120.908L21.3313 120.907C21.3511 120.887 21.3615 120.877 21.3615 120.877C21.3615 120.877 28.8559 128.058 28.8559 133.702Z" fill="#3F3D56"/>
<path d="M21.0881 140.454L23.8295 136.624L21.0814 140.874L21.0741 141.314C20.8824 141.31 20.6923 141.301 20.5048 141.288L20.8001 135.641L20.798 135.597L20.8032 135.589L20.8308 135.056L18.0759 130.794L20.8392 134.656L20.8459 134.769L21.0694 130.502L18.7109 126.099L21.098 129.753L21.3303 120.908L21.3314 120.877V120.907L21.2928 127.882L23.6404 125.117L21.2829 128.483L21.221 132.303L23.4133 128.637L21.2116 132.865L21.1772 134.989L24.3597 129.886L21.1652 135.73L21.0881 140.454Z" fill="#F2F2F2"/>
<path d="M87.664 42.3353H28.511V98.6957H87.664V42.3353Z" fill="url(#paint0_linear_55_1218)"/>
<path d="M86.3948 43.6047H29.7805V97.4263H86.3948V43.6047Z" fill="white"/>
<path d="M84.3638 45.6357H31.8115V95.3953H84.3638V45.6357Z" fill="#F9A826"/>
<path d="M67.7063 56.6885H74.1189L58.0875 84.3426L42.0562 56.6885H54.3201L58.0875 63.101L61.7747 56.6885H67.7063Z" fill="#41B883"/>
<path d="M42.0562 56.6885L58.0875 84.3426L74.1189 56.6885H67.7063L58.0875 73.2809L48.3885 56.6885H42.0562Z" fill="#41B883"/>
<path d="M48.3887 56.6885L58.0876 73.3611L67.7065 56.6885H61.7749L58.0876 63.101L54.3203 56.6885H48.3887Z" fill="#35495E"/>
<g opacity="0.5">
<path d="M78.7783 0.77124H1.09229V34.719H78.7783V0.77124Z" fill="url(#paint1_linear_55_1218)"/>
</g>
<path d="M77.7629 1.20743H2.10791V33.7035H77.7629V1.20743Z" fill="white"/>
<path d="M75.5891 3.23843H4.28174V31.6725H75.5891V3.23843Z" fill="#F9A826"/>
<path d="M63.4184 12.5777L65.5545 12.5895C65.5545 12.5895 61.5831 17.971 61.2588 18.4096C61.1244 18.5569 61.0081 18.7197 60.9124 18.8946C60.7369 19.3919 60.5979 19.9014 60.4966 20.4189L58.5421 20.4287C58.5421 20.4287 58.8463 19.3373 58.8337 18.756C58.8228 18.2482 58.5635 17.741 58.4181 17.2317C58.2711 16.7162 58.0715 15.7074 58.0715 15.7074H60.081L60.3581 16.816L63.4184 12.5777Z" fill="white"/>
<path d="M59.3735 13.7127C59.7677 13.9503 60.0096 15.2613 60.0096 15.2613C60.0096 15.2613 57.947 15.2917 56.8245 15.2917H55.8545L54.6765 20.4189H52.8751C52.8751 20.4189 53.9962 14.8469 54.2609 13.8367C54.3466 13.5096 54.8484 13.5658 55.6958 13.5658H57.0489C57.9227 13.5658 58.944 13.4542 59.3735 13.7127ZM50.987 16.2098C51.0086 15.958 50.9412 15.7067 50.7966 15.4995C50.5858 15.1746 50.3913 15.099 49.8369 15.0817C48.2718 15.0325 48.3022 16.1924 48.3022 16.1924L50.987 16.2098ZM52.6845 14.8814C52.9139 15.7089 52.4767 17.653 52.4767 17.653C52.4767 17.653 50.1936 17.6149 48.9431 17.653C48.5543 17.6648 48.0889 17.6107 47.9731 17.7916C47.8102 18.0451 48.0326 18.4353 48.2211 18.6001C48.438 18.7899 48.8605 18.8116 49.0124 18.8308C50.0274 18.9597 52.1517 18.8641 52.1517 18.8641L51.7837 20.4936C51.7837 20.4936 48.7818 20.6442 47.2802 20.2858C46.9913 20.2238 46.7266 20.0794 46.518 19.8701C46.4668 19.8148 46.4223 19.7393 46.3738 19.6741C46.2931 19.5627 46.2252 19.4425 46.1716 19.3158C45.8286 18.4019 46.2118 16.6511 46.5873 15.7129C46.6309 15.6043 46.6857 15.4663 46.7433 15.3492C46.8153 15.2031 46.8762 15.0381 46.9338 14.9508C46.9725 14.8905 47.0204 14.8517 47.0606 14.7949C47.1074 14.7288 47.1575 14.6653 47.2109 14.6044C47.3565 14.4482 47.5192 14.3087 47.696 14.1888C48.3215 13.7203 49.4537 13.3566 50.8138 13.4958C51.3259 13.5484 52.0993 13.7313 52.4767 14.258C52.5752 14.455 52.6451 14.6648 52.6845 14.8814ZM44.4221 13.5594L46.1689 13.5491C46.1689 13.5491 45.1954 18.167 44.6992 20.4189H42.6898C41.2855 20.4189 40.0349 20.5928 39.5027 19.5874C38.9866 18.6112 39.4792 17.0059 39.7106 15.9152C39.8741 15.1433 40.2186 13.5657 40.2186 13.5657L42.0284 13.5491C42.0284 13.5491 41.517 16.0053 41.3042 17.2317C41.228 17.671 41.0708 18.0847 41.235 18.4095C41.3908 18.7186 41.6091 18.7408 42.2742 18.756C42.4849 18.761 43.175 18.756 43.175 18.756L44.4221 13.5594ZM36.2463 16.8852C36.4292 16.2354 36.6959 15.5307 36.662 14.9452C36.634 14.6679 36.5368 14.4021 36.3795 14.1722C36.2221 13.9422 36.0096 13.7554 35.7613 13.6288C35.3558 13.4941 34.9209 13.4746 34.505 13.5724C34.089 13.6703 33.7084 13.8817 33.4055 14.1831C32.9143 14.7152 32.748 15.3368 32.5741 16.1925C32.4446 16.8278 32.3385 17.4984 32.5741 17.9938C32.9911 18.8697 34.2917 18.6784 35.692 18.6868C35.8998 18.1297 36.0717 17.5041 36.2463 16.8852ZM38.6714 14.3217C38.8708 15.7725 38.1053 17.3738 37.578 18.7664C38.1157 18.815 38.5869 18.7589 38.6208 18.799C38.6561 18.851 38.2604 20.4612 38.1225 20.4654C37.6958 20.4764 36.2817 20.4882 35.692 20.4882C33.7679 20.4882 31.9678 20.6136 31.0499 19.6568C30.6797 19.2242 30.4395 18.6958 30.3569 18.1324C30.2808 17.3411 30.3513 16.5425 30.5648 15.7768C30.7131 15.1476 30.9461 14.5415 31.2577 13.9752C32.0663 12.5639 33.4728 11.5163 35.8305 11.7581C36.3641 11.8251 36.8808 11.9894 37.3549 12.2431C37.3832 12.2597 37.4825 12.3387 37.5052 12.3526C38.0596 12.7053 38.5647 13.547 38.6714 14.3217ZM30.1581 13.5678C30.0417 14.0978 29.9253 14.6987 29.8026 15.2224H27.8626C28.0129 14.6418 28.128 14.0646 28.2784 13.5595C28.8991 13.5595 29.4762 13.5678 30.1581 13.5678ZM27.7933 15.7075H29.6641C29.4195 17.0613 28.9352 19.2452 28.5555 20.7654C28.3179 21.7167 28.1592 22.4109 27.5162 22.9132C27.4586 22.9583 27.4254 22.9368 27.3776 22.9825C27.2591 23.0955 26.711 23.2265 26.4077 23.2597C25.8556 23.2907 25.3021 23.2888 24.7502 23.2542C24.9089 22.6743 25.0884 21.9779 25.2298 21.4581C26.7077 21.637 26.7451 20.2401 27.0312 18.8946C27.1968 18.1172 27.6985 16.0192 27.7933 15.7075Z" fill="white"/>
<path d="M23.4279 19.2411L23.3879 19.345C22.7047 20.6753 21.4942 21.4914 19.7676 21.5274C19.0531 21.5371 18.3447 21.3955 17.6889 21.1118C16.6223 20.6204 15.7461 19.7929 15.1947 18.756C14.4803 17.3723 14.3515 15.4476 15.837 14.01C15.8599 14.01 15.6568 14.3217 15.6797 14.3217L15.6388 14.4547C14.5684 17.806 17.8663 20.6781 21.0723 20.3496C21.9549 20.2382 22.7795 19.8501 23.4279 19.2411Z" fill="#21609B"/>
<path d="M21.4881 17.8553C22.2946 17.8492 23.0663 17.5256 23.636 16.9546C23.1996 18.0625 21.9358 18.7747 20.241 18.5482C18.822 18.3583 17.4702 16.9304 17.331 15.4995C17.2292 14.4582 17.5921 13.8368 18.1901 13.0828C18.0335 13.3585 17.93 13.6612 17.8853 13.9752C17.6581 16.2277 19.6847 17.8434 21.4881 17.8553Z" fill="#21609B"/>
<path d="M23.555 15.0575C23.4297 15.3451 22.7078 15.8882 22.3889 15.9561C21.1265 16.225 20.3181 15.6264 19.8945 14.9452C19.8161 14.8006 19.7491 14.65 19.6944 14.4949C19.5302 13.9365 19.6056 13.0918 20.0956 12.6546C19.9569 13.0433 19.9253 13.4621 20.0041 13.8672C20.0784 14.1257 20.191 14.3716 20.3381 14.5967C20.5269 14.8857 20.7902 15.1184 21.1002 15.2703C21.2211 15.3447 21.3495 15.4062 21.4833 15.4538C21.8013 15.5474 22.4727 15.794 23.555 15.0575Z" fill="#21609B"/>
<path d="M139.709 0.953552H95.0266V45.6357H139.709V0.953552Z" fill="url(#paint2_linear_55_1218)"/>
<path d="M138.439 2.22293H96.2959V44.3663H138.439V2.22293Z" fill="white"/>
<path d="M136.408 4.25394H98.3269V42.3353H136.408V4.25394Z" fill="#F9A826"/>
<path d="M103.635 15.2473L117.389 10.347L131.513 15.1602L129.226 33.3568L117.389 39.9125L105.737 33.444L103.635 15.2473Z" fill="#E23237"/>
<path d="M131.512 15.1602L117.388 10.347V39.9125L129.225 33.3678L131.512 15.1602Z" fill="#B52E31"/>
<path d="M117.41 13.799L108.84 32.8669L112.042 32.8124L113.762 28.5109H121.451L123.334 32.8669L126.394 32.9213L117.41 13.799ZM117.432 19.9081L120.329 25.9627H114.884L117.432 19.9081Z" fill="white"/>
<path d="M162.811 54.0136H103.658V98.6957H162.811V54.0136Z" fill="url(#paint3_linear_55_1218)"/>
<path d="M161.542 55.283H104.928V97.4263H161.542V55.283Z" fill="white"/>
<path d="M159.511 57.314H106.958V95.3953H159.511V57.314Z" fill="#F9A826"/>
<path d="M117.39 76.2692C117.383 78.6784 119.728 80.9347 123.433 82.2141C122.68 85.9401 123.279 88.9472 125.305 90.1245C127.388 91.3347 130.5 90.5114 133.459 87.9411C136.328 90.4257 139.232 91.409 141.264 90.2411C143.353 89.0407 143.997 85.8338 143.248 81.9866C147.115 80.7217 149.282 78.8109 149.29 76.37C149.297 74.0168 146.947 71.9736 143.292 70.7025C144.124 66.7014 143.439 63.767 141.329 62.5411C139.294 61.3591 136.35 62.3744 133.423 64.9053C130.395 62.1996 127.485 61.3673 125.369 62.5833C123.329 63.7558 122.738 66.8138 123.469 70.6134C119.882 71.8515 117.398 73.9256 117.39 76.2692Z" fill="white"/>
<path d="M142.514 71.9508C142.212 71.8465 141.909 71.7497 141.602 71.6606C141.654 71.4543 141.702 71.2471 141.745 71.039C142.446 67.6901 142.003 64.9891 140.465 64.0955C138.99 63.2385 136.57 64.1196 134.122 66.2361C133.881 66.4452 133.645 66.6602 133.415 66.8812C133.261 66.7333 133.105 66.5883 132.947 66.4462C130.396 64.1665 127.834 63.2013 126.292 64.0877C124.812 64.9378 124.367 67.4744 124.979 70.6522C125.039 70.9669 125.108 71.2799 125.185 71.5912C124.822 71.6931 124.471 71.8018 124.135 71.9176C121.133 72.9538 119.212 74.5866 119.207 76.2865C119.201 78.0423 121.252 79.8099 124.373 80.8874C124.626 80.9744 124.881 81.055 125.138 81.1293C125.053 81.4641 124.978 81.801 124.912 82.14C124.31 85.2588 124.765 87.7381 126.235 88.5922C127.753 89.474 130.308 88.5806 132.801 86.4157C132.998 86.2445 133.196 86.0635 133.394 85.8727C133.642 86.1134 133.896 86.3471 134.157 86.5738C136.559 88.6533 138.934 89.4974 140.408 88.6504C141.93 87.7755 142.432 85.1152 141.801 81.8746C141.753 81.627 141.697 81.3744 141.634 81.1167C141.813 81.0644 141.989 81.0101 142.161 80.9539C145.412 79.8882 147.531 78.1553 147.537 76.376C147.542 74.67 145.57 73.0138 142.514 71.9508Z" fill="#53C1DE"/>
<path d="M141.784 79.804C141.629 79.8548 141.47 79.9038 141.308 79.9513C140.916 78.7226 140.44 77.522 139.885 76.3579C140.426 75.2128 140.891 74.0327 141.275 72.8256C141.564 72.9105 141.845 72.9998 142.116 73.094C144.735 74.0046 146.33 75.3441 146.326 76.3722C146.323 77.4674 144.591 78.8837 141.784 79.804ZM140.614 82.1059C140.893 83.5389 140.929 84.8337 140.738 85.8453C140.566 86.7543 140.225 87.3595 139.805 87.6011C138.91 88.115 137.003 87.4372 134.95 85.6589C134.714 85.455 134.478 85.2378 134.239 85.0072C135.101 84.0594 135.897 83.0545 136.624 81.9994C137.915 81.8945 139.198 81.701 140.462 81.4201C140.519 81.6535 140.57 81.8821 140.614 82.1059ZM128.83 87.4771C127.957 87.7824 127.262 87.789 126.843 87.5456C125.951 87.0274 125.586 85.0365 126.101 82.3695C126.162 82.0543 126.232 81.741 126.31 81.4295C127.568 81.7039 128.843 81.8925 130.126 81.9943C130.867 83.0503 131.676 84.0565 132.549 85.0065C132.372 85.176 132.192 85.3411 132.007 85.5018C130.905 86.4592 129.802 87.1373 128.83 87.4771ZM124.768 79.7435C123.388 79.2669 122.249 78.6497 121.469 77.9777C120.768 77.3737 120.415 76.7752 120.417 76.2903C120.42 75.2589 121.962 73.9479 124.53 73.0617C124.853 72.9509 125.178 72.8497 125.506 72.7579C125.883 73.9809 126.341 75.1776 126.876 76.3402C126.327 77.516 125.856 78.7267 125.466 79.9646C125.232 79.8966 124.999 79.8229 124.768 79.7435ZM126.167 70.4235C125.643 67.7007 126.003 65.6493 126.895 65.1371C127.844 64.5914 129.937 65.3804 132.14 67.3486C132.281 67.4745 132.422 67.6062 132.564 67.7424C131.691 68.6808 130.882 69.6759 130.141 70.7213C128.869 70.8313 127.606 71.0235 126.359 71.2968C126.288 71.0073 126.224 70.7163 126.167 70.4235ZM138.378 73.4795C138.102 73.0003 137.817 72.5271 137.521 72.0601C138.424 72.177 139.29 72.3314 140.102 72.5197C139.839 73.3468 139.534 74.16 139.188 74.9563C138.928 74.4587 138.658 73.9665 138.378 73.4795ZM133.41 68.6099C133.997 69.2541 134.551 69.9276 135.07 70.6278C133.955 70.5715 132.839 70.5677 131.722 70.6164C132.275 69.8924 132.841 69.2199 133.41 68.6099ZM128.379 73.4562C128.1 73.9374 127.831 74.4249 127.575 74.9187C127.225 74.0817 126.926 73.2589 126.682 72.4645C127.491 72.2861 128.354 72.141 129.252 72.0317C128.95 72.4996 128.659 72.9745 128.379 73.4562ZM129.25 80.6912C128.374 80.5933 127.503 80.4504 126.641 80.2632C126.894 79.4563 127.204 78.6177 127.567 77.7651C127.822 78.2607 128.088 78.7502 128.366 79.2335C128.649 79.7264 128.944 80.2123 129.25 80.6912ZM133.394 84.1383C132.822 83.5175 132.253 82.8311 131.696 82.093C132.238 82.116 132.791 82.1285 133.353 82.1303C133.931 82.1322 134.501 82.1213 135.064 82.0978C134.542 82.806 133.985 83.4871 133.394 84.1383ZM139.191 77.7583C139.548 78.5731 139.863 79.4059 140.134 80.2534C139.261 80.4467 138.379 80.5943 137.49 80.6955C137.791 80.2218 138.082 79.7422 138.364 79.2567C138.651 78.7634 138.926 78.2639 139.191 77.7583ZM137.318 78.6488C136.886 79.3929 136.431 80.1225 135.952 80.8374C135.111 80.8948 134.242 80.923 133.357 80.9202C132.476 80.9174 131.618 80.8872 130.793 80.8311C130.306 80.1152 129.847 79.3817 129.415 78.6305C128.986 77.8838 128.585 77.1217 128.213 76.3441C128.589 75.5691 128.993 74.8091 129.426 74.064V74.0642C129.858 73.3195 130.318 72.592 130.806 71.8817C131.649 71.8207 132.513 71.7901 133.386 71.7929C134.263 71.7956 135.128 71.832 135.97 71.8988C136.449 72.6105 136.901 73.3384 137.328 74.0826C137.758 74.8282 138.162 75.5872 138.543 76.3595C138.162 77.1369 137.753 77.9 137.318 78.6488ZM139.857 65.142C140.804 65.6922 141.166 67.8996 140.561 70.791C140.521 70.9794 140.478 71.167 140.432 71.3538C139.185 71.067 137.92 70.8631 136.646 70.7434C135.919 69.6922 135.122 68.6912 134.26 67.7471C134.473 67.5433 134.691 67.3448 134.914 67.1516C137.011 65.338 138.968 64.6255 139.857 65.142Z" fill="white"/>
<path d="M133.38 73.8015C133.88 73.8031 134.369 73.953 134.784 74.2323C135.199 74.5116 135.522 74.9077 135.712 75.3706C135.902 75.8334 135.951 76.3423 135.851 76.8327C135.752 77.3231 135.51 77.7731 135.155 78.1258C134.8 78.4785 134.349 78.718 133.858 78.8141C133.366 78.9101 132.858 78.8584 132.396 78.6655C131.935 78.4725 131.541 78.147 131.264 77.7301C130.987 77.3132 130.84 76.8236 130.842 76.3233C130.843 75.9911 130.91 75.6623 131.038 75.3558C131.166 75.0493 131.353 74.771 131.589 74.5368C131.824 74.3027 132.104 74.1172 132.411 73.991C132.718 73.8649 133.048 73.8005 133.38 73.8015Z" fill="#53C1DE"/>
<g opacity="0.7">
<g opacity="0.1">
<path d="M125.425 118.424V122.286V123.573V140.737V142.024V145.671H120.276H118.559V142.024V140.737V123.573V122.286V118.424H120.276H125.425Z" fill="url(#paint4_linear_55_1218)"/>
</g>
<g opacity="0.1">
<path d="M118.13 118.424V122.286V123.573V140.737V142.024V145.671H112.981H111.265V142.024V140.737V123.573V122.286V118.424H112.981H118.13Z" fill="url(#paint5_linear_55_1218)"/>
</g>
</g>
<path d="M26.7982 138.303H14.7131C13.0689 138.303 11.7361 139.636 11.7361 141.28V143.003C11.7361 144.647 13.0689 145.98 14.7131 145.98H26.7982C28.4424 145.98 29.7752 144.647 29.7752 143.003V141.28C29.7752 139.636 28.4424 138.303 26.7982 138.303Z" fill="#F9A826"/>
<g opacity="0.7">
<g opacity="0.1">
<path d="M45.5649 118.632V122.494V123.782V140.945V142.232V145.88H50.7142H52.4306V142.232V140.945V123.782V122.494V118.632H50.7142H45.5649Z" fill="url(#paint6_linear_55_1218)"/>
</g>
<g opacity="0.1">
<path d="M52.8599 118.632V122.494V123.782V140.945V142.232V145.88H58.0089H59.7253V142.232V140.945V123.782V122.494V118.632H58.0089H52.8599Z" fill="url(#paint7_linear_55_1218)"/>
</g>
<g opacity="0.1">
<path d="M73.4184 144.106L67.7236 122.754L67.3919 121.51L66.3966 117.779L59.7629 119.548L60.7582 123.28L61.0225 124.27L65.5131 141.107L65.8448 142.351L66.7847 145.875L73.4184 144.106Z" fill="url(#paint8_linear_55_1218)"/>
</g>
</g>
<path d="M52.7869 119.298H46.2678V145.171H52.7869V119.298Z" fill="#535461"/>
<path d="M52.7869 122.965H46.2678V124.188H52.7869V122.965Z" fill="#F9A826"/>
<path d="M52.7869 140.485H46.2678V141.707H52.7869V140.485Z" fill="#F9A826"/>
<path opacity="0.1" d="M52.787 119.298H51.1572V145.171H52.787V119.298Z" fill="black"/>
<path d="M59.7134 119.298H53.1943V145.171H59.7134V119.298Z" fill="#535461"/>
<path d="M59.7134 122.965H53.1943V124.188H59.7134V122.965Z" fill="#F9A826"/>
<path d="M59.7134 140.485H53.1943V141.707H59.7134V140.485Z" fill="#F9A826"/>
<path opacity="0.1" d="M59.7135 119.298H58.0837V145.171H59.7135V119.298Z" fill="black"/>
<path d="M66.0481 118.488L59.7493 120.168L66.4168 145.166L72.7156 143.486L66.0481 118.488Z" fill="#535461"/>
<path d="M66.9932 122.031L60.6943 123.711L61.0093 124.892L67.3082 123.212L66.9932 122.031Z" fill="#F9A826"/>
<path d="M71.5081 138.959L65.2092 140.639L65.5242 141.82L71.8231 140.14L71.5081 138.959Z" fill="#F9A826"/>
<path opacity="0.1" d="M66.0481 118.488L64.4734 118.908L71.1409 143.906L72.7156 143.486L66.0481 118.488Z" fill="black"/>
<path d="M118.032 145.171H124.551V119.298H118.032V145.171Z" fill="#535461"/>
<path d="M118.032 124.188H124.551V122.965H118.032V124.188Z" fill="#F9A826"/>
<path d="M118.032 141.707H124.551V140.485H118.032V141.707Z" fill="#F9A826"/>
<path opacity="0.1" d="M118.032 145.171H119.662V119.298H118.032V145.171Z" fill="black"/>
<path d="M111.105 145.171H117.625V119.298H111.105V145.171Z" fill="#535461"/>
<path d="M111.105 124.188H117.625V122.965H111.105V124.188Z" fill="#F9A826"/>
<path d="M111.105 141.707H117.625V140.485H111.105V141.707Z" fill="#F9A826"/>
<path opacity="0.1" d="M111.105 145.171H112.735V119.298H111.105V145.171Z" fill="black"/>
<path d="M133.727 132.816H157.362C157.362 132.816 162.025 138.765 154.789 147.608H136.138C136.138 147.608 129.385 141.498 133.727 132.816Z" fill="#F9A826"/>
<g opacity="0.1">
<path d="M157.362 132.816H133.726C133.673 132.924 133.622 133.031 133.571 133.138H156.558C156.558 133.138 161.106 138.943 154.243 147.608H154.789C162.024 138.765 157.362 132.816 157.362 132.816Z" fill="black"/>
</g>
<path d="M163.904 144.942H0V150.498H163.904V144.942Z" fill="#E0E0E0"/>
<path d="M156.959 150.498H6.94507V152.771H156.959V150.498Z" fill="#E0E0E0"/>
<path opacity="0.1" d="M156.959 150.498H6.94507V151.256H156.959V150.498Z" fill="black"/>
</g>
<defs>
<linearGradient id="paint0_linear_55_1218" x1="58.0875" y1="98.6957" x2="58.0875" y2="42.3353" gradientUnits="userSpaceOnUse">
<stop stop-color="#808080" stop-opacity="0.25"/>
<stop offset="0.53514" stop-color="#808080" stop-opacity="0.12"/>
<stop offset="1" stop-color="#808080" stop-opacity="0.1"/>
</linearGradient>
<linearGradient id="paint1_linear_55_1218" x1="39.9353" y1="34.719" x2="39.9353" y2="0.77124" gradientUnits="userSpaceOnUse">
<stop stop-color="#808080" stop-opacity="0.25"/>
<stop offset="0.53514" stop-color="#808080" stop-opacity="0.12"/>
<stop offset="1" stop-color="#808080" stop-opacity="0.1"/>
</linearGradient>
<linearGradient id="paint2_linear_55_1218" x1="117.368" y1="45.6357" x2="117.368" y2="0.953552" gradientUnits="userSpaceOnUse">
<stop stop-color="#808080" stop-opacity="0.25"/>
<stop offset="0.53514" stop-color="#808080" stop-opacity="0.12"/>
<stop offset="1" stop-color="#808080" stop-opacity="0.1"/>
</linearGradient>
<linearGradient id="paint3_linear_55_1218" x1="133.235" y1="98.6957" x2="133.235" y2="54.0136" gradientUnits="userSpaceOnUse">
<stop stop-color="#808080" stop-opacity="0.25"/>
<stop offset="0.53514" stop-color="#808080" stop-opacity="0.12"/>
<stop offset="1" stop-color="#808080" stop-opacity="0.1"/>
</linearGradient>
<linearGradient id="paint4_linear_55_1218" x1="121.992" y1="145.671" x2="121.992" y2="118.424" gradientUnits="userSpaceOnUse">
<stop stop-color="#808080" stop-opacity="0.25"/>
<stop offset="0.53514" stop-color="#808080" stop-opacity="0.12"/>
<stop offset="1" stop-color="#808080" stop-opacity="0.1"/>
</linearGradient>
<linearGradient id="paint5_linear_55_1218" x1="114.698" y1="145.671" x2="114.698" y2="118.424" gradientUnits="userSpaceOnUse">
<stop stop-color="#808080" stop-opacity="0.25"/>
<stop offset="0.53514" stop-color="#808080" stop-opacity="0.12"/>
<stop offset="1" stop-color="#808080" stop-opacity="0.1"/>
</linearGradient>
<linearGradient id="paint6_linear_55_1218" x1="48.9978" y1="145.88" x2="48.9978" y2="118.632" gradientUnits="userSpaceOnUse">
<stop stop-color="#808080" stop-opacity="0.25"/>
<stop offset="0.53514" stop-color="#808080" stop-opacity="0.12"/>
<stop offset="1" stop-color="#808080" stop-opacity="0.1"/>
</linearGradient>
<linearGradient id="paint7_linear_55_1218" x1="56.2925" y1="145.88" x2="56.2925" y2="118.632" gradientUnits="userSpaceOnUse">
<stop stop-color="#808080" stop-opacity="0.25"/>
<stop offset="0.53514" stop-color="#808080" stop-opacity="0.12"/>
<stop offset="1" stop-color="#808080" stop-opacity="0.1"/>
</linearGradient>
<linearGradient id="paint8_linear_55_1218" x1="66.5907" y1="145.875" x2="66.5907" y2="117.779" gradientUnits="userSpaceOnUse">
<stop stop-color="#808080" stop-opacity="0.25"/>
<stop offset="0.53514" stop-color="#808080" stop-opacity="0.12"/>
<stop offset="1" stop-color="#808080" stop-opacity="0.1"/>
</linearGradient>
<clipPath id="clip0_55_1218">
<rect width="163.904" height="152" fill="white" transform="translate(0 0.77124)"/>
</clipPath>
</defs>
</svg>
