<svg width="209" height="165" viewBox="0 0 209 165" fill="none" xmlns="http://www.w3.org/2000/svg">
<g clip-path="url(#clip0_55_1090)">
<path d="M194.641 145.087H142.023C140.109 145.084 138.273 144.153 136.92 142.498C135.566 140.842 134.805 138.598 134.802 136.257V34.765C134.805 32.4241 135.566 30.1799 136.92 28.5246C138.273 26.8693 140.109 25.9383 142.023 25.9356H194.641C196.555 25.9383 198.391 26.8693 199.744 28.5246C201.098 30.1799 201.86 32.4241 201.862 34.765V136.257C201.86 138.598 201.098 140.842 199.744 142.498C198.391 144.153 196.555 145.084 194.641 145.087Z" fill="#E6E6E6"/>
<path d="M195.514 31.2042H141.924C141.325 31.2051 140.75 31.4966 140.326 32.0148C139.903 32.5329 139.664 33.2354 139.664 33.9682V136.784C139.665 137.517 139.903 138.219 140.327 138.737C140.75 139.255 141.325 139.547 141.924 139.548H195.514C196.113 139.547 196.688 139.255 197.111 138.737C197.535 138.219 197.773 137.517 197.774 136.784V33.9682C197.773 33.2354 197.535 32.5329 197.111 32.0148C196.688 31.4966 196.113 31.2051 195.514 31.2042Z" fill="white"/>
<path d="M143.309 25.9356C143.309 25.7566 143.368 25.5849 143.471 25.4583C143.575 25.3316 143.715 25.2604 143.862 25.2602H147.618C147.764 25.2602 147.905 25.3313 148.008 25.458C148.112 25.5847 148.17 25.7565 148.17 25.9356C148.17 26.1148 148.112 26.2866 148.008 26.4133C147.905 26.5399 147.764 26.6111 147.618 26.6111H143.862C143.715 26.6109 143.575 26.5396 143.471 26.413C143.368 26.2864 143.309 26.1147 143.309 25.9356Z" fill="#E6E6E6"/>
<path d="M149.496 25.9356C149.496 25.7566 149.554 25.5849 149.658 25.4583C149.761 25.3316 149.902 25.2604 150.048 25.2602H153.804C153.951 25.2602 154.091 25.3313 154.195 25.458C154.299 25.5847 154.357 25.7565 154.357 25.9356C154.357 26.1148 154.299 26.2866 154.195 26.4133C154.091 26.5399 153.951 26.6111 153.804 26.6111H150.048C149.902 26.6109 149.761 26.5397 149.658 26.413C149.554 26.2864 149.496 26.1147 149.496 25.9356Z" fill="#E6E6E6"/>
<path d="M186.616 25.9356C186.616 25.7566 186.674 25.5849 186.778 25.4583C186.881 25.3316 187.022 25.2604 187.168 25.2602H190.925C191.071 25.2602 191.212 25.3313 191.315 25.458C191.419 25.5847 191.477 25.7565 191.477 25.9356C191.477 26.1148 191.419 26.2866 191.315 26.4133C191.212 26.5399 191.071 26.6111 190.925 26.6111H187.168C187.022 26.6109 186.881 26.5397 186.778 26.413C186.674 26.2864 186.616 26.1147 186.616 25.9356Z" fill="#E6E6E6"/>
<path d="M176.145 137.43C176.145 138.14 176.134 138.848 176.108 139.548H141.924C141.325 139.547 140.75 139.255 140.327 138.737C139.903 138.219 139.665 137.517 139.664 136.784V85.0329C149.843 87.044 159.105 93.4211 165.79 103.022C172.474 112.623 176.145 124.82 176.145 137.43Z" fill="#F2F2F2"/>
<path d="M174.984 57.6259H162.235C161.655 57.6259 161.185 58.201 161.185 58.9104V60.5132C161.185 61.2226 161.655 61.7977 162.235 61.7977H174.984C175.564 61.7977 176.035 61.2226 176.035 60.5132V58.9104C176.035 58.201 175.564 57.6259 174.984 57.6259Z" fill="#E2A27D"/>
<path d="M183.087 65.9695H154.133C153.553 65.9695 153.082 66.5445 153.082 67.2539V68.8568C153.082 69.5662 153.553 70.1412 154.133 70.1412H183.087C183.667 70.1412 184.137 69.5662 184.137 68.8568V67.2539C184.137 66.5445 183.667 65.9695 183.087 65.9695Z" fill="#E6E6E6"/>
<path d="M183.087 74.313H154.133C153.553 74.313 153.082 74.8881 153.082 75.5975V77.2004C153.082 77.9098 153.553 78.4848 154.133 78.4848H183.087C183.667 78.4848 184.137 77.9098 184.137 77.2004V75.5975C184.137 74.8881 183.667 74.313 183.087 74.313Z" fill="#E6E6E6"/>
<path d="M178.129 132.521C177.963 132.53 177.799 132.477 177.658 132.369C177.518 132.26 177.408 132.101 177.344 131.913C177.28 131.726 177.264 131.519 177.3 131.32C177.335 131.122 177.419 130.941 177.541 130.803L177.597 130.533C177.59 130.512 177.582 130.49 177.575 130.469C177.408 129.986 177.127 129.574 176.769 129.285C176.411 128.996 175.992 128.843 175.563 128.845C175.134 128.847 174.715 129.004 174.358 129.296C174.002 129.588 173.724 130.002 173.56 130.487C172.903 132.421 172.067 134.358 171.862 136.403C171.771 137.307 171.809 138.223 171.975 139.111C170.432 134.997 169.631 130.525 169.626 126C169.626 124.864 169.678 123.729 169.781 122.601C169.866 121.676 169.985 120.757 170.136 119.845C170.963 114.896 172.738 110.258 175.315 106.311C176.562 105.479 177.571 104.199 178.205 102.644C178.435 102.085 178.597 101.488 178.687 100.872C178.547 100.895 178.404 100.909 178.263 100.92C178.219 100.923 178.173 100.926 178.129 100.929L178.113 100.93C177.958 100.938 177.805 100.892 177.671 100.796C177.537 100.701 177.429 100.56 177.36 100.391C177.29 100.222 177.262 100.032 177.278 99.8435C177.295 99.6553 177.356 99.4769 177.453 99.3299C177.514 99.2385 177.575 99.1471 177.635 99.0558C177.728 98.9147 177.822 98.7765 177.915 98.6355C177.925 98.6221 177.935 98.608 177.945 98.5932C178.051 98.4324 178.157 98.2744 178.263 98.1136C178.069 97.746 177.809 97.4381 177.502 97.2138C176.438 96.4522 174.971 96.9797 174.203 98.156C173.432 99.3322 173.287 100.982 173.555 102.452C173.818 103.702 174.253 104.889 174.842 105.961C174.784 106.051 174.724 106.139 174.667 106.229C173.612 107.887 172.694 109.667 171.923 111.543C172.111 109.441 171.887 107.314 171.271 105.338C170.647 103.496 169.476 101.945 168.446 100.352C167.208 98.4399 164.67 99.2745 164.451 101.699C164.449 101.722 164.447 101.746 164.445 101.769C164.598 101.875 164.748 101.987 164.895 102.106C165.079 102.256 165.222 102.471 165.304 102.722C165.387 102.974 165.405 103.25 165.357 103.514C165.309 103.779 165.197 104.019 165.036 104.204C164.874 104.39 164.67 104.511 164.452 104.552L164.429 104.556C164.484 105.231 164.58 105.899 164.717 106.556C165.116 108.39 165.819 110.103 166.784 111.588C167.749 113.073 168.955 114.299 170.325 115.188C170.415 115.244 170.503 115.301 170.593 115.354C169.819 118.036 169.334 120.829 169.149 123.664C169.044 125.337 169.05 127.017 169.167 128.688L169.16 128.629C168.865 126.77 168.054 125.093 166.865 123.881C165.099 122.107 162.603 121.454 160.698 120.028C160.495 119.869 160.26 119.784 160.019 119.783C159.778 119.782 159.543 119.866 159.339 120.024C159.136 120.181 158.974 120.407 158.873 120.673C158.771 120.94 158.733 121.237 158.765 121.529C158.768 121.549 158.77 121.57 158.773 121.591C159.057 121.732 159.334 121.895 159.601 122.079C159.754 122.184 159.904 122.297 160.051 122.415C160.235 122.566 160.377 122.781 160.46 123.032C160.543 123.283 160.561 123.559 160.513 123.824C160.465 124.088 160.353 124.329 160.191 124.514C160.03 124.699 159.826 124.82 159.607 124.862L159.585 124.866C159.569 124.869 159.555 124.871 159.539 124.874C160.024 126.291 160.705 127.596 161.553 128.73C162.599 130.104 163.864 131.201 165.27 131.955C166.676 132.709 168.193 133.105 169.728 133.117H169.73C170.147 135.331 170.751 137.486 171.532 139.548H177.968C177.991 139.46 178.011 139.37 178.032 139.283C177.436 139.328 176.838 139.285 176.251 139.153C176.729 138.436 177.206 137.714 177.684 136.998C177.695 136.984 177.705 136.97 177.714 136.956C177.956 136.589 178.201 136.225 178.443 135.858L178.443 135.858C178.456 134.734 178.35 133.612 178.129 132.521ZM170.759 114.793L170.762 114.787L170.759 114.798V114.793ZM169.333 130.507L169.278 130.355C169.28 130.245 169.28 130.135 169.278 130.022C169.278 129.991 169.273 129.96 169.273 129.929C169.294 130.124 169.313 130.318 169.336 130.513L169.333 130.507Z" fill="#CCCCCC"/>
<path d="M192.835 40.2814H144.602C144.498 40.2786 144.399 40.2259 144.326 40.1347C144.253 40.0435 144.212 39.9209 144.212 39.7933C144.212 39.6657 144.253 39.5431 144.326 39.4519C144.399 39.3607 144.498 39.308 144.602 39.3052H192.835C192.939 39.308 193.038 39.3607 193.111 39.4519C193.184 39.5431 193.225 39.6657 193.225 39.7933C193.225 39.9209 193.184 40.0435 193.111 40.1347C193.038 40.2259 192.939 40.2786 192.835 40.2814Z" fill="#CACACA"/>
<path d="M147.176 37.8937C147.824 37.8937 148.349 37.2371 148.349 36.4271C148.349 35.6171 147.824 34.9605 147.176 34.9605C146.528 34.9605 146.003 35.6171 146.003 36.4271C146.003 37.2371 146.528 37.8937 147.176 37.8937Z" fill="#3F3D56"/>
<path d="M151.229 37.8937C151.877 37.8937 152.402 37.2371 152.402 36.4271C152.402 35.6171 151.877 34.9605 151.229 34.9605C150.581 34.9605 150.056 35.6171 150.056 36.4271C150.056 37.2371 150.581 37.8937 151.229 37.8937Z" fill="#3F3D56"/>
<path d="M155.282 37.8937C155.93 37.8937 156.455 37.2371 156.455 36.4271C156.455 35.6171 155.93 34.9605 155.282 34.9605C154.634 34.9605 154.109 35.6171 154.109 36.4271C154.109 37.2371 154.634 37.8937 155.282 37.8937Z" fill="#3F3D56"/>
<path d="M190.95 35.5271H188.324C188.272 35.5284 188.223 35.5546 188.186 35.6C188.15 35.6455 188.129 35.7066 188.129 35.7702C188.129 35.8339 188.15 35.895 188.186 35.9405C188.223 35.9859 188.272 36.0121 188.324 36.0133H190.95C191.002 36.0121 191.051 35.9859 191.088 35.9405C191.124 35.895 191.145 35.8339 191.145 35.7702C191.145 35.7066 191.124 35.6455 191.088 35.6C191.051 35.5546 191.002 35.5284 190.95 35.5271Z" fill="#3F3D56"/>
<path d="M190.95 36.4396H188.324C188.272 36.4409 188.223 36.4671 188.186 36.5125C188.15 36.558 188.129 36.6191 188.129 36.6827C188.129 36.7464 188.15 36.8075 188.186 36.8529C188.223 36.8984 188.272 36.9246 188.324 36.9258H190.95C191.002 36.9246 191.051 36.8984 191.088 36.8529C191.124 36.8075 191.145 36.7464 191.145 36.6827C191.145 36.6191 191.124 36.558 191.088 36.5125C191.051 36.4671 191.002 36.4409 190.95 36.4396Z" fill="#3F3D56"/>
<path d="M190.95 37.3509H188.324C188.272 37.3522 188.223 37.3783 188.186 37.4238C188.15 37.4692 188.129 37.5304 188.129 37.594C188.129 37.6577 188.15 37.7188 188.186 37.7642C188.223 37.8097 188.272 37.8358 188.324 37.8371H190.95C191.002 37.8358 191.051 37.8097 191.088 37.7642C191.124 37.7188 191.145 37.6577 191.145 37.594C191.145 37.5304 191.124 37.4692 191.088 37.4238C191.051 37.3783 191.002 37.3522 190.95 37.3509Z" fill="#3F3D56"/>
<path d="M112.693 85.0715H84.729C84.3334 85.0722 83.9543 85.265 83.6749 85.6075C83.3955 85.95 83.2388 86.4142 83.2393 86.8979V140.915H114.187V86.8979C114.187 86.658 114.148 86.4205 114.073 86.1988C113.998 85.9772 113.888 85.7758 113.749 85.6062C113.611 85.4365 113.446 85.302 113.265 85.2103C113.083 85.1185 112.889 85.0714 112.693 85.0715ZM98.8051 115.764C97.9306 115.759 97.093 115.332 96.4746 114.575C95.8563 113.819 95.5071 112.795 95.503 111.726V105.495C95.5037 104.425 95.852 103.399 96.4711 102.642C97.0903 101.886 97.9298 101.461 98.805 101.461C99.6803 101.461 100.52 101.886 101.139 102.642C101.758 103.399 102.106 104.425 102.107 105.495V111.726C102.103 112.795 101.754 113.819 101.135 114.575C100.517 115.332 99.6796 115.759 98.8051 115.764Z" fill="#E6E6E6"/>
<path d="M83.1431 139.188V144.399C83.1435 144.669 83.2314 144.928 83.3876 145.119C83.5438 145.31 83.7554 145.417 83.9763 145.418H113.449C113.67 145.417 113.881 145.309 114.037 145.118C114.193 144.927 114.281 144.669 114.282 144.399V139.188L83.1431 139.188Z" fill="#CCCCCC"/>
<path d="M158.999 0.77124H39.4638C38.4368 0.773238 37.4523 1.27299 36.7261 2.16099C35.9999 3.04898 35.5912 4.25279 35.5896 5.50861V104.144C35.5906 105.4 35.9991 106.604 36.7254 107.492C37.4517 108.38 38.4366 108.88 39.4638 108.881H158.999C160.026 108.88 161.011 108.38 161.737 107.492C162.463 106.604 162.872 105.4 162.873 104.144V5.50861C162.871 4.25279 162.462 3.04898 161.736 2.16099C161.01 1.27299 160.026 0.773237 158.999 0.77124Z" fill="#E6E6E6"/>
<path d="M158.001 4.19298H40.4625C39.9126 4.19444 39.3857 4.46256 38.9973 4.93851C38.6088 5.41447 38.3907 6.05939 38.3906 6.7318V102.922C38.3916 103.594 38.6102 104.238 38.9985 104.712C39.3869 105.187 39.9133 105.455 40.4625 105.456H158.001C158.55 105.455 159.077 105.187 159.465 104.712C159.853 104.238 160.072 103.594 160.073 102.922V6.7318C160.073 6.05939 159.855 5.41447 159.466 4.93851C159.078 4.46256 158.551 4.19444 158.001 4.19298Z" fill="white"/>
<path d="M160.073 6.7318V102.922C160.072 103.594 159.853 104.238 159.465 104.712C159.076 105.187 158.55 105.455 158.001 105.456H116.554C111.969 100.256 108.207 94.0673 105.458 87.1995C105.277 86.757 105.105 86.3093 104.941 85.8563C102.436 79.209 100.919 72.0693 100.461 64.7715C100.431 64.3238 100.405 63.8761 100.388 63.4231C100.332 62.2643 100.306 61.0897 100.306 59.9099C100.298 52.0629 101.51 44.2856 103.877 36.9921C104.019 36.5391 104.17 36.0914 104.325 35.6437C109.089 21.9556 117.698 10.8009 128.598 4.19298H158.001C158.551 4.19444 159.078 4.46256 159.466 4.93851C159.854 5.41447 160.073 6.05939 160.073 6.7318Z" fill="#E2A27D"/>
<path d="M152.092 17.4459H42.1122C41.9978 17.4429 41.889 17.3852 41.8089 17.2853C41.7289 17.1853 41.6841 17.051 41.6841 16.9111C41.6841 16.7712 41.7289 16.6368 41.8089 16.5369C41.889 16.4369 41.9978 16.3792 42.1122 16.3763H152.092C152.207 16.3792 152.316 16.4369 152.396 16.5369C152.476 16.6368 152.521 16.7712 152.521 16.9111C152.521 17.051 152.476 17.1853 152.396 17.2853C152.316 17.3852 152.207 17.4429 152.092 17.4459Z" fill="#CACACA"/>
<path d="M49.5985 13.6456C51.0141 13.6456 52.1617 12.2111 52.1617 10.4415C52.1617 8.67197 51.0141 7.23746 49.5985 7.23746C48.183 7.23746 47.0354 8.67197 47.0354 10.4415C47.0354 12.2111 48.183 13.6456 49.5985 13.6456Z" fill="#3F3D56"/>
<path d="M58.453 13.6456C59.8686 13.6456 61.0162 12.2111 61.0162 10.4415C61.0162 8.67197 59.8686 7.23746 58.453 7.23746C57.0374 7.23746 55.8899 8.67197 55.8899 10.4415C55.8899 12.2111 57.0374 13.6456 58.453 13.6456Z" fill="#3F3D56"/>
<path d="M67.3075 13.6456C68.7231 13.6456 69.8707 12.2111 69.8707 10.4415C69.8707 8.67197 68.7231 7.23746 67.3075 7.23746C65.8919 7.23746 64.7444 8.67197 64.7444 10.4415C64.7444 12.2111 65.8919 13.6456 67.3075 13.6456Z" fill="#3F3D56"/>
<path d="M146.761 8.03162H140.471C140.347 8.03463 140.228 8.09731 140.141 8.2062C140.053 8.31508 140.004 8.46149 140.004 8.61398C140.004 8.76646 140.053 8.91287 140.141 9.02176C140.228 9.13064 140.347 9.19332 140.471 9.19634H146.761C146.886 9.19332 147.005 9.13064 147.092 9.02176C147.179 8.91287 147.228 8.76646 147.228 8.61398C147.228 8.46149 147.179 8.31508 147.092 8.2062C147.005 8.09731 146.886 8.03463 146.761 8.03162Z" fill="#3F3D56"/>
<path d="M146.761 10.2176H140.471C140.347 10.2206 140.228 10.2833 140.141 10.3922C140.053 10.5011 140.004 10.6475 140.004 10.8C140.004 10.9525 140.053 11.0989 140.141 11.2078C140.228 11.3166 140.347 11.3793 140.471 11.3823H146.761C146.886 11.3793 147.005 11.3166 147.092 11.2078C147.179 11.0989 147.228 10.9525 147.228 10.8C147.228 10.6475 147.179 10.5011 147.092 10.3922C147.005 10.2833 146.886 10.2206 146.761 10.2176Z" fill="#3F3D56"/>
<path d="M146.761 12.4008H140.471C140.347 12.4038 140.228 12.4665 140.141 12.5753C140.053 12.6842 140.004 12.8306 140.004 12.9831C140.004 13.1356 140.053 13.282 140.141 13.3909C140.228 13.4998 140.347 13.5625 140.471 13.5655H146.761C146.886 13.5625 147.005 13.4998 147.092 13.3909C147.179 13.282 147.228 13.1356 147.228 12.9831C147.228 12.8306 147.179 12.6842 147.092 12.5753C147.005 12.4665 146.886 12.4038 146.761 12.4008Z" fill="#3F3D56"/>
<path d="M75.7866 48.69H60.4069C59.8267 48.69 59.3564 49.2651 59.3564 49.9745V51.9765C59.3564 52.6859 59.8267 53.2609 60.4069 53.2609H75.7866C76.3668 53.2609 76.8371 52.6859 76.8371 51.9765V49.9745C76.8371 49.2651 76.3668 48.69 75.7866 48.69Z" fill="#E2A27D"/>
<path d="M84.6645 57.8318H51.5292C50.9491 57.8318 50.4788 58.4069 50.4788 59.1163V61.1182C50.4788 61.8276 50.9491 62.4027 51.5292 62.4027H84.6645C85.2447 62.4027 85.715 61.8276 85.715 61.1182V59.1163C85.715 58.4069 85.2447 57.8318 84.6645 57.8318Z" fill="#E6E6E6"/>
<path d="M84.6645 66.9736H51.5292C50.9491 66.9736 50.4788 67.5487 50.4788 68.2581V70.26C50.4788 70.9694 50.9491 71.5445 51.5292 71.5445H84.6645C85.2447 71.5445 85.715 70.9694 85.715 70.26V68.2581C85.715 67.5487 85.2447 66.9736 84.6645 66.9736Z" fill="#E6E6E6"/>
<path d="M53.3548 99.941C53.3574 101.824 53.0831 103.692 52.545 105.456H40.4625C39.9133 105.455 39.3869 105.187 38.9985 104.712C38.6102 104.238 38.3916 103.594 38.3906 102.922V84.3394C39.0657 84.2059 39.7485 84.1389 40.4324 84.1392C42.1294 84.1391 43.8098 84.5477 45.3777 85.3418C46.9456 86.1359 48.3702 87.2998 49.5702 88.7672C50.7702 90.2345 51.722 91.9765 52.3714 93.8937C53.0208 95.811 53.3549 97.8658 53.3548 99.941Z" fill="#E2A27D"/>
<path opacity="0.2" d="M160.18 36.9921V35.6437H141.697V20.0158H140.599V35.6437H119.414V20.0158H118.316V35.6437H104.325C104.17 36.0914 104.019 36.5391 103.877 36.9921H118.316V63.4231H100.388C100.405 63.8761 100.431 64.3239 100.461 64.7716H118.316V85.8564H104.941C105.105 86.3093 105.277 86.7571 105.458 87.1995H118.316V104.924H119.414V87.1995H140.599V104.924H141.697V87.1995H160.18V85.8563H141.697C141.697 83.0875 142.143 80.3457 143.01 77.7875C143.876 75.2294 145.146 72.905 146.747 70.9471C148.348 68.9892 150.249 67.4361 152.341 66.3765C154.433 65.3169 156.675 64.7715 158.94 64.7715H160.18V63.4231H141.697V36.9921H160.18ZM140.599 85.8563H119.414V64.7715H140.599V85.8563ZM140.599 63.4231H119.414V62.8964C119.414 56.0262 121.646 49.4373 125.619 44.5793C129.592 39.7213 134.98 36.9921 140.599 36.9921L140.599 63.4231Z" fill="black"/>
<path d="M145.298 95.4763C145.063 95.4896 144.829 95.4139 144.63 95.2595C144.43 95.1051 144.275 94.8795 144.184 94.6133C144.093 94.347 144.071 94.0529 144.121 93.7709C144.171 93.4889 144.291 93.2326 144.464 93.0367C144.493 92.8956 144.514 92.7943 144.543 92.6533C144.533 92.6226 144.522 92.5919 144.512 92.5612C143.452 89.4713 139.86 89.4926 138.81 92.5871C137.877 95.3337 136.69 98.0849 136.397 100.989C136.269 102.273 136.323 103.574 136.558 104.835C134.368 98.9921 133.23 92.6418 133.223 86.2145C133.222 84.6016 133.296 82.99 133.442 81.3871C133.564 80.0731 133.732 78.7685 133.947 77.4731C135.121 70.445 137.642 63.8576 141.302 58.2519C143.073 57.0699 144.506 55.2523 145.407 53.044C145.733 52.2502 145.964 51.4028 146.092 50.5282C145.892 50.5602 145.689 50.5802 145.489 50.5962C145.426 50.6002 145.361 50.6042 145.299 50.6083L145.275 50.6095C145.056 50.6216 144.838 50.5558 144.648 50.42C144.458 50.2842 144.305 50.0842 144.206 49.8441C144.107 49.6041 144.067 49.3342 144.09 49.0669C144.114 48.7996 144.2 48.5463 144.339 48.3376C144.425 48.2077 144.511 48.0779 144.598 47.9482C144.729 47.7479 144.863 47.5516 144.994 47.3513C145.009 47.3323 145.023 47.3122 145.037 47.2912C145.187 47.0628 145.338 46.8385 145.489 46.6102C145.214 46.0881 144.844 45.6507 144.408 45.3322C142.897 44.2506 140.814 44.9997 139.723 46.6703C138.628 48.3408 138.422 50.6844 138.802 52.7716C139.126 54.5583 139.834 56.1968 140.63 57.7551C140.548 57.8833 140.463 58.0075 140.381 58.1357C138.884 60.4899 137.579 63.0178 136.485 65.6833C136.751 62.6972 136.434 59.6766 135.559 56.8698C134.672 54.254 133.01 52.051 131.546 49.7897C129.788 47.0735 126.183 48.2589 125.873 51.7021C125.87 51.7354 125.867 51.7688 125.865 51.8021C126.082 51.9521 126.295 52.1112 126.503 52.2796C126.765 52.4933 126.967 52.7987 127.085 53.1556C127.202 53.5126 127.228 53.9045 127.16 54.2801C127.092 54.6557 126.933 54.9974 126.703 55.2604C126.474 55.5234 126.184 55.6955 125.874 55.7541L125.842 55.7601C125.919 56.7182 126.056 57.6677 126.251 58.6004C126.817 61.2043 127.816 63.6372 129.187 65.7467C130.557 67.8561 132.269 69.5967 134.215 70.8591C134.343 70.9392 134.468 71.0193 134.596 71.0955C133.496 74.9041 132.807 78.8714 132.545 82.8974C132.396 85.2727 132.405 87.6587 132.571 90.0323L132.561 89.9481C132.142 87.3088 130.99 84.9273 129.301 83.2059C126.793 80.686 123.249 79.7581 120.542 77.7327C119.24 76.7576 117.57 78.0176 117.798 79.8645C117.801 79.894 117.805 79.9235 117.809 79.9529C118.212 80.1539 118.605 80.3853 118.985 80.646C119.202 80.796 119.415 80.9552 119.623 81.1235C119.885 81.3372 120.087 81.6426 120.205 81.9995C120.322 82.3565 120.348 82.7484 120.28 83.124C120.212 83.4996 120.053 83.8413 119.823 84.1043C119.594 84.3673 119.305 84.5394 118.994 84.598L118.962 84.604C118.939 84.608 118.919 84.612 118.896 84.616C119.586 86.6286 120.553 88.4811 121.756 90.0924C123.243 92.0427 125.039 93.6013 127.036 94.6725C129.032 95.7437 131.187 96.3049 133.367 96.3218H133.37C133.962 99.4666 134.82 102.528 135.929 105.456H145.069C145.102 105.332 145.132 105.203 145.161 105.079C144.315 105.144 143.466 105.082 142.632 104.895C143.31 103.877 143.988 102.852 144.666 101.834C144.681 101.815 144.696 101.795 144.709 101.774C145.053 101.253 145.4 100.737 145.744 100.216L145.744 100.215C145.763 98.6188 145.613 97.0261 145.299 95.4766L145.298 95.4763ZM134.831 70.2982L134.836 70.2903L134.831 70.3062V70.2982ZM132.807 92.6162L132.728 92.3999C132.731 92.2436 132.731 92.0874 132.728 91.9272C132.728 91.8831 132.722 91.839 132.722 91.7949C132.751 92.0714 132.777 92.3478 132.81 92.6242L132.807 92.6162Z" fill="#2F2E41"/>
<path d="M63.9062 69.3356V54.314C63.9062 52.0082 63.1571 49.7968 61.8237 48.1663C60.4904 46.5359 58.6819 45.6199 56.7962 45.6199H30.7698C28.8842 45.6199 27.0757 46.5359 25.7424 48.1663C24.409 49.7968 23.6599 52.0082 23.6599 54.314V136.724C23.6599 139.03 24.409 141.241 25.7424 142.872C27.0757 144.502 28.8842 145.418 30.7698 145.418H56.7962C57.7299 145.418 58.6545 145.193 59.5171 144.756C60.3797 144.319 61.1635 143.679 61.8237 142.872C62.4839 142.064 63.0076 141.106 63.365 140.051C63.7223 138.996 63.9062 137.866 63.9062 136.724V80.0283C64.0251 80.0283 64.1392 79.9705 64.2233 79.8677C64.3073 79.7649 64.3546 79.6254 64.3546 79.48V69.884C64.3546 69.7386 64.3074 69.5991 64.2233 69.4963C64.1392 69.3934 64.0251 69.3356 63.9062 69.3356Z" fill="#E6E6E6"/>
<path d="M62.393 54.3737V136.665C62.3932 138.374 61.8418 140.014 60.8586 141.229C59.8754 142.444 58.5398 143.136 57.1421 143.154C57.1228 143.156 57.1034 143.157 57.084 143.156H30.9309C29.5229 143.156 28.1726 142.472 27.177 141.255C26.1813 140.037 25.622 138.386 25.6218 136.665V54.3737C25.622 52.6519 26.1813 51.0008 27.177 49.7833C28.1726 48.5659 29.5229 47.8819 30.9309 47.8817H34.1047C33.9487 48.3502 33.8892 48.8585 33.9315 49.3617C33.9739 49.8649 34.1167 50.3477 34.3474 50.7676C34.5782 51.1875 34.8898 51.5316 35.2548 51.7696C35.6199 52.0077 36.0272 52.1324 36.4409 52.1327H51.3512C51.7646 52.1313 52.1713 52.0059 52.5358 51.7675C52.9003 51.5291 53.2113 51.185 53.4417 50.7654C53.6721 50.3457 53.8148 49.8634 53.8572 49.3606C53.8996 48.8578 53.8405 48.35 53.685 47.8817H57.084C58.492 47.8819 59.8423 48.5659 60.8379 49.7833C61.8335 51.0008 62.3929 52.6519 62.393 54.3737Z" fill="white"/>
<path d="M57.2074 140.617C57.2074 141.469 57.1856 142.315 57.1421 143.154C57.1228 143.156 57.1034 143.157 57.084 143.156H30.9309C29.5229 143.156 28.1726 142.472 27.177 141.255C26.1813 140.037 25.622 138.386 25.6218 136.665V99.9921C34.1429 100.517 42.1731 105.027 48.0519 112.588C53.9306 120.149 57.2084 130.184 57.2074 140.617Z" fill="#F2F2F2"/>
<path d="M23.804 77.7393C23.6435 77.7391 23.4897 77.661 23.3762 77.5223C23.2627 77.3836 23.1989 77.1954 23.1987 76.9992V71.9667C23.1987 71.7704 23.2625 71.5822 23.376 71.4434C23.4895 71.3046 23.6434 71.2266 23.804 71.2266C23.9645 71.2266 24.1184 71.3046 24.2319 71.4434C24.3454 71.5822 24.4092 71.7704 24.4092 71.9667V76.9992C24.409 77.1954 24.3452 77.3836 24.2317 77.5223C24.1182 77.661 23.9644 77.7391 23.804 77.7393Z" fill="#E6E6E6"/>
<path d="M47.2187 73.721H40.7963C40.2161 73.721 39.7458 74.2961 39.7458 75.0055V77.0074C39.7458 77.7168 40.2161 78.2919 40.7963 78.2919H47.2187C47.7988 78.2919 48.2691 77.7168 48.2691 77.0074V75.0055C48.2691 74.2961 47.7988 73.721 47.2187 73.721Z" fill="#E2A27D"/>
<path d="M56.0966 82.8628H31.9186C31.3385 82.8628 30.8682 83.4379 30.8682 84.1473V86.1492C30.8682 86.8586 31.3385 87.4337 31.9186 87.4337H56.0966C56.6767 87.4337 57.147 86.8586 57.147 86.1492V84.1473C57.147 83.4379 56.6767 82.8628 56.0966 82.8628Z" fill="#E6E6E6"/>
<path d="M56.0966 92.0046H31.9186C31.3385 92.0046 30.8682 92.5797 30.8682 93.2891V95.291C30.8682 96.0004 31.3385 96.5755 31.9186 96.5755H56.0966C56.6767 96.5755 57.147 96.0004 57.147 95.291V93.2891C57.147 92.5797 56.6767 92.0046 56.0966 92.0046Z" fill="#E6E6E6"/>
<path d="M50.279 138.473C50.1683 138.48 50.0588 138.444 49.9652 138.372C49.8716 138.299 49.7985 138.193 49.7558 138.068C49.7131 137.944 49.7028 137.806 49.7263 137.673C49.7499 137.541 49.8062 137.421 49.8875 137.329L49.9245 137.149C49.9196 137.134 49.9147 137.12 49.9098 137.106C49.7983 136.784 49.6116 136.509 49.3729 136.317C49.1343 136.124 48.8545 136.022 48.5686 136.023C48.2827 136.025 48.0035 136.129 47.7661 136.324C47.5286 136.519 47.3435 136.795 47.234 137.118C46.7964 138.407 46.2392 139.698 46.102 141.06C46.0416 141.663 46.0671 142.273 46.1774 142.865C45.1495 140.123 44.6157 137.143 44.6123 134.127C44.6121 133.37 44.6465 132.614 44.7153 131.862C44.7722 131.245 44.8511 130.633 44.9521 130.025C45.503 126.727 46.6858 123.636 48.4035 121.005C49.2348 120.451 49.9071 119.598 50.3298 118.561C50.483 118.189 50.5912 117.791 50.6511 117.381C50.5574 117.396 50.462 117.405 50.3683 117.413C50.3391 117.415 50.3083 117.417 50.2791 117.418L50.2681 117.419C50.165 117.425 50.0628 117.394 49.9738 117.33C49.8847 117.266 49.8126 117.172 49.7662 117.06C49.7197 116.947 49.7009 116.82 49.712 116.695C49.723 116.57 49.7635 116.451 49.8285 116.353C49.869 116.292 49.9095 116.231 49.9501 116.17C50.0116 116.076 50.0746 115.984 50.1361 115.89C50.1432 115.881 50.1499 115.872 50.1561 115.862C50.2268 115.755 50.2975 115.649 50.3683 115.542C50.2392 115.297 50.0655 115.092 49.8609 114.943C49.1522 114.435 48.1744 114.786 47.6625 115.57C47.149 116.354 47.0521 117.454 47.2305 118.434C47.4058 119.267 47.6959 120.058 48.0883 120.772C48.0499 120.832 48.0099 120.891 47.9715 120.951C47.2689 122.056 46.6565 123.242 46.1432 124.493C46.268 123.091 46.119 121.674 45.7085 120.357C45.2923 119.129 44.5124 118.095 43.8256 117.034C43.6439 116.749 43.3972 116.536 43.1166 116.423C42.8361 116.309 42.5343 116.3 42.2494 116.396C41.9645 116.492 41.7092 116.689 41.516 116.962C41.3227 117.236 41.2 117.573 41.1635 117.932C41.1621 117.947 41.1607 117.963 41.1593 117.979C41.2614 118.049 41.3612 118.124 41.4589 118.203C41.5817 118.303 41.6768 118.446 41.7318 118.614C41.7868 118.781 41.7992 118.965 41.7672 119.141C41.7353 119.318 41.6606 119.478 41.5529 119.601C41.4451 119.725 41.3094 119.806 41.1635 119.833L41.1486 119.836C41.1849 120.286 41.2492 120.731 41.3408 121.169C41.6061 122.391 42.0751 123.532 42.7182 124.522C43.3613 125.512 44.1648 126.329 45.0781 126.921C45.1381 126.959 45.1965 126.997 45.2565 127.032C44.7407 128.82 44.4172 130.681 44.2941 132.571C44.2244 133.685 44.2285 134.805 44.3064 135.919L44.3018 135.879C44.105 134.641 43.5646 133.523 42.7721 132.715C41.5949 131.533 39.9317 131.097 38.6617 130.147C38.5268 130.041 38.3698 129.984 38.2095 129.984C38.0491 129.983 37.8919 130.039 37.7565 130.144C37.6211 130.249 37.5132 130.4 37.4453 130.577C37.3775 130.755 37.3527 130.953 37.3737 131.147L37.3789 131.189C37.5683 131.283 37.7526 131.392 37.9308 131.514C38.0329 131.584 38.1327 131.659 38.2304 131.738C38.3532 131.838 38.4483 131.982 38.5033 132.149C38.5583 132.317 38.5707 132.501 38.5387 132.677C38.5068 132.853 38.4321 133.014 38.3244 133.137C38.2166 133.26 38.0809 133.341 37.935 133.369L37.9201 133.371C37.9093 133.373 37.9001 133.375 37.8893 133.377C38.2128 134.322 38.6668 135.191 39.2315 135.947C39.929 136.862 40.7721 137.594 41.7089 138.096C42.6458 138.599 43.6568 138.862 44.6799 138.87H44.6815C44.9592 140.346 45.3616 141.782 45.8822 143.156H50.1715C50.1868 143.098 50.2007 143.038 50.2145 142.98C49.8175 143.01 49.4189 142.981 49.0276 142.893C49.3459 142.416 49.6641 141.935 49.9824 141.457C49.9895 141.448 49.9961 141.439 50.0024 141.429C50.1638 141.184 50.3267 140.942 50.4882 140.698L50.4883 140.697C50.4969 139.948 50.4264 139.201 50.279 138.473ZM45.3672 126.658L45.3694 126.655L45.3672 126.662V126.658ZM44.4171 137.131L44.3802 137.03C44.3817 136.956 44.3817 136.883 44.3802 136.808C44.3802 136.787 44.3771 136.767 44.3771 136.746C44.3909 136.876 44.4032 137.005 44.4186 137.135L44.4171 137.131Z" fill="#CCCCCC"/>
<path d="M23.6829 67.9703C23.5224 67.97 23.3686 67.892 23.2551 67.7533C23.1417 67.6145 23.0778 67.4264 23.0776 67.2302V62.1977C23.0776 62.0014 23.1414 61.8131 23.2549 61.6743C23.3684 61.5356 23.5223 61.4576 23.6829 61.4576C23.8434 61.4576 23.9973 61.5356 24.1108 61.6743C24.2243 61.8131 24.2881 62.0014 24.2881 62.1977V67.2302C24.2879 67.4264 24.2241 67.6145 24.1106 67.7533C23.9972 67.892 23.8433 67.97 23.6829 67.9703Z" fill="#E6E6E6"/>
<path d="M39.7817 48.7282C39.7819 48.532 39.8458 48.3439 39.9592 48.2052C40.0727 48.0664 40.2265 47.9884 40.387 47.9881H44.5025C44.663 47.9881 44.817 48.0661 44.9305 48.2049C45.044 48.3437 45.1077 48.5319 45.1077 48.7282C45.1077 48.9245 45.044 49.1127 44.9305 49.2515C44.817 49.3903 44.663 49.4683 44.5025 49.4683H40.387C40.2265 49.4681 40.0727 49.39 39.9592 49.2513C39.8458 49.1125 39.7819 48.9244 39.7817 48.7282Z" fill="white"/>
<path d="M23.804 86.3242C23.6435 86.324 23.4897 86.2459 23.3762 86.1072C23.2627 85.9685 23.1989 85.7803 23.1987 85.5841V80.5516C23.1987 80.3553 23.2625 80.1671 23.376 80.0283C23.4895 79.8895 23.6434 79.8115 23.804 79.8115C23.9645 79.8115 24.1184 79.8895 24.2319 80.0283C24.3454 80.1671 24.4092 80.3553 24.4092 80.5516V85.5841C24.409 85.7803 24.3452 85.9685 24.2317 86.1072C24.1182 86.2459 23.9644 86.324 23.804 86.3242Z" fill="#E6E6E6"/>
<path d="M46.8025 49.4683C47.1368 49.4683 47.4077 49.137 47.4077 48.7282C47.4077 48.3195 47.1368 47.9881 46.8025 47.9881C46.4682 47.9881 46.1973 48.3195 46.1973 48.7282C46.1973 49.137 46.4682 49.4683 46.8025 49.4683Z" fill="white"/>
<path d="M207.942 145.416L0.288153 145.507C0.211848 145.507 0.138745 145.469 0.0848673 145.403C0.0309895 145.337 0.000732422 145.248 0.000732422 145.154C0.000732422 145.061 0.0309895 144.972 0.0848673 144.906C0.138745 144.84 0.211848 144.802 0.288153 144.802L207.942 144.711C208.018 144.711 208.091 144.748 208.145 144.814C208.199 144.88 208.23 144.97 208.23 145.064C208.23 145.157 208.199 145.247 208.145 145.313C208.091 145.379 208.018 145.416 207.942 145.416Z" fill="#CACACA"/>
<path d="M88.7925 67.7058L87.7003 67.992C87.6931 67.4334 87.6362 66.8773 87.5305 66.3337C87.4311 66.9994 87.2219 67.6334 86.9155 68.1969L80.6511 69.8327L74.6368 62.0715C74.6276 58.1909 76.3899 55.2418 79.5496 55.2418C79.7401 55.2418 79.9374 55.2531 80.1371 55.2755C81.8442 54.9261 83.5957 55.4003 85.0226 56.5983C86.4496 57.7963 87.4408 59.6246 87.7875 61.6983C90.0271 64.3948 89.2148 65.9802 88.7925 67.7058Z" fill="#2F2E41"/>
<path d="M91.8723 158.471H94.1446L95.2257 147.753L91.8718 147.753L91.8723 158.471Z" fill="#FFB6B6"/>
<path d="M91.3086 157.1L94.9007 156.838V158.719L98.3158 161.604C98.4845 161.746 98.6115 161.951 98.6783 162.188C98.7452 162.425 98.7483 162.681 98.6873 162.921C98.6263 163.16 98.5044 163.369 98.3393 163.518C98.1741 163.666 97.9745 163.746 97.7695 163.746H93.493L92.7559 161.885L92.4681 163.746H90.8557L91.3086 157.1Z" fill="#2F2E41"/>
<path d="M65.251 155.446L67.2274 156.817L72.4929 148.148L69.5759 146.124L65.251 155.446Z" fill="#FFB6B6"/>
<path d="M65.3139 153.914L68.5439 155.853L67.7844 157.49L69.5907 162.059C69.68 162.285 69.7079 162.54 69.6704 162.786C69.6329 163.033 69.532 163.258 69.3823 163.429C69.2327 163.601 69.0422 163.709 68.8386 163.738C68.6351 163.768 68.4291 163.717 68.2508 163.594L64.5314 161.013L64.6415 158.949L63.6399 160.394L62.2375 159.421L65.3139 153.914Z" fill="#2F2E41"/>
<path d="M100.272 69.5835C99.9804 69.635 99.702 69.764 99.456 69.9613C99.21 70.1586 99.0023 70.4194 98.8477 70.7255C98.693 71.0315 98.5951 71.3753 98.5609 71.7326C98.5267 72.0899 98.5569 72.4521 98.6495 72.7935L95.1724 76.4737L96.486 79.6031L101.337 74.3216C101.795 74.0933 102.17 73.6672 102.389 73.124C102.608 72.5807 102.656 71.9581 102.525 71.374C102.394 70.79 102.092 70.2852 101.677 69.9552C101.261 69.6251 100.761 69.4929 100.272 69.5835Z" fill="#FFB6B6"/>
<path d="M96.7701 82.2389C95.6102 84.387 93.0106 86.4616 89.1526 88.3007C88.9398 88.405 88.7116 88.4542 88.4825 88.445C88.2534 88.4359 88.0283 88.3686 87.8215 88.2476C86.3656 87.4373 85.4325 84.4252 85.3449 84.1331L82.525 79.4816C82.475 79.4139 81.1564 77.5839 81.3072 75.7848C81.3411 75.4078 81.4415 75.0443 81.6012 74.7192C81.761 74.3941 81.9764 74.1152 82.2326 73.9015C84.3672 71.9665 89.1512 78.6869 89.772 79.5804L92.8942 77.2542L95.1692 76.0131L97.0057 73.2804L99.5916 76.5132L97.2659 81.0375C97.1419 81.4615 96.9753 81.865 96.7701 82.2389Z" fill="#2F2E41"/>
<path d="M88.6603 90.4804C88.6603 90.4804 95.3416 103.494 94.1311 104.974C92.9207 106.454 91.0371 106.843 91.0371 106.843L86.8684 100.238L88.6603 90.4804Z" fill="#2F2E41"/>
<path d="M82.7529 72.7069L85.9019 75.3117C87.3655 76.5224 88.4663 78.2837 89.0374 80.3286C89.6085 82.3734 89.6187 84.5901 89.0665 86.6427L88.18 89.9377L82.7529 72.7069Z" fill="#2F2E41"/>
<path d="M77.1847 108.231L76.7637 110.024L75.3272 131.646L68.1501 148.002L71.5755 150.994L81.3625 135.436L85.2335 119.988L91.3127 154.185L95.88 153.786L92.7078 106.372L86.6887 93.0262L77.1847 108.231Z" fill="#2F2E41"/>
<path d="M82.2174 73.3619L86.6001 77.7417C87.5619 78.703 88.2546 80.0072 88.5814 81.4727C88.7298 82.1382 88.8004 82.826 88.7909 83.5156L88.6603 93.0263L92.6786 106.158C92.6786 106.158 81.7845 111.191 80.332 106.751C78.8794 102.31 82.2174 73.3619 82.2174 73.3619Z" fill="#E2A27D"/>
<path d="M83.5282 109.056C78.086 109.056 76.7597 109.106 76.6737 109.084L76.5876 109.063V105.06L77.9111 97.8696C77.7564 95.6371 77.3941 92.6933 77.4269 90.1727C77.5455 81.0623 77.1793 72.163 77.1793 72.163L80.0597 68.9118L81.3682 69.9531L83.7955 72.9211C86.617 81.4117 88.8558 89.4052 88.8699 89.9188L89.0473 98.7577L88.321 102.31C85.0355 105.146 88.0375 109.056 83.5282 109.056Z" fill="#2F2E41"/>
<path opacity="0.2" d="M78.4002 80.0997L77.7385 85.1494L82.2175 87.4084L78.4002 80.0997Z" fill="black"/>
<path d="M82.9123 67.9645C85.3341 67.9645 87.2974 65.5638 87.2974 62.6023C87.2974 59.6409 85.3341 57.2401 82.9123 57.2401C80.4904 57.2401 78.5271 59.6409 78.5271 62.6023C78.5271 65.5638 80.4904 67.9645 82.9123 67.9645Z" fill="#FFB6B6"/>
<path opacity="0.2" d="M75.5645 89.8096C76.7316 91.462 78.3146 92.5935 80.0648 93.0261C81.815 93.4587 83.6331 93.1679 85.2335 92.1994L86.1879 91.6218L75.5645 89.8096Z" fill="black"/>
<path d="M90.8235 88.5752C90.6279 88.3065 90.3865 88.0935 90.1163 87.9512C89.8461 87.8089 89.5536 87.7408 89.2596 87.7516C88.9655 87.7625 88.6769 87.8521 88.4142 88.014C88.1515 88.176 87.9211 88.4064 87.7391 88.6891L83.3115 87.1692L81.8999 90.234L88.1772 92.2731C88.5858 92.6155 89.0829 92.7627 89.5743 92.6868C90.0658 92.6109 90.5174 92.3173 90.8435 91.8615C91.1697 91.4057 91.3479 90.8194 91.3442 90.2137C91.3405 89.608 91.1552 89.025 90.8235 88.5752Z" fill="#FFB6B6"/>
<path d="M80.2579 91.9765C78.1529 91.9767 75.3046 90.4675 71.9234 87.5443C71.735 87.3847 71.5757 87.1789 71.4557 86.9401C71.3357 86.7012 71.2575 86.4345 71.2262 86.1568C70.9768 84.2247 72.518 81.6127 72.6692 81.3623L74.2893 75.9217C74.308 75.8333 74.8301 73.4793 76.1409 72.6418C76.4169 72.4687 76.7202 72.3707 77.0301 72.3546C77.34 72.3384 77.6491 72.4045 77.9361 72.5482C80.4329 73.66 78.4833 82.2449 78.2156 83.3708L81.5236 85.2747L83.6243 86.9121L86.5011 87.2801L85.72 91.7002L81.351 91.8204C80.9933 91.9274 80.6262 91.9798 80.2579 91.9765Z" fill="#2F2E41"/>
<path d="M88.1705 59.0747C87.8194 59.6331 86.6101 60.127 85.1736 60.5254C85.1759 60.4889 85.1759 60.4525 85.1759 60.416C85.1688 59.8573 85.1118 59.3012 85.0061 58.7577C84.9068 59.4233 84.6975 60.0573 84.3911 60.6208C84.3682 60.6629 84.3453 60.705 84.32 60.7471C83.0878 61.0445 81.7844 61.2746 80.7633 61.4289C81.4654 64.5211 84.1571 67.0576 83.8657 68.9376L75.9789 70.9074C76.0274 70.1262 75.9763 69.3405 75.8275 68.5784C75.6766 69.5841 75.2779 70.5094 74.6847 71.2301L74.0147 71.3984L73.815 70.1947C72.0849 65.1131 74.4966 59.9109 78.448 57.22C79.1525 55.9286 80.2464 55.0307 81.4907 54.7227L82.4751 54.4758C83.096 54.3204 83.7359 54.3162 84.3581 54.4632C84.9804 54.6103 85.5729 54.9058 86.1017 55.3328C86.6306 55.7599 87.0855 56.3101 87.4405 56.9522C87.7954 57.5942 88.0435 58.3155 88.1705 59.0747Z" fill="#2F2E41"/>
<path d="M107.011 156.287L107.127 153.081C108.343 152.286 109.699 151.866 111.078 151.858C109.18 153.755 109.418 157.411 108.131 159.962C107.725 160.754 107.178 161.424 106.532 161.922C105.885 162.42 105.155 162.734 104.396 162.84L102.808 164.029C102.59 162.544 102.638 161.019 102.949 159.559C103.259 158.098 103.825 156.738 104.607 155.571C105.051 154.921 105.56 154.343 106.123 153.849C106.503 155.075 107.011 156.287 107.011 156.287Z" fill="#F2F2F2"/>
<path d="M110.86 164.104H55.5706C55.4943 164.104 55.4212 164.066 55.3673 164C55.3135 163.934 55.2832 163.845 55.2832 163.752C55.2832 163.658 55.3135 163.569 55.3673 163.503C55.4212 163.437 55.4943 163.399 55.5706 163.399H110.86C110.898 163.399 110.935 163.408 110.97 163.426C111.005 163.443 111.037 163.469 111.064 163.502C111.091 163.535 111.112 163.574 111.127 163.616C111.141 163.659 111.149 163.705 111.149 163.752C111.149 163.798 111.141 163.844 111.127 163.887C111.112 163.929 111.091 163.968 111.064 164.001C111.037 164.034 111.005 164.06 110.97 164.077C110.935 164.095 110.898 164.104 110.86 164.104Z" fill="#CACACA"/>
</g>
<defs>
<clipPath id="clip0_55_1090">
<rect width="208.23" height="163.333" fill="white" transform="translate(0 0.77124)"/>
</clipPath>
</defs>
</svg>
