<svg width="264" height="229" viewBox="0 0 264 229" fill="none" xmlns="http://www.w3.org/2000/svg">
<g clip-path="url(#clip0_42_857)">
<path d="M208.472 18.8656C208.176 18.6678 207.875 18.4803 207.579 18.2893C199.002 12.8041 189.81 8.34805 180.191 5.0131L177.961 35.7806H163.822V0.521772C162.931 0.337617 162.035 0.163693 161.138 0V35.7806H144.335C135.085 35.7806 126.214 32.1061 119.674 25.5654C113.133 19.0247 109.458 10.1537 109.458 0.90376C108.558 1.09815 107.665 1.30614 106.771 1.52781V35.7806H93.0856L90.961 6.44201C81.0763 10.233 71.692 15.2183 63.0173 21.2869C62.8672 21.3892 62.7172 21.495 62.5705 21.5973C61.8168 22.1259 61.0734 22.6647 60.3334 23.2103V140.589H100.667L99.9539 130.716L96.0321 76.5095H175.011L171.089 130.716L170.376 140.589H210.263V20.0524C209.669 19.65 209.072 19.2544 208.472 18.8656ZM106.771 67.5575H95.3842L93.28 38.4679H106.771V67.5575ZM161.138 67.5575H142.013V66.9812C142.013 66.7041 141.958 66.4298 141.852 66.1739C141.746 65.9179 141.59 65.6855 141.394 65.4897C141.198 65.294 140.966 65.1388 140.709 65.0331C140.453 64.9274 140.179 64.8732 139.902 64.8736H131.588C131.311 64.8735 131.037 64.928 130.781 65.0339C130.525 65.1397 130.293 65.295 130.097 65.4907C129.901 65.6864 129.746 65.9188 129.64 66.1745C129.534 66.4303 129.48 66.7044 129.48 66.9812V67.5575H109.458V38.4679H161.138V67.5575ZM163.822 67.5575V38.4679H177.766L175.662 67.5575H163.822Z" fill="#F2F2F2"/>
<path d="M252.275 213.329L252.541 207.335C255.32 205.85 258.42 205.065 261.571 205.05C257.234 208.595 257.776 215.43 254.836 220.198C253.908 221.678 252.658 222.93 251.18 223.862C249.702 224.793 248.033 225.38 246.297 225.579L242.668 227.801C242.17 225.025 242.28 222.174 242.99 219.444C243.7 216.714 244.993 214.171 246.781 211.989C247.796 210.775 248.959 209.694 250.245 208.771C251.114 211.063 252.275 213.329 252.275 213.329Z" fill="#F2F2F2"/>
<path d="M57.565 206.761L48.8073 204.11C47.6587 199.443 47.6666 194.567 48.8302 189.905C52.4367 197.649 62.7414 199.422 68.6803 205.563C70.518 207.493 71.8979 209.811 72.7177 212.346C73.5376 214.882 73.7764 217.569 73.4165 220.209L75.3335 226.409C71.0432 226.099 66.8711 224.863 63.1045 222.786C59.338 220.709 56.0665 217.839 53.5157 214.376C52.1039 212.419 50.9441 210.292 50.0639 208.045C53.7782 207.624 57.565 206.761 57.565 206.761Z" fill="#F2F2F2"/>
<path d="M245.46 226.821C245.459 227.002 245.387 227.176 245.259 227.305C245.196 227.368 245.121 227.418 245.038 227.452C244.956 227.486 244.867 227.503 244.778 227.503H242.036C241.947 227.503 241.858 227.486 241.775 227.452C241.692 227.417 241.617 227.367 241.553 227.304C241.49 227.24 241.44 227.165 241.405 227.082C241.371 226.999 241.354 226.91 241.354 226.821V143.903C241.354 142.075 240.74 140.592 239.987 140.589H34.521C33.764 140.592 33.1535 142.075 33.1501 143.903V226.313C33.1495 226.482 33.0861 226.645 32.9721 226.771C32.858 226.896 32.7015 226.975 32.5328 226.991C31.9804 227.046 31.4279 227.094 30.8789 227.138C30.8652 227.138 30.8516 227.141 30.8379 227.141C30.5378 227.169 30.2377 227.189 29.9376 227.213H29.9342C29.7773 226.93 29.6273 226.64 29.4738 226.35C29.4246 226.252 29.399 226.143 29.3988 226.033V139.603C29.3988 139.098 29.4193 138.59 29.4534 138.089C29.502 137.4 29.5874 136.715 29.7091 136.036C30.2855 132.868 31.5882 130.723 33.0683 130.716H241.436C241.652 130.717 241.865 130.762 242.063 130.849C242.354 130.978 242.617 131.162 242.838 131.391C243.137 131.702 243.393 132.052 243.598 132.431C244.328 133.717 244.85 135.633 245.034 137.864C245.034 137.884 245.037 137.905 245.037 137.925C245.085 138.478 245.109 139.04 245.105 139.603L245.153 146.911L245.184 151.27L245.276 164.945L245.31 169.801L245.46 226.821Z" fill="#E6E6E6"/>
<path d="M263.594 228.349L169.556 228.454C169.448 228.453 169.345 228.41 169.269 228.334C169.193 228.258 169.151 228.155 169.151 228.048C169.151 227.94 169.193 227.837 169.269 227.761C169.345 227.685 169.448 227.642 169.556 227.642L263.594 227.537C263.701 227.537 263.804 227.58 263.88 227.656C263.956 227.732 263.999 227.835 263.999 227.943C263.999 228.05 263.956 228.153 263.88 228.229C263.804 228.306 263.701 228.349 263.594 228.349Z" fill="#CACACA"/>
<path d="M146.87 106.49H130.214C129.979 106.49 129.753 106.584 129.587 106.751C129.42 106.918 129.327 107.144 129.327 107.379V133.689H147.759V107.379C147.759 107.262 147.736 107.147 147.692 107.039C147.647 106.931 147.581 106.833 147.499 106.75C147.416 106.667 147.318 106.602 147.21 106.557C147.102 106.513 146.986 106.49 146.87 106.49ZM138.598 121.439C138.077 121.436 137.578 121.228 137.21 120.86C136.842 120.492 136.634 119.993 136.631 119.472V116.437C136.631 115.916 136.839 115.416 137.207 115.047C137.576 114.678 138.076 114.471 138.598 114.471C139.12 114.471 139.62 114.678 139.989 115.047C140.358 115.416 140.565 115.916 140.565 116.437V119.472C140.562 119.993 140.354 120.492 139.986 120.86C139.618 121.228 139.119 121.436 138.598 121.439Z" fill="#2F2E41"/>
<path d="M174.449 65.4294H103.255C102.643 65.4304 102.057 65.6738 101.624 66.1063C101.192 66.5389 100.948 67.1252 100.947 67.7369V115.779C100.948 116.391 101.191 116.977 101.624 117.41C102.056 117.843 102.643 118.086 103.255 118.087H174.449C175.061 118.086 175.647 117.843 176.08 117.41C176.513 116.977 176.756 116.391 176.756 115.779V67.7369C176.756 67.1252 176.512 66.5389 176.08 66.1063C175.647 65.6738 175.061 65.4304 174.449 65.4294Z" fill="#3F3D56"/>
<path d="M173.854 67.0957H103.848C103.521 67.0964 103.207 67.227 102.976 67.4588C102.744 67.6907 102.614 68.0048 102.614 68.3323V115.184C102.615 115.511 102.745 115.824 102.976 116.056C103.208 116.287 103.521 116.417 103.848 116.418H173.854C174.181 116.417 174.494 116.287 174.725 116.056C174.957 115.824 175.087 115.511 175.088 115.184V68.3323C175.087 68.0048 174.958 67.6907 174.726 67.4588C174.495 67.227 174.181 67.0964 173.854 67.0957Z" fill="white"/>
<path d="M129.27 132.848V135.386C129.27 135.518 129.323 135.644 129.416 135.737C129.509 135.83 129.635 135.882 129.766 135.883H147.32C147.451 135.882 147.577 135.829 147.67 135.736C147.763 135.644 147.816 135.518 147.816 135.386V132.848H129.27Z" fill="#3F3D56"/>
<path d="M160.219 136.766H118.57C118.456 136.766 118.343 136.74 118.24 136.691C118.137 136.642 118.047 136.571 117.975 136.482C117.903 136.394 117.852 136.29 117.825 136.18C117.798 136.069 117.796 135.953 117.82 135.842L118.466 132.772C118.503 132.601 118.597 132.447 118.734 132.336C118.87 132.226 119.04 132.165 119.216 132.164H159.573C159.748 132.165 159.919 132.226 160.055 132.336C160.191 132.447 160.286 132.601 160.322 132.772L160.969 135.842C160.992 135.953 160.99 136.069 160.964 136.18C160.937 136.29 160.886 136.394 160.814 136.482C160.742 136.571 160.651 136.642 160.548 136.691C160.446 136.74 160.333 136.766 160.219 136.766Z" fill="#2F2E41"/>
<path d="M120.628 132.717H119.678C119.586 132.717 119.512 132.791 119.512 132.883V133.32C119.512 133.412 119.586 133.487 119.678 133.487H120.628C120.72 133.487 120.794 133.412 120.794 133.32V132.883C120.794 132.791 120.72 132.717 120.628 132.717Z" fill="#3F3D56"/>
<path d="M123.193 132.717H122.244C122.152 132.717 122.077 132.791 122.077 132.883V133.32C122.077 133.412 122.152 133.487 122.244 133.487H123.193C123.285 133.487 123.36 133.412 123.36 133.32V132.883C123.36 132.791 123.285 132.717 123.193 132.717Z" fill="#3F3D56"/>
<path d="M125.759 132.717H124.809C124.717 132.717 124.643 132.791 124.643 132.883V133.32C124.643 133.412 124.717 133.487 124.809 133.487H125.759C125.851 133.487 125.925 133.412 125.925 133.32V132.883C125.925 132.791 125.851 132.717 125.759 132.717Z" fill="#3F3D56"/>
<path d="M128.324 132.717H127.375C127.283 132.717 127.208 132.791 127.208 132.883V133.32C127.208 133.412 127.283 133.487 127.375 133.487H128.324C128.416 133.487 128.491 133.412 128.491 133.32V132.883C128.491 132.791 128.416 132.717 128.324 132.717Z" fill="#3F3D56"/>
<path d="M130.89 132.717H129.94C129.848 132.717 129.774 132.791 129.774 132.883V133.32C129.774 133.412 129.848 133.487 129.94 133.487H130.89C130.982 133.487 131.056 133.412 131.056 133.32V132.883C131.056 132.791 130.982 132.717 130.89 132.717Z" fill="#3F3D56"/>
<path d="M133.455 132.717H132.506C132.414 132.717 132.339 132.791 132.339 132.883V133.32C132.339 133.412 132.414 133.487 132.506 133.487H133.455C133.547 133.487 133.622 133.412 133.622 133.32V132.883C133.622 132.791 133.547 132.717 133.455 132.717Z" fill="#3F3D56"/>
<path d="M136.021 132.717H135.071C134.979 132.717 134.905 132.791 134.905 132.883V133.32C134.905 133.412 134.979 133.487 135.071 133.487H136.021C136.113 133.487 136.187 133.412 136.187 133.32V132.883C136.187 132.791 136.113 132.717 136.021 132.717Z" fill="#3F3D56"/>
<path d="M138.586 132.717H137.637C137.545 132.717 137.47 132.791 137.47 132.883V133.32C137.47 133.412 137.545 133.487 137.637 133.487H138.586C138.678 133.487 138.753 133.412 138.753 133.32V132.883C138.753 132.791 138.678 132.717 138.586 132.717Z" fill="#3F3D56"/>
<path d="M141.152 132.717H140.202C140.11 132.717 140.036 132.791 140.036 132.883V133.32C140.036 133.412 140.11 133.487 140.202 133.487H141.152C141.244 133.487 141.318 133.412 141.318 133.32V132.883C141.318 132.791 141.244 132.717 141.152 132.717Z" fill="#3F3D56"/>
<path d="M143.717 132.717H142.768C142.676 132.717 142.601 132.791 142.601 132.883V133.32C142.601 133.412 142.676 133.487 142.768 133.487H143.717C143.809 133.487 143.884 133.412 143.884 133.32V132.883C143.884 132.791 143.809 132.717 143.717 132.717Z" fill="#3F3D56"/>
<path d="M146.283 132.717H145.333C145.241 132.717 145.167 132.791 145.167 132.883V133.32C145.167 133.412 145.241 133.487 145.333 133.487H146.283C146.375 133.487 146.45 133.412 146.45 133.32V132.883C146.45 132.791 146.375 132.717 146.283 132.717Z" fill="#3F3D56"/>
<path d="M148.849 132.717H147.899C147.807 132.717 147.732 132.791 147.732 132.883V133.32C147.732 133.412 147.807 133.487 147.899 133.487H148.849C148.941 133.487 149.015 133.412 149.015 133.32V132.883C149.015 132.791 148.941 132.717 148.849 132.717Z" fill="#3F3D56"/>
<path d="M151.414 132.717H150.464C150.372 132.717 150.298 132.791 150.298 132.883V133.32C150.298 133.412 150.372 133.487 150.464 133.487H151.414C151.506 133.487 151.58 133.412 151.58 133.32V132.883C151.58 132.791 151.506 132.717 151.414 132.717Z" fill="#3F3D56"/>
<path d="M153.98 132.717H153.03C152.938 132.717 152.863 132.791 152.863 132.883V133.32C152.863 133.412 152.938 133.487 153.03 133.487H153.98C154.071 133.487 154.146 133.412 154.146 133.32V132.883C154.146 132.791 154.071 132.717 153.98 132.717Z" fill="#3F3D56"/>
<path d="M156.545 132.717H155.595C155.503 132.717 155.429 132.791 155.429 132.883V133.32C155.429 133.412 155.503 133.487 155.595 133.487H156.545C156.637 133.487 156.712 133.412 156.712 133.32V132.883C156.712 132.791 156.637 132.717 156.545 132.717Z" fill="#3F3D56"/>
<path d="M159.111 132.717H158.161C158.069 132.717 157.994 132.791 157.994 132.883V133.32C157.994 133.412 158.069 133.487 158.161 133.487H159.111C159.203 133.487 159.277 133.412 159.277 133.32V132.883C159.277 132.791 159.203 132.717 159.111 132.717Z" fill="#3F3D56"/>
<path d="M120.598 134H119.648C119.556 134 119.481 134.074 119.481 134.166V134.603C119.481 134.695 119.556 134.769 119.648 134.769H120.598C120.69 134.769 120.764 134.695 120.764 134.603V134.166C120.764 134.074 120.69 134 120.598 134Z" fill="#3F3D56"/>
<path d="M123.163 134H122.213C122.121 134 122.047 134.074 122.047 134.166V134.603C122.047 134.695 122.121 134.769 122.213 134.769H123.163C123.255 134.769 123.33 134.695 123.33 134.603V134.166C123.33 134.074 123.255 134 123.163 134Z" fill="#3F3D56"/>
<path d="M125.729 134H124.779C124.687 134 124.612 134.074 124.612 134.166V134.603C124.612 134.695 124.687 134.769 124.779 134.769H125.729C125.821 134.769 125.895 134.695 125.895 134.603V134.166C125.895 134.074 125.821 134 125.729 134Z" fill="#3F3D56"/>
<path d="M128.294 134H127.344C127.252 134 127.178 134.074 127.178 134.166V134.603C127.178 134.695 127.252 134.769 127.344 134.769H128.294C128.386 134.769 128.461 134.695 128.461 134.603V134.166C128.461 134.074 128.386 134 128.294 134Z" fill="#3F3D56"/>
<path d="M130.86 134H129.91C129.818 134 129.743 134.074 129.743 134.166V134.603C129.743 134.695 129.818 134.769 129.91 134.769H130.86C130.952 134.769 131.026 134.695 131.026 134.603V134.166C131.026 134.074 130.952 134 130.86 134Z" fill="#3F3D56"/>
<path d="M133.425 134H132.475C132.383 134 132.309 134.074 132.309 134.166V134.603C132.309 134.695 132.383 134.769 132.475 134.769H133.425C133.517 134.769 133.592 134.695 133.592 134.603V134.166C133.592 134.074 133.517 134 133.425 134Z" fill="#3F3D56"/>
<path d="M135.991 134H135.041C134.949 134 134.874 134.074 134.874 134.166V134.603C134.874 134.695 134.949 134.769 135.041 134.769H135.991C136.082 134.769 136.157 134.695 136.157 134.603V134.166C136.157 134.074 136.082 134 135.991 134Z" fill="#3F3D56"/>
<path d="M138.556 134H137.606C137.514 134 137.44 134.074 137.44 134.166V134.603C137.44 134.695 137.514 134.769 137.606 134.769H138.556C138.648 134.769 138.723 134.695 138.723 134.603V134.166C138.723 134.074 138.648 134 138.556 134Z" fill="#3F3D56"/>
<path d="M141.122 134H140.172C140.08 134 140.005 134.074 140.005 134.166V134.603C140.005 134.695 140.08 134.769 140.172 134.769H141.122C141.214 134.769 141.288 134.695 141.288 134.603V134.166C141.288 134.074 141.214 134 141.122 134Z" fill="#3F3D56"/>
<path d="M143.687 134H142.737C142.645 134 142.571 134.074 142.571 134.166V134.603C142.571 134.695 142.645 134.769 142.737 134.769H143.687C143.779 134.769 143.854 134.695 143.854 134.603V134.166C143.854 134.074 143.779 134 143.687 134Z" fill="#3F3D56"/>
<path d="M146.253 134H145.303C145.211 134 145.136 134.074 145.136 134.166V134.603C145.136 134.695 145.211 134.769 145.303 134.769H146.253C146.345 134.769 146.419 134.695 146.419 134.603V134.166C146.419 134.074 146.345 134 146.253 134Z" fill="#3F3D56"/>
<path d="M148.818 134H147.868C147.776 134 147.702 134.074 147.702 134.166V134.603C147.702 134.695 147.776 134.769 147.868 134.769H148.818C148.91 134.769 148.985 134.695 148.985 134.603V134.166C148.985 134.074 148.91 134 148.818 134Z" fill="#3F3D56"/>
<path d="M151.384 134H150.434C150.342 134 150.267 134.074 150.267 134.166V134.603C150.267 134.695 150.342 134.769 150.434 134.769H151.384C151.476 134.769 151.55 134.695 151.55 134.603V134.166C151.55 134.074 151.476 134 151.384 134Z" fill="#3F3D56"/>
<path d="M153.949 134H152.999C152.907 134 152.833 134.074 152.833 134.166V134.603C152.833 134.695 152.907 134.769 152.999 134.769H153.949C154.041 134.769 154.116 134.695 154.116 134.603V134.166C154.116 134.074 154.041 134 153.949 134Z" fill="#3F3D56"/>
<path d="M156.515 134H155.565C155.473 134 155.398 134.074 155.398 134.166V134.603C155.398 134.695 155.473 134.769 155.565 134.769H156.515C156.607 134.769 156.681 134.695 156.681 134.603V134.166C156.681 134.074 156.607 134 156.515 134Z" fill="#3F3D56"/>
<path d="M159.08 134H158.13C158.039 134 157.964 134.074 157.964 134.166V134.603C157.964 134.695 158.039 134.769 158.13 134.769H159.08C159.172 134.769 159.247 134.695 159.247 134.603V134.166C159.247 134.074 159.172 134 159.08 134Z" fill="#3F3D56"/>
<path d="M141.891 135.539H131.962C131.87 135.539 131.796 135.614 131.796 135.706V136.142C131.796 136.234 131.87 136.309 131.962 136.309H141.891C141.983 136.309 142.058 136.234 142.058 136.142V135.706C142.058 135.614 141.983 135.539 141.891 135.539Z" fill="#3F3D56"/>
<path d="M170.336 73.5512H104.832C104.764 73.5498 104.699 73.5218 104.651 73.4731C104.604 73.4244 104.577 73.3589 104.577 73.2908C104.577 73.2226 104.604 73.1572 104.651 73.1085C104.699 73.0598 104.764 73.0317 104.832 73.0303H170.336C170.404 73.0317 170.469 73.0598 170.516 73.1085C170.564 73.1572 170.591 73.2226 170.591 73.2908C170.591 73.3589 170.564 73.4244 170.516 73.4731C170.469 73.5218 170.404 73.5498 170.336 73.5512Z" fill="#CACACA"/>
<path d="M109.291 71.7002C110.134 71.7002 110.818 71.0015 110.818 70.1396C110.818 69.2777 110.134 68.579 109.291 68.579C108.448 68.579 107.764 69.2777 107.764 70.1396C107.764 71.0015 108.448 71.7002 109.291 71.7002Z" fill="#3F3D56"/>
<path d="M114.565 71.7002C115.408 71.7002 116.091 71.0015 116.091 70.1396C116.091 69.2777 115.408 68.579 114.565 68.579C113.722 68.579 113.038 69.2777 113.038 70.1396C113.038 71.0015 113.722 71.7002 114.565 71.7002Z" fill="#3F3D56"/>
<path d="M119.838 71.7002C120.681 71.7002 121.365 71.0015 121.365 70.1396C121.365 69.2777 120.681 68.579 119.838 68.579C118.995 68.579 118.312 69.2777 118.312 70.1396C118.312 71.0015 118.995 71.7002 119.838 71.7002Z" fill="#3F3D56"/>
<path d="M167.161 68.9658H163.414C163.34 68.9673 163.269 68.9978 163.217 69.0509C163.165 69.1039 163.136 69.1752 163.136 69.2495C163.136 69.3237 163.165 69.395 163.217 69.4481C163.269 69.5011 163.34 69.5316 163.414 69.5331H167.161C167.235 69.5316 167.306 69.5011 167.358 69.4481C167.409 69.395 167.439 69.3237 167.439 69.2495C167.439 69.1752 167.409 69.1039 167.358 69.0509C167.306 68.9978 167.235 68.9673 167.161 68.9658Z" fill="#3F3D56"/>
<path d="M167.161 70.0305H163.414C163.34 70.032 163.269 70.0625 163.217 70.1156C163.165 70.1686 163.136 70.2399 163.136 70.3142C163.136 70.3884 163.165 70.4597 163.217 70.5128C163.269 70.5658 163.34 70.5963 163.414 70.5978H167.161C167.235 70.5963 167.306 70.5658 167.358 70.5128C167.409 70.4597 167.439 70.3884 167.439 70.3142C167.439 70.2399 167.409 70.1686 167.358 70.1156C167.306 70.0625 167.235 70.032 167.161 70.0305Z" fill="#3F3D56"/>
<path d="M167.161 71.0939H163.414C163.34 71.0954 163.269 71.1259 163.217 71.1789C163.165 71.232 163.136 71.3033 163.136 71.3775C163.136 71.4518 163.165 71.5231 163.217 71.5761C163.269 71.6292 163.34 71.6597 163.414 71.6612H167.161C167.235 71.6597 167.306 71.6292 167.358 71.5761C167.409 71.5231 167.439 71.4518 167.439 71.3775C167.439 71.3033 167.409 71.232 167.358 71.1789C167.306 71.1259 167.235 71.0954 167.161 71.0939Z" fill="#3F3D56"/>
<path d="M142.817 88.7693H134.631C134.017 88.7693 133.518 89.2677 133.518 89.8825V89.8825C133.518 90.4973 134.017 90.9956 134.631 90.9956H142.817C143.431 90.9956 143.93 90.4973 143.93 89.8825V89.8825C143.93 89.2677 143.431 88.7693 142.817 88.7693Z" fill="#F9A826"/>
<path d="M148.104 93.222H129.344C128.729 93.222 128.231 93.7204 128.231 94.3352V94.3352C128.231 94.95 128.729 95.4484 129.344 95.4484H148.104C148.719 95.4484 149.217 94.95 149.217 94.3352C149.217 93.7204 148.719 93.222 148.104 93.222Z" fill="#E6E6E6"/>
<path d="M148.104 97.6747H129.344C128.729 97.6747 128.231 98.1731 128.231 98.7879C128.231 99.4026 128.729 99.901 129.344 99.901H148.104C148.719 99.901 149.217 99.4026 149.217 98.7879C149.217 98.1731 148.719 97.6747 148.104 97.6747Z" fill="#E6E6E6"/>
<path d="M105.472 140.115H85.0101C84.2865 140.115 83.5926 140.402 83.0809 140.914C82.5693 141.425 82.2819 142.119 82.2819 142.843C82.2819 143.566 82.5693 144.26 83.0809 144.772C83.5926 145.283 84.2865 145.571 85.0101 145.571H92.5127V166.715H97.9691V145.571H105.472C106.195 145.571 106.889 145.283 107.401 144.772C107.912 144.26 108.2 143.566 108.2 142.843C108.2 142.119 107.912 141.425 107.401 140.914C106.889 140.402 106.195 140.115 105.472 140.115Z" fill="#3F3D56"/>
<path d="M118.977 178.424H64.2477C58.942 178.405 53.8203 176.478 49.8183 172.994C45.8163 169.51 43.2011 164.703 42.4504 159.451L40.5131 152.325C36.5034 137.559 30.3957 123.444 22.3768 110.412C18.7117 104.46 16.8253 98.6979 21.11 93.1506C21.1465 93.1034 21.1823 93.0568 21.2176 93.0109C24.6542 88.5379 41.7592 87.5696 47.3354 87.3813C47.5557 87.3738 47.7768 87.3701 47.9988 87.3701H82.0397C82.2619 87.3701 82.4829 87.3738 82.703 87.3813C85.709 87.4689 88.6352 88.3686 91.1711 89.985C93.707 91.6014 95.7581 93.8741 97.1067 96.562C98.5457 99.3063 99.215 102.389 99.0435 105.483C98.872 108.577 97.8662 111.567 96.1328 114.135C84.1751 132.097 80.5141 143.36 84.2622 150.654C87.8878 157.709 99.0015 161.316 119.238 162.005C124.676 162.19 127.171 166.425 127.189 170.281C127.206 174.037 124.806 178.184 119.498 178.413C119.325 178.421 119.152 178.424 118.977 178.424Z" fill="#3F3D56"/>
<path d="M73.545 227.021H94.0066C94.7302 227.021 95.4241 226.733 95.9358 226.222C96.4474 225.71 96.7349 225.016 96.7349 224.293C96.7349 223.569 96.4474 222.875 95.9358 222.363C95.4241 221.852 94.7302 221.564 94.0066 221.564H86.504V175.526H81.0476V221.564H73.545C72.8214 221.564 72.1275 221.852 71.6158 222.363C71.1042 222.875 70.8168 223.569 70.8168 224.293C70.8168 225.016 71.1042 225.71 71.6158 226.222C72.1275 226.733 72.8214 227.021 73.545 227.021Z" fill="#3F3D56"/>
<path d="M71.9109 89.079L72.3398 91.6854C72.5427 92.9493 73.2775 101.877 72.7331 102.942C72.6851 100.954 68.9818 97.827 66.5823 98.5409L62.8166 99.3776L60.4793 99.8976L58.5771 100.315L53.0493 101.522C53.0397 101.458 53.0327 101.39 53.023 101.326C53.01 101.245 52.9969 101.164 52.9805 101.084C52.8776 100.566 52.6898 100.068 52.4248 99.6104C52.3968 100.223 52.216 100.819 51.8988 101.344C51.8902 101.357 51.8826 101.372 51.8763 101.387C51.7781 101.545 51.6697 101.698 51.5519 101.843C51.5465 101.847 51.5415 101.851 51.5373 101.856C51.5373 101.856 50.4015 83.751 50.5205 83.584C50.6075 83.4652 50.6953 83.3498 50.7871 83.237C50.8782 83.1209 50.9667 83.0088 51.0618 82.8953C51.074 82.8846 51.0843 82.8719 51.0924 82.8578C51.3588 82.5424 51.641 82.2407 51.9378 81.9538C52.025 81.8698 52.1156 81.7851 52.2062 81.7004C53.5891 80.4209 55.2414 79.4678 57.0414 78.9114C57.2444 78.849 57.4555 78.7919 57.67 78.7341C57.8817 78.6803 58.0975 78.6292 58.3147 78.5847L58.3882 78.5697C58.4918 78.5485 58.5994 78.53 58.7036 78.5121C58.8346 78.4888 58.9663 78.4688 59.0953 78.4528C60.7701 78.2116 62.4762 78.3075 64.1133 78.7349C64.1167 78.7342 64.1174 78.7375 64.1207 78.7369C65.4873 79.094 66.7863 79.6725 67.966 80.4493C70.0065 81.7966 70.8008 83.9942 71.3648 86.4616C71.5626 87.3088 71.729 88.1902 71.9109 89.079Z" fill="#2F2E41"/>
<path d="M92.0648 208.46L95.5897 210.375L104.921 197.473L99.7182 194.648L92.0648 208.46Z" fill="#FFB6B6"/>
<path d="M93.7616 203.863L100.161 205.867L99.1421 208.548L103.53 214.916C103.747 215.231 103.857 215.606 103.846 215.988C103.834 216.37 103.7 216.738 103.464 217.038C103.229 217.339 102.903 217.556 102.535 217.659C102.167 217.761 101.776 217.743 101.419 217.607L93.9694 214.777L93.6929 211.638L92.1841 214.099L89.3754 213.032L93.7616 203.863Z" fill="#2F2E41"/>
<path d="M112.031 150.755C111.468 150.892 110.882 150.903 110.315 150.79C109.747 150.676 109.211 150.439 108.745 150.095C108.279 149.752 107.893 149.31 107.616 148.802C107.339 148.294 107.177 147.731 107.141 147.153L77.0751 136.337L82.5927 131.535L111.129 142.897C112.104 142.901 113.044 143.262 113.77 143.912C114.496 144.563 114.959 145.457 115.07 146.425C115.181 147.394 114.933 148.37 114.373 149.167C113.813 149.965 112.979 150.53 112.031 150.755Z" fill="#FFB6B6"/>
<path d="M68.6761 109.541C68.6761 109.541 63.6124 109.653 63.1622 115.434C62.712 121.215 73.761 135.514 75.4728 137.872C77.1847 140.23 96.1993 143.133 96.1993 143.133L102.663 138.44C95.8712 134.039 89.6727 130.665 85.5128 130.816L68.6761 109.541Z" fill="#F9A826"/>
<path d="M62.4657 135.049L63.6996 140.351C63.6996 140.351 63.7117 145.239 64.5775 146.141C65.4372 147.038 84.3419 145.237 84.3419 145.237C84.3419 145.237 82.3375 137.359 82.3642 131.398L62.4657 135.049Z" fill="#FFB6B6"/>
<path d="M102.403 202.863L95.582 199.112C95.4522 190.237 100.791 178.226 107.122 165.646C92.9617 168.082 79.6026 168.862 68.0476 165.916C66.1506 165.415 64.5269 164.188 63.5274 162.499C62.5279 160.811 62.2329 158.797 62.7061 156.893C62.7511 156.706 62.8031 156.521 62.8621 156.338C64.2451 152.119 61.1442 149.474 63.9962 144.833C71.4976 142.271 78.6236 141.548 85.1399 143.81L89.2229 152.838L109.46 150.219C110.438 150.102 111.429 150.18 112.377 150.448C113.324 150.716 114.209 151.168 114.981 151.78C115.753 152.392 116.396 153.15 116.873 154.011C117.351 154.873 117.653 155.82 117.762 156.798C117.789 157.018 117.807 157.239 117.815 157.46C113.723 176.644 109.135 193.905 102.403 202.863Z" fill="#2F2E41"/>
<path d="M63.4029 98.4135C67.98 97.477 70.9312 93.0073 69.9947 88.4302C69.0581 83.8532 64.5884 80.902 60.0114 81.8385C55.4343 82.7751 52.4831 87.2447 53.4197 91.8218C54.3562 96.3989 58.8259 99.3501 63.4029 98.4135Z" fill="#FFB6B6"/>
<path d="M59.7186 101.484L67.5148 101.024C67.8436 101.005 68.1702 101.088 68.4492 101.263C68.7282 101.438 68.9456 101.696 69.0712 102L71.2744 107.341L80.4311 114.91C80.4311 114.91 84.0564 119.523 84.0648 125.481C84.0733 131.439 85.3511 145.23 85.3511 145.23C85.3511 145.23 80.0601 137.782 76.7943 139.763C76.2387 140.1 76.0433 140.789 75.4613 141.138C75.171 141.311 74.5003 141.142 74.2072 141.317C69.707 143.988 65.0138 146.598 64.5753 146.14C63.7143 145.242 62.6699 140.65 62.6699 140.65L55.5335 114.43C55.1466 113.05 55.0697 111.602 55.3085 110.189C55.5472 108.777 56.0957 107.434 56.9144 106.258C57.413 105.556 57.9353 105.034 58.4208 104.948C59.5108 104.716 58.931 102.273 59.7186 101.484Z" fill="#F9A826"/>
<path d="M126.038 219.567L129.329 217.279L121.874 203.214L117.017 206.591L126.038 219.567Z" fill="#FFB6B6"/>
<path d="M126.535 210.13L121.378 214.74C113.177 205.602 106.977 192.786 101.723 178.232C87.9574 174.2 77.5761 167.698 68.5133 159.978C65.4389 157.376 63.1341 154.034 65.7562 150.865C65.8788 150.717 66.0068 150.574 66.1402 150.435C69.2362 147.253 77.0874 147.86 81.6858 144.945L91.958 155.925L91.3119 158.868L110.606 165.404C111.535 165.729 112.389 166.235 113.121 166.893C113.853 167.55 114.448 168.346 114.87 169.234C115.293 170.122 115.536 171.085 115.585 172.068C115.633 173.051 115.487 174.033 115.154 174.959C115.082 175.168 115.001 175.374 114.911 175.576L126.535 210.13Z" fill="#2F2E41"/>
<path d="M124.119 218.64L129.387 214.491L131.024 216.846L138.758 216.822C139.14 216.821 139.512 216.942 139.821 217.167C140.129 217.393 140.357 217.711 140.472 218.075C140.587 218.439 140.582 218.831 140.459 219.192C140.335 219.554 140.1 219.866 139.786 220.084L133.243 224.633L130.496 223.088L131.674 225.723L129.207 227.438L124.119 218.64Z" fill="#2F2E41"/>
<path d="M71.2311 167.565C70.698 167.338 70.2211 166.998 69.8339 166.568C69.4466 166.137 69.1585 165.627 68.9897 165.073C68.8209 164.519 68.7757 163.935 68.8571 163.362C68.9386 162.788 69.1447 162.24 69.461 161.755L51.8114 135.12L59.1047 134.566L75.202 160.725C75.9816 161.31 76.5193 162.161 76.7133 163.117C76.9073 164.072 76.7441 165.065 76.2546 165.908C75.7652 166.752 74.9834 167.386 74.0575 167.691C73.1317 167.996 72.126 167.951 71.2311 167.565Z" fill="#FFB6B6"/>
<path d="M61.0831 108.614C61.0831 108.614 56.9555 105.678 53.141 110.046C49.3264 114.413 49.6449 132.481 49.6091 135.394C49.5979 136.307 50.9154 138.276 52.7305 140.55C53.5455 141.57 54.4607 142.653 55.401 143.729C55.9452 144.352 55.4763 145.648 56.0227 146.253C56.5661 146.855 58.1249 146.766 58.6417 147.325C61.0951 149.976 63.0883 151.995 63.0883 151.995L71.0752 152.093C71.1653 146.156 67.0993 140.856 61.8757 135.734L61.0831 108.614Z" fill="#F9A826"/>
<path d="M72.2799 86.0168C71.9669 86.1714 71.6632 86.3205 71.3649 86.4616C70.1679 87.0501 68.9308 87.5533 67.663 87.9675C67.452 87.3937 67.1301 86.867 66.7158 86.4174C66.8218 87.0383 66.7678 87.6759 66.5588 88.2701C64.6397 88.7454 62.6252 88.6676 60.7484 88.0457C61.9758 90.3183 62.8826 95.107 62.8166 99.3777C62.7878 101.636 62.4822 103.749 61.8147 105.267L60.9571 102.658C60.8776 101.726 60.7177 100.802 60.4794 99.8977C59.9043 97.3594 59.3674 99.0566 58.5771 100.315L53.0493 101.522C53.0397 101.458 53.0327 101.39 53.023 101.326C53.01 101.245 52.9969 101.164 52.9805 101.084C52.8776 100.566 52.6899 100.068 52.4249 99.6104C52.3968 100.223 52.216 100.819 51.8988 101.344C51.8902 101.357 51.8826 101.372 51.8763 101.387C51.7781 101.545 51.6698 101.698 51.5519 101.843C51.5465 101.847 51.5415 101.851 51.5373 101.856C47.9685 102.334 45.4666 83.9298 50.5211 83.5873C50.6681 83.5774 50.696 83.3531 50.7871 83.237C50.8782 83.1209 50.9667 83.0088 51.0618 82.8954C51.074 82.8846 51.0844 82.8719 51.0924 82.8578C51.3626 82.5449 51.6421 82.244 51.9378 81.9538C52.025 81.8698 52.1156 81.7851 52.2062 81.7005C53.5934 80.4272 55.2447 79.476 57.0421 78.9148C57.2451 78.8523 57.4556 78.7919 57.67 78.7341C57.8817 78.6803 58.0976 78.6292 58.3147 78.5848L58.3882 78.5697C58.4918 78.5485 58.5994 78.53 58.7037 78.5121C58.8346 78.4888 58.9663 78.4688 59.0953 78.4529C59.5797 78.697 59.9942 79.0602 60.2999 79.5083L63.8313 78.7857C63.9249 78.7665 64.0191 78.7507 64.114 78.7382L64.1207 78.7369C68.5296 77.9983 71.3644 81.5432 72.2799 86.0168Z" fill="#2F2E41"/>
<path d="M53.0325 82.763C52.2764 83.3088 51.4809 83.8711 50.5582 84.0063C49.6355 84.1416 48.5553 83.6955 48.2999 82.7986C47.9877 81.702 48.978 80.7034 49.868 79.9907L52.6903 77.7307C53.2072 77.2724 53.7906 76.8951 54.4207 76.6119C54.7372 76.4727 55.081 76.4064 55.4266 76.4179C55.7722 76.4295 56.1107 76.5186 56.4172 76.6787C56.7205 76.8835 56.9664 77.1626 57.1313 77.4893C57.2963 77.8161 57.3748 78.1796 57.3595 78.5453C57.3192 79.2782 57.0774 79.9858 56.6605 80.59C56.1366 81.4067 55.4529 82.1088 54.6505 82.6543C53.8481 83.1997 52.9436 83.5772 51.9915 83.7639" fill="#2F2E41"/>
<path d="M74.4382 141.479H53.9765C53.2529 141.479 52.559 141.766 52.0474 142.278C51.5357 142.789 51.2483 143.483 51.2483 144.207C51.2483 144.93 51.5357 145.624 52.0474 146.136C52.559 146.648 53.2529 146.935 53.9765 146.935H61.4791V168.079H66.9356V146.935H74.4382C75.1617 146.935 75.8557 146.648 76.3673 146.136C76.8789 145.624 77.1664 144.93 77.1664 144.207C77.1664 143.483 76.8789 142.789 76.3673 142.278C75.8557 141.766 75.1617 141.479 74.4382 141.479Z" fill="#3F3D56"/>
<path d="M150.032 228.008L0.406102 228.113C0.298613 228.112 0.195636 228.069 0.119739 227.993C0.0438431 227.917 0.0012207 227.814 0.0012207 227.707C0.0012207 227.599 0.0438431 227.496 0.119739 227.42C0.195636 227.344 0.298613 227.301 0.406102 227.3L150.032 227.196C150.139 227.196 150.242 227.239 150.318 227.315C150.394 227.391 150.437 227.494 150.437 227.602C150.437 227.709 150.394 227.812 150.318 227.888C150.242 227.965 150.139 228.007 150.032 228.008Z" fill="#CACACA"/>
<path d="M193.574 182.714L196.905 186.344L212.491 175.224L207.575 169.866L193.574 182.714Z" fill="#A0616A"/>
<path d="M200.468 187.852V187.848L200.131 184.223L199.977 184.151L199.08 183.725L194.848 181.723L194.76 181.628L193.91 180.7L189.208 185.018L195.578 191.961L199.947 196.722L200.093 196.585C200.692 196.037 201.177 195.376 201.519 194.64C201.862 193.904 202.057 193.107 202.092 192.296C202.126 191.485 202.001 190.675 201.722 189.912C201.444 189.15 201.018 188.449 200.468 187.852Z" fill="#2F2E41"/>
<path d="M176.317 218.926L181.031 220.358L188.798 202.857L181.84 200.744L176.317 218.926Z" fill="#A0616A"/>
<path d="M188.522 222.844C188.142 222.127 187.623 221.492 186.996 220.977C186.368 220.461 185.644 220.076 184.866 219.843L182.728 216.893L182.561 216.907L176.91 217.425L176.784 217.388L175.584 217.023L173.728 223.131L188.928 227.748L188.986 227.554C189.223 226.777 189.304 225.961 189.225 225.153C189.145 224.345 188.906 223.56 188.522 222.844Z" fill="#2F2E41"/>
<path d="M215.187 127.294C215.187 127.294 245.284 156.353 226.257 165.347H220.377C220.377 165.347 218.609 159.069 214.564 153.774C214.008 153.047 211.927 153.195 211.349 152.486C207.819 148.159 203.993 144.444 201.35 144.591L201.983 164.668L203.006 171.83C203.543 175.532 188.382 207.857 188.382 207.857L178.852 204.112C178.852 204.112 188.781 177.488 188.897 173.649L180.941 131.446L215.187 127.294Z" fill="#2F2E41"/>
<path d="M217.697 128.728C217.544 128.946 217.343 129.128 217.111 129.26C216.727 129.476 216.311 129.631 215.879 129.717C209.103 131.255 186.967 134.443 181.221 132.922C180.515 132.738 180.055 132.479 179.904 132.138C179.424 131.06 179.485 126.508 179.768 121.01C179.819 119.98 180.955 118.865 181.023 117.787C181.071 116.979 180.051 116.219 180.106 115.397C180.481 109.838 180.965 104.174 181.289 100.593C181.494 98.2909 181.633 96.8518 181.633 96.8518L178.138 74.8112L178.302 74.5418L178.486 74.4497L189.757 68.8705L190.371 67.3018C190.548 66.8501 190.858 66.4621 191.258 66.188C191.659 65.9138 192.133 65.766 192.618 65.7638L200.042 65.7331C200.427 65.7309 200.807 65.8208 201.151 65.9952C201.494 66.1696 201.791 66.4234 202.017 66.7357L204.029 69.5219L217.329 78.0475L217.278 78.2044L211.037 97.1962L211.006 98.6763V98.6797L210.774 110.582L211.419 112.195L210.692 114.841C210.692 114.841 211.027 117.934 212.817 120.233C214.44 122.32 216.507 124.495 217.441 126.262V126.265C217.96 127.241 218.134 128.086 217.697 128.728Z" fill="#F9A826"/>
<path d="M227.702 163.621L226.094 165.653C226.094 165.653 211.299 176.004 210.791 176.971L208.453 179.184L202.795 173.136L205.737 169.449C208.092 166.498 211.134 164.169 214.597 162.666L219.106 158.666L227.702 163.621Z" fill="#2F2E41"/>
<path d="M218.301 134.57L215.607 108.491L214.896 97.7581L222.437 96.3945C222.437 96.3945 222.138 104.069 223.126 108.399C224.101 112.672 223.256 133.997 223.195 134.567C223.749 135.063 224.14 135.714 224.315 136.436C224.49 137.158 224.442 137.916 224.177 138.61C223.913 139.304 223.443 139.902 222.831 140.323C222.22 140.745 221.494 140.971 220.751 140.971C220.008 140.971 219.283 140.746 218.671 140.325C218.059 139.904 217.589 139.307 217.323 138.614C217.058 137.92 217.009 137.162 217.184 136.44C217.358 135.717 217.748 135.065 218.301 134.57Z" fill="#A0616A"/>
<path d="M225.658 113.895L215.965 115.902L215.117 112.523L214.129 111.475L212.155 101.133L209.323 95.0758L210.059 74.3605L217.253 78.1757L217.261 78.1825C218.362 79.3768 219.12 81.0862 220.381 82.8014C224.354 88.2063 224.794 101.34 224.674 108.533C224.672 108.651 224.791 108.776 224.933 108.907C225.61 109.528 226.051 110.364 226.183 111.272C226.315 112.181 226.129 113.108 225.658 113.895Z" fill="#F9A826"/>
<path d="M174.41 135.593L177.104 109.514L177.815 98.7812L170.274 97.4176C170.274 97.4176 170.573 105.092 169.585 109.422C168.61 113.695 169.456 135.02 169.516 135.59C168.962 136.086 168.572 136.737 168.396 137.459C168.221 138.181 168.269 138.939 168.534 139.633C168.798 140.328 169.268 140.925 169.88 141.346C170.491 141.768 171.217 141.994 171.96 141.994C172.703 141.995 173.428 141.769 174.04 141.348C174.652 140.927 175.122 140.331 175.388 139.637C175.653 138.943 175.702 138.185 175.527 137.463C175.353 136.74 174.963 136.088 174.41 135.593Z" fill="#A0616A"/>
<path d="M183.39 96.098L181.289 100.593L180.556 102.158L178.581 112.498L177.596 113.545L176.746 116.925L176.347 116.843L169.152 115.352L167.054 114.919C166.582 114.132 166.396 113.205 166.527 112.296C166.659 111.387 167.101 110.551 167.777 109.93C167.921 109.8 168.04 109.674 168.037 109.555C167.917 102.363 168.357 89.2297 172.33 83.8244C173.592 82.109 174.349 80.4005 175.451 79.2069C175.454 79.2035 175.454 79.2001 175.457 79.2001L178.138 74.8111L178.302 74.5416L178.486 74.4496L183.39 96.098Z" fill="#F9A826"/>
<path d="M196.116 63.6193C201.571 63.6193 205.994 59.1967 205.994 53.7412C205.994 48.2857 201.571 43.8632 196.116 43.8632C190.66 43.8632 186.238 48.2857 186.238 53.7412C186.238 59.1967 190.66 63.6193 196.116 63.6193Z" fill="#A0616A"/>
<path d="M207.221 49.408C207.187 47.7233 206.996 45.568 205.816 43.8493C204.82 42.4033 202.811 41.2574 200.939 41.8304C200.96 41.456 200.877 41.0831 200.699 40.7532C200.52 40.4233 200.254 40.1492 199.93 39.9615C199.22 39.5284 198.368 39.45 197.614 39.3784C195.715 39.201 193.747 39.0169 191.823 39.3818C189.665 39.791 187.898 40.9028 186.981 42.434L186.96 42.4817L186.773 43.3889C186.748 43.5105 186.697 43.6253 186.623 43.7254C186.55 43.8255 186.455 43.9084 186.347 43.9686C186.238 44.0296 186.117 44.0659 185.992 44.0747C185.868 44.0836 185.743 44.0648 185.627 44.0198C185.5 43.972 185.362 43.9583 185.228 43.9801C185.094 44.0018 184.968 44.0581 184.862 44.1435C184.756 44.2289 184.674 44.3405 184.625 44.4671C184.576 44.5937 184.56 44.7311 184.58 44.8655L184.631 45.227L184.089 45.1247C183.953 45.0984 183.812 45.1088 183.681 45.155C183.551 45.2012 183.435 45.2814 183.345 45.3875C183.256 45.4935 183.197 45.6214 183.173 45.7581C183.15 45.8948 183.163 46.0352 183.212 46.1648L183.362 46.5775C183.25 46.579 183.14 46.603 183.037 46.6481C182.935 46.6932 182.842 46.7585 182.766 46.8401C182.656 46.959 182.587 47.1096 182.569 47.2701C182.551 47.4307 182.584 47.593 182.663 47.7336C183.271 48.771 184.132 49.637 185.167 50.2504C185.632 50.5305 186.133 50.7451 186.657 50.8881C186.766 50.9188 186.878 50.946 186.994 50.9699C191.181 51.8723 195.498 52.0017 199.732 51.3519C199.483 52.1871 199.387 53.0606 199.449 53.93C199.585 55.0179 200.223 55.9148 201.075 56.2149C201.269 56.2803 201.467 56.3282 201.669 56.3582C201.862 56.3895 202.053 56.4362 202.238 56.498C202.513 56.5985 202.756 56.7696 202.942 56.994C203.129 57.2185 203.254 57.4884 203.303 57.7763C203.352 58.0642 203.324 58.36 203.222 58.6338C203.12 58.9076 202.948 59.1496 202.723 59.3353C202.723 59.3353 203.616 60.0753 203.729 60.0378C204.168 59.8438 204.535 59.517 204.779 59.1034C206.481 56.6548 207.303 53.3946 207.221 49.408Z" fill="#2F2E41"/>
</g>
<defs>
<clipPath id="clip0_42_857">
<rect width="264" height="228.454" fill="white"/>
</clipPath>
</defs>
</svg>
