<svg width="379" height="194" viewBox="0 0 379 194" fill="none" xmlns="http://www.w3.org/2000/svg">
<g clip-path="url(#clip0_53_2)">
<path d="M362.178 107.102L360.99 116.556L358.044 140.037H298.85C299.312 134.774 299.944 127.199 300.619 119.021C300.685 118.204 300.755 117.383 300.822 116.556C302.515 95.9993 304.367 72.7375 304.367 72.7375L312.149 74.1873L327.248 76.9948L333.4 78.1383L349.876 81.2062C358.09 82.7324 363.741 94.6262 362.178 107.102Z" fill="#F2F2F2"/>
<path d="M317.402 34.698L324.681 47.4363L310.69 57.3516L304.722 41.6938L317.402 34.698Z" fill="#FFB6B6"/>
<path d="M308.135 46.7489C318.095 46.7489 326.169 38.675 326.169 28.7155C326.169 18.7559 318.095 10.6821 308.135 10.6821C298.176 10.6821 290.102 18.7559 290.102 28.7155C290.102 38.675 298.176 46.7489 308.135 46.7489Z" fill="#FFB6B6"/>
<path d="M306.84 32.7473C305.409 30.5681 305.971 29.4282 304.772 28.6273C304.772 28.6273 304.289 28.3051 300.837 28.1213C300.064 22.558 299.099 21.8833 299.099 21.8833C297.987 21.1057 296.337 21.3584 295.31 21.834C293.138 22.8398 293.39 25.0124 291.928 25.4282C289.908 26.0025 286.233 22.7647 285.871 19.0581C285.576 16.0346 287.524 13.098 288.297 13.2533C289.063 13.4074 290.897 11.0659 291.887 11.102C292.563 11.1266 295.327 9.92558 296.07 10.0195C296.882 10.122 299.559 11.5189 299.67 11.1997C300.445 8.98207 300.217 8.36676 300.875 7.73234C302.04 6.60814 303.947 7.391 306.938 7.81129C313.092 8.67603 314.166 6.64695 317.319 8.02227C318.912 8.71702 320.245 10.5907 322.846 14.3096C326.484 19.5105 328.303 22.111 328.314 25.1441C328.326 28.2372 326.828 28.0409 326.17 32.6201C325.438 37.7175 326.994 40.0483 325.294 41.7043C323.98 42.9843 321.31 43.2881 319.907 42.1648C317.504 40.2416 320.648 35.6009 317.99 32.2104C316.358 30.1291 313.076 29.2031 311.573 30.2319C309.873 31.3951 310.809 34.8094 309.614 35.1332C308.59 35.4104 307.09 33.1271 306.84 32.7473Z" fill="#2F2E41"/>
<path d="M348.848 103.772C348.345 112.373 346.347 115.088 345.648 125.245C345.495 127.475 345.403 130.063 345.403 133.15C345.403 133.937 345.407 134.698 345.407 135.441C345.407 137.024 345.377 138.519 345.193 140.037C345.053 141.248 344.813 142.468 344.415 143.753H305.575C305.571 143.744 305.571 143.736 305.566 143.727C305.339 142.739 305.195 141.794 305.086 140.889C305.051 140.601 305.02 140.316 304.994 140.037C304.959 139.709 304.928 139.385 304.898 139.066C304.779 137.794 304.662 136.591 304.381 135.441C304.006 133.854 303.323 132.359 301.924 130.916C301.352 130.326 300.779 129.867 300.219 129.464C300.11 129.39 300.005 129.316 299.896 129.241C298.348 128.179 296.883 127.414 295.615 125.245C295.593 125.214 295.576 125.179 295.558 125.149C295.34 124.768 294.771 123.771 294.36 122.442C293.927 121.061 293.665 119.325 294.137 117.55C295.261 113.343 299.423 112.924 302.825 108.674C303.192 108.215 303.555 107.707 303.901 107.143C305.44 104.642 305.855 102.439 306.345 99.8197C306.423 99.3955 306.493 98.9757 306.55 98.5693C306.594 98.2631 306.633 97.9614 306.664 97.664C306.935 95.1674 306.804 93.0163 306.485 91.0925C305.444 84.7919 302.375 80.8918 304.543 75.2382C305.226 73.4632 306.192 72.1296 307.167 70.9884C309.23 68.5704 311.351 67.0008 310.984 63.8791C310.612 60.7309 308.225 60.2979 307.958 57.5477C307.823 56.1574 308.277 54.6926 309.13 53.2541V53.2499C311.858 48.6194 318.671 44.3563 322.999 44.4919C323.799 44.5139 324.508 44.693 325.098 45.0385C327.236 46.2976 326.344 49.0479 329.619 52.9044C332.054 55.7682 334.809 56.9138 335.854 57.4559C339.994 59.616 343.361 65.9865 345.648 74.1321C345.665 74.1934 345.683 74.2545 345.7 74.3202C347.113 79.4227 348.11 85.2161 348.604 91.0925C348.813 93.5803 348.936 96.0814 348.962 98.556C348.984 100.532 348.94 102.246 348.848 103.772Z" fill="#F9A826"/>
<path d="M319.764 133.238L318.972 135.441L318.474 136.823L317.319 140.037L315.981 143.753H307.381L308.824 140.037L309.493 138.305L310.603 135.441L312.466 130.632L319.764 133.238Z" fill="#FFB6B6"/>
<path d="M345.784 73.3802C345.762 73.6646 345.731 73.9793 345.7 74.3204C345.36 77.792 344.555 84.0051 343.379 91.0927C342.758 94.831 342.032 98.8143 341.214 102.771C339.457 111.31 337.271 119.719 334.8 125.245C334.359 126.242 333.904 127.143 333.44 127.939C333.086 128.546 332.714 129.145 332.325 129.736C331.066 131.673 329.654 133.509 328.189 135.223C328.132 135.297 328.067 135.367 328.001 135.442C327.765 135.721 327.52 135.997 327.275 136.272C326.077 137.623 324.853 138.882 323.668 140.037C322.225 141.445 320.835 142.691 319.589 143.753H305.623L305.567 143.727L303.555 142.835C303.555 142.835 304.128 142.162 305.086 140.889C305.283 140.631 305.492 140.347 305.72 140.037C305.999 139.656 306.301 139.237 306.625 138.782C307.298 137.829 308.063 136.709 308.885 135.442C310.477 132.989 312.291 129.972 314.123 126.478C314.333 126.072 314.547 125.661 314.762 125.245C314.766 125.232 314.775 125.219 314.779 125.206C315.142 124.497 315.501 123.767 315.859 123.024C318.898 116.701 319.768 111.455 320.018 109.754C320.367 107.349 320.852 103.987 320.721 100.288C320.634 97.8481 320.28 95.2682 319.436 92.7061V92.7018C319.261 92.164 319.064 91.6262 318.841 91.0927C318.443 90.1352 317.971 89.1907 317.411 88.2594C314.941 84.1582 312.934 83.9876 311.338 79.519C310.866 78.1943 309.795 75.2036 310.122 72.0467V72.0424C310.162 71.6532 310.228 71.2598 310.315 70.8661V70.8618C310.337 70.7525 310.368 70.6389 310.398 70.5296C310.647 69.5633 311.058 68.6056 311.684 67.6961C312.903 65.9299 314.569 64.8803 316.06 64.2552L316.065 64.2508C317.787 63.5338 319.274 63.3808 319.563 63.3545C325.95 62.7862 330.904 68.1553 333.611 71.0892C334.656 72.2215 335.614 73.1705 336.488 73.9442C343.296 80.022 345.163 76.1392 345.648 74.1323C345.722 73.8219 345.762 73.5553 345.784 73.3802Z" fill="#F9A826"/>
<path d="M345.805 73.1531C345.805 73.1749 345.801 73.2491 345.783 73.3717C345.792 73.3059 345.797 73.2404 345.801 73.1791C345.801 73.1661 345.801 73.1573 345.805 73.1531Z" fill="#F9A826"/>
<path d="M311.08 165.414H76.6999C74.5223 165.414 72.7473 167.185 72.7473 169.362C72.7473 171.544 74.5223 173.315 76.6999 173.315H311.08C313.257 173.315 315.028 171.544 315.028 169.362C315.028 167.185 313.257 165.414 311.08 165.414Z" fill="#E6E6E6"/>
<path d="M259.067 185.824H128.709C126.532 185.824 124.761 187.595 124.761 189.772C124.761 191.95 126.532 193.725 128.709 193.725H259.067C261.244 193.725 263.019 191.95 263.019 189.772C263.019 187.595 261.244 185.824 259.067 185.824Z" fill="#E6E6E6"/>
<path d="M102.781 35.5363L117.552 29.3198L123.888 42.3081L108.365 48.6438L102.781 35.5363Z" fill="#FFB6B6"/>
<path opacity="0.1" d="M102.781 35.5363L117.552 29.3198L123.888 42.3081L108.365 48.6438L102.781 35.5363Z" fill="black"/>
<path d="M104.881 30.587L119.453 47.3767C119.453 47.3767 109.316 79.3722 99.1783 82.2233C89.0411 85.0744 70.3507 99.013 70.3507 99.013L46.9084 83.8072L58.3128 67.0175C58.3128 67.0175 85.8733 29.3198 93.1594 29.3198C100.445 29.3198 104.881 30.587 104.881 30.587Z" fill="#F9A826"/>
<path d="M85.1922 140.037H51.2706L49.126 137.17L40.37 125.465L38.3552 122.772C38.3552 122.772 30.7523 108.833 32.3362 96.162C33.9202 83.4905 50.3931 80.6394 50.3931 80.6394H51.071L71.2377 98.3605L70.0339 114.852L76.4203 125.465L85.1922 140.037Z" fill="#2F2E41"/>
<path d="M58.218 140.037H49.1262V126.573L58.218 140.037Z" fill="#2F2E41"/>
<path d="M254.316 119.598L253.185 125.465L250.378 140.037H193.993C194.433 136.771 195.035 132.07 195.678 126.995C195.742 126.488 195.808 125.978 195.871 125.465C197.484 112.707 199.248 98.2715 199.248 98.2715L206.661 99.1712L221.043 100.914L226.904 101.623L242.598 103.527C250.422 104.474 255.804 111.855 254.316 119.598Z" fill="#F2F2F2"/>
<path d="M334.111 140.037H303.528C303.994 139.489 304.257 139.172 304.257 139.172L313.425 137.658L332.315 134.541C332.315 134.541 333.176 136.768 334.111 140.037Z" fill="#2F2E41"/>
<path d="M204.388 41.8723L217.688 60.6813L194.488 61.3741L191.998 43.6981L204.388 41.8723Z" fill="#A0616A"/>
<path opacity="0.1" d="M204.388 41.8723L217.688 60.6813L194.488 61.3741L191.998 43.6981L204.388 41.8723Z" fill="black"/>
<path d="M138.799 80.8431C137.092 75.9202 133.169 72.8103 130.036 73.8969C126.903 74.9835 125.748 79.8544 127.456 84.7788C128.111 86.7553 129.23 88.5461 130.719 90.0014L138.213 110.769L147.883 107.044L139.469 86.9668C139.738 84.9013 139.508 82.8015 138.799 80.8431Z" fill="#A0616A"/>
<path d="M228.826 71.259L228.808 90.4278L227.024 97.508L223.356 112.071L220.685 125.464L218.696 135.443L217.986 139.007C217.451 139.365 216.919 139.707 216.386 140.037H170.05C167.417 138.456 165.944 137.227 165.944 137.227C165.944 137.227 166.673 136.543 167.506 135.443C168.913 133.587 170.614 130.546 169.572 127.641C169.353 127.033 169.296 126.291 169.362 125.464C169.787 120.009 175.508 110.785 175.508 110.785L174.323 97.093L173.804 91.0931L177.467 61.8376L189.407 54.8968L191.468 54.6974L211.815 53.5981L220.225 54.0828L220.608 54.1874L228.826 71.259Z" fill="#CCCCCC"/>
<path d="M229.73 140.037H219.592L219.146 135.444L219.136 135.352L222.006 135.155L229.473 134.645L229.603 137.395L229.704 139.505L229.73 140.037Z" fill="#FFB6B6"/>
<path d="M232.225 75.8937L236.484 100.879L233.008 125.465L232.467 129.291L231.51 136.048L231.215 138.127L231.225 138.351L231.298 140.037H219.26L218.816 135.443L218.778 135.032L217.872 125.623L217.856 125.465L215.934 105.513L219.703 91.0931L219.982 90.0319V90.0287L221.622 65.3383L220.352 54.1177L220.339 54.0132C220.365 54.029 220.387 54.0449 220.412 54.0607C220.479 54.1019 220.545 54.1431 220.609 54.1874C228.009 58.8822 232.418 67.1187 232.225 75.8937Z" fill="#CCCCCC"/>
<path d="M181.779 66.6254L177.15 61.8374C177.15 61.8374 167.241 66.3049 166.747 68.7834C166.253 71.2619 148.756 107.665 148.756 107.665L141.144 87.3339L131.235 93.9494C131.235 93.9494 139.186 125.514 146.621 126.996C154.057 128.478 178.977 89.6361 178.977 89.6361L181.779 66.6254Z" fill="#CCCCCC"/>
<path d="M369.744 125.245H9.25197C4.14947 125.245 0 129.399 0 134.501C0 139.604 4.14946 143.753 9.25197 143.753H369.744C374.846 143.753 379 139.604 379 134.501C379 129.399 374.846 125.245 369.744 125.245Z" fill="#E6E6E6"/>
<path d="M226.716 97.04L226.015 129.746C225.948 132.912 223.362 135.443 220.195 135.443H160.03C156.938 135.443 154.386 133.027 154.217 129.939L152.429 97.233C152.246 93.8977 154.902 91.0933 158.242 91.0933H220.896C224.16 91.0933 226.786 93.7765 226.716 97.04Z" fill="#3F3D56"/>
<path d="M129.59 43.4312C137.54 43.4312 143.984 36.9866 143.984 29.0367C143.984 21.0868 137.54 14.6421 129.59 14.6421C121.64 14.6421 115.195 21.0868 115.195 29.0367C115.195 36.9866 121.64 43.4312 129.59 43.4312Z" fill="#FFB6B6"/>
<path d="M105.514 66.7006L107.098 83.8071L117.869 127.207L108.564 130.468L92.8428 83.1735L90.6714 64.1663L105.514 66.7006Z" fill="#FFB6B6"/>
<path d="M101.229 97.04L100.529 129.746C100.461 132.912 97.8747 135.443 94.7079 135.443H34.5432C31.4513 135.443 28.8987 133.027 28.73 129.939L26.942 97.233C26.7596 93.8977 29.415 91.0933 32.7553 91.0933H95.4088C98.673 91.0933 101.299 93.7765 101.229 97.04Z" fill="#3F3D56"/>
<path d="M119.584 135.664C125.862 135.664 130.952 133.413 130.952 130.636C130.952 127.859 125.862 125.608 119.584 125.608C113.306 125.608 108.216 127.859 108.216 130.636C108.216 133.413 113.306 135.664 119.584 135.664Z" fill="#FFB6B6"/>
<path d="M83.1804 69.3158L89.6746 34.7049C89.6746 34.7049 107.731 32.1706 108.365 38.1896C108.999 44.2085 107.912 73.624 107.912 73.624L83.1804 69.3158Z" fill="#F9A826"/>
<path d="M123.779 31.2998C123.779 31.2998 132.683 28.1218 136.44 26.4119C140.196 24.702 147.658 36.6285 147.824 30.3297C147.99 24.0309 145.411 21.3895 145.411 21.3895C145.411 21.3895 144.767 7.60998 130.885 9.33275C130.885 9.33275 133.938 2.43871 123.915 1.37267C113.892 0.306635 98.2977 24.5116 99.6942 28.1289C101.091 31.7462 102.765 34.7368 98.8027 38.6045C94.8406 42.4722 87.4214 64.3004 93.0662 70.1742C98.7111 76.0481 99.0815 78.597 95.2139 82.2512C91.3463 85.9055 82.2043 93.8512 92.0889 95.2306C101.973 96.61 91.1845 95.5798 98.5537 89.0978C105.923 82.6159 116.676 82.8806 112.661 72.4809C108.646 62.0812 115.621 47.1784 114.749 44.9176C113.876 42.6568 116.704 28.3005 116.704 28.3005C116.704 28.3005 123.287 27.3334 123.779 31.2998Z" fill="#2F2E41"/>
<path d="M197.277 48.6801C205.931 48.6801 212.946 41.6646 212.946 33.0106C212.946 24.3566 205.931 17.3411 197.277 17.3411C188.623 17.3411 181.607 24.3566 181.607 33.0106C181.607 41.6646 188.623 48.6801 197.277 48.6801Z" fill="#A0616A"/>
<path d="M198.527 11.9441C198.074 12.2088 197.466 11.8084 197.321 11.3039C197.176 10.7994 197.345 10.2638 197.513 9.76636L198.358 7.26225C198.958 5.48627 199.594 3.64824 200.893 2.29649C202.853 0.256243 205.968 -0.262786 208.772 0.113232C212.373 0.596115 215.926 2.54603 217.601 5.77047C219.275 8.99492 218.562 13.4942 215.537 15.5059C219.849 20.4481 221.352 25.9561 221.114 32.5107C220.877 39.0652 213.734 45.0976 209.076 49.715C208.036 49.0844 207.09 46.1293 207.662 45.0557C208.234 43.9822 207.415 42.7384 208.123 41.7496C208.831 40.7607 209.424 42.3353 208.708 41.352C208.256 40.7316 210.02 39.3042 209.348 38.9329C206.099 37.1368 205.018 33.0866 202.977 29.985C200.516 26.244 196.303 23.7105 191.844 23.2902C189.388 23.0587 186.794 23.478 184.781 24.9039C182.768 26.3297 181.464 28.8777 181.931 31.3001C180.722 30.0725 180.121 28.2735 180.348 26.5656C180.574 24.8576 181.625 23.2783 183.113 22.4091C182.208 19.4178 182.983 15.9769 185.083 13.6621C187.182 11.3473 195.699 11.7416 198.764 12.3508L198.527 11.9441Z" fill="#2F2E41"/>
<path d="M199.003 23.3811C203.063 23.8193 205.994 27.3359 208.469 30.5835C209.896 32.4553 211.39 34.5224 211.354 36.8756C211.318 39.2548 209.727 41.2955 208.967 43.5502C207.725 47.2356 208.936 51.6204 211.894 54.1457C208.971 54.7003 205.811 52.5088 205.307 49.5769C204.719 46.1638 207.306 42.8697 207 39.42C206.73 36.3808 204.335 34.0418 202.299 31.7694C200.263 29.497 198.351 26.4816 199.287 23.5777L199.003 23.3811Z" fill="#2F2E41"/>
<path d="M259.695 127.226C255.674 129.513 253.594 133.441 255.05 136C256.506 138.559 260.946 138.779 264.968 136.49C266.587 135.598 267.969 134.331 268.998 132.795L285.914 122.89L281.096 115.051L264.932 125.648C263.085 125.748 261.289 126.289 259.695 127.226Z" fill="#FFB6B6"/>
<path d="M316.967 54.5847C316.461 54.3844 312.026 52.7047 307.977 54.9224C303.325 57.4698 302.607 63.2851 302.355 65.3248C301.773 70.0364 303.488 71.0925 303.85 75.8624C304.527 84.7865 306.313 74.6059 303.461 78.6793C302.474 80.0893 292.391 101.939 286.831 106.219C276.016 114.543 269.149 120.405 269.149 120.405L276.989 128.921C276.989 128.921 289.377 125.62 300.327 118.511C311.559 111.217 317.175 107.571 321.519 100.437C321.894 99.8231 330.846 84.62 326.038 67.8089C324.942 63.9744 322.932 56.9487 316.967 54.5847Z" fill="#F9A826"/>
<path d="M357.45 97.04L356.749 129.746C356.681 132.912 354.095 135.443 350.928 135.443H290.763C287.672 135.443 285.119 133.027 284.95 129.939L283.162 97.233C282.98 93.8977 285.635 91.0933 288.975 91.0933H351.629C354.893 91.0933 357.52 93.7765 357.45 97.04Z" fill="#3F3D56"/>
</g>
<defs>
<clipPath id="clip0_53_2">
<rect width="379" height="193.725" fill="white"/>
</clipPath>
</defs>
</svg>
