<svg width="295" height="196" viewBox="0 0 295 196" fill="none" xmlns="http://www.w3.org/2000/svg">
<g clip-path="url(#clip0_55_253)">
<path d="M275.951 185.955L272.644 188.105L262.777 176.373L267.657 173.2L275.951 185.955Z" fill="#A0616A"/>
<path d="M278.31 189.328L268.141 195.94L268.058 195.812C267.375 194.762 267.138 193.484 267.397 192.259C267.657 191.034 268.392 189.963 269.442 189.28L270.383 186.663L274.765 185.819L275.653 185.242L278.31 189.328Z" fill="#2F2E41"/>
<path d="M219.281 191.589L215.337 191.588L213.461 176.374L219.282 176.375L219.281 191.589Z" fill="#A0616A"/>
<path d="M219.42 195.703L207.291 195.703V195.549C207.291 194.297 207.788 193.096 208.674 192.211C209.559 191.326 210.76 190.828 212.012 190.828L214.228 189.147L218.361 190.829H219.42L219.42 195.703Z" fill="#2F2E41"/>
<path d="M260.108 98.5238L224.738 99.3015L221.232 103.684C221.232 103.684 221.536 102.139 221.266 103.836C220.996 105.533 214.172 139.369 215.462 140.504C216.752 141.639 213.016 149.474 212.742 149.952C212.468 150.43 209.51 174.014 212.742 175.954L213.956 184.186H219.604C219.604 184.186 225.263 177.638 224.124 176.451C222.985 175.264 226.242 171.316 226.367 169.2C226.491 167.083 227.68 157.483 226.759 155.943C225.838 154.404 224.592 148.627 226.93 146.388C229.267 144.148 240.168 116.628 240.168 116.628C240.168 116.628 243.335 148.891 243.328 151.425C243.318 154.719 245.482 153.089 245.482 155.981C245.482 156.565 252.526 171.584 257.261 176.278L267.052 183.809L271.57 180.42V175.525C271.57 175.525 267.383 166.442 265.922 164.981C264.461 163.52 259.067 159.049 259.067 157.003C259.067 154.958 256.528 154.246 258.236 151.534C259.944 148.823 259.359 147.654 258.775 146.486C258.191 145.317 259.299 97.4342 259.299 97.4342L260.108 98.5238Z" fill="#2F2E41"/>
<path d="M245.36 27.5241C251.263 27.5241 256.048 22.7389 256.048 16.836C256.048 10.9332 251.263 6.14795 245.36 6.14795C239.457 6.14795 234.672 10.9332 234.672 16.836C234.672 22.7389 239.457 27.5241 245.36 27.5241Z" fill="#A0616A"/>
<path d="M253.898 102.609L256.907 93.5521L262.32 94.549L258.799 104.011C259.013 104.565 259.068 105.168 258.958 105.753C258.848 106.337 258.578 106.878 258.177 107.317C257.776 107.756 257.261 108.074 256.689 108.236C256.117 108.398 255.511 108.397 254.94 108.233C254.368 108.07 253.854 107.75 253.454 107.31C253.055 106.87 252.786 106.328 252.677 105.743C252.569 105.159 252.626 104.556 252.842 104.002C253.058 103.449 253.423 102.966 253.898 102.609Z" fill="#A0616A"/>
<path d="M191.502 85.1064L198.874 79.0457L202.924 82.7737L194.902 88.9042C194.788 89.4874 194.513 90.0272 194.109 90.4629C193.705 90.8986 193.187 91.2129 192.614 91.3704C192.041 91.528 191.435 91.5226 190.865 91.3549C190.295 91.1871 189.783 90.8637 189.387 90.4209C188.99 89.9781 188.725 89.4335 188.621 88.8483C188.518 88.2632 188.579 87.6606 188.799 87.1085C189.019 86.5563 189.388 86.0764 189.866 85.7228C190.343 85.3691 190.91 85.1556 191.502 85.1064Z" fill="#A0616A"/>
<path d="M232.562 14.9661C233.715 15.3239 234.826 15.5348 235.575 14.5896C236.324 13.6444 236.129 12.5636 237.243 12.108C238.175 11.7954 239.191 11.8424 240.09 12.2398C240.252 12.3 240.41 12.3678 240.565 12.4356C240.651 12.3603 240.738 12.2887 240.832 12.2209C241.54 11.7171 242.415 11.5042 243.276 11.626C242.647 11.9299 242.129 12.4239 241.796 13.0381C242.105 13.1925 242.417 13.3469 242.734 13.4787C244.063 14.0224 245.501 14.2491 246.933 14.1406C248.365 14.0321 249.752 13.5914 250.984 12.8536C249.749 16.1071 250.709 17.2669 252.521 20.238L252.592 20.4113C252.411 19.6318 254.78 18.7318 254.78 19.8615C254.676 21.0189 254.423 22.158 254.027 23.2506C256.35 19.7523 257.721 15.659 256.821 11.7314C256.629 10.9067 256.542 10.0218 256.019 9.3515C255.495 8.685 254.531 8.29336 253.771 8.66992C253.676 7.3928 253.238 6.1651 252.502 5.11734C251.765 4.06958 250.759 3.24092 249.589 2.71946C248.42 2.198 247.131 2.00323 245.859 2.15586C244.588 2.30849 243.381 2.80281 242.368 3.58627C241.427 4.31305 240.685 5.26577 239.845 6.11304C239.006 6.96034 238.011 7.73227 236.837 7.94315C236.091 8.07496 235.251 7.99587 234.656 8.4666C233.967 9.01262 233.96 9.97286 233.963 10.8955C234.638 10.8762 235.302 11.0584 235.873 11.4189C235.175 11.4364 234.5 11.6736 233.945 12.0967C233.934 12.1033 233.924 12.1109 233.914 12.1193C233.711 13.6708 233.794 13.9984 232.562 14.9661Z" fill="#2F2E41"/>
<path d="M270.167 49.9994C269.918 48.8072 269.426 47.6792 268.721 46.6862C268.016 45.6931 267.113 44.8563 266.07 44.2282C265.992 43.8293 265.853 43.5741 265.641 43.4986C262.603 42.4186 254.122 37.4294 254.122 37.4294L253.411 31.7242L238.065 30.9868L234.138 37.4294C234.138 37.4294 223.966 38.4519 224.154 42.1757C221.691 45.2485 210.724 58.9784 204.152 68.0582C201.01 72.3978 198.871 75.6764 199.146 76.2193C200.071 78.0476 198.771 76.814 197.317 77.1444C195.864 77.4747 196.569 78.3338 196.602 79.6004C196.634 80.8669 191.634 83.532 191.634 83.532C194.685 84.6224 198.507 89.1051 198.507 89.1051C198.507 89.1051 202.207 85.2064 202.879 84.7989C203.551 84.3914 203.925 83.7967 206.051 83.0589C208.177 82.321 207.284 81.7593 207.439 80.1954C207.593 78.6315 208.111 79.7879 211.095 78.3453C214.08 76.9026 211.657 77.4532 212.483 75.4818C213.309 73.5104 213.045 74.5897 215.732 72.9598C217.347 71.9801 218.952 70.5414 221.184 68.0582C222.666 66.4101 224.424 64.3028 226.647 61.5612C226.662 61.5426 226.676 61.5232 226.691 61.5046C226.841 63.727 226.956 65.9502 227.024 68.0582C227.218 74.0476 227.033 79.0979 226.161 80.4887C224.938 82.4408 222.866 88.9735 221.182 94.7093C220.856 95.8216 220.799 96.9954 221.015 98.1343C221.23 99.2732 221.713 100.345 222.423 101.261C223.133 102.177 224.05 102.912 225.099 103.405C226.148 103.898 227.299 104.135 228.457 104.097C238.903 103.753 254.188 102.956 257.167 101.208C258.787 101.439 260.388 101.791 261.956 102.261C261.956 102.261 263.01 96.9896 263.362 96.2868C263.713 95.584 263.713 94.8812 265.119 93.1242C266.524 91.3672 265.47 91.3672 264.767 89.9616C264.064 88.5561 265.119 89.2589 266.876 86.4477C268.633 83.6365 266.876 85.3935 266.524 83.2851C266.173 81.1767 266.524 82.2309 267.93 79.4197C269.094 77.0904 269.777 74.0341 270.576 68.0582C270.741 66.822 270.912 65.4639 271.092 63.9582C271.689 58.9841 270.934 53.672 270.167 49.9994Z" fill="#F9A826"/>
<path d="M102.291 187.466C102.057 187.477 101.825 187.415 101.627 187.29C101.429 187.165 101.274 186.981 101.183 186.765C101.093 186.549 101.071 186.31 101.121 186.081C101.171 185.851 101.29 185.643 101.462 185.484L101.541 185.172C101.53 185.148 101.52 185.123 101.509 185.098C101.273 184.54 100.878 184.065 100.373 183.732C99.8677 183.398 99.2752 183.222 98.6699 183.224C98.0647 183.226 97.4736 183.407 96.9709 183.744C96.4682 184.081 96.0763 184.56 95.8445 185.119C94.918 187.35 93.7383 189.586 93.4479 191.945C93.3199 192.988 93.3739 194.045 93.6073 195.07C91.4312 190.323 90.3012 185.163 90.2939 179.941C90.2934 178.631 90.3662 177.321 90.512 176.019C90.6324 174.951 90.7995 173.891 91.0132 172.839C92.1796 167.129 94.6839 161.777 98.3204 157.222C100.08 156.262 101.504 154.785 102.399 152.991C102.723 152.346 102.952 151.657 103.079 150.947C102.88 150.973 102.33 147.949 102.48 147.764C102.203 147.344 101.708 147.135 101.406 146.725C99.9031 144.688 97.8325 145.043 96.7515 147.812C94.4424 148.978 94.42 150.911 95.8369 152.77C96.7384 153.952 96.8622 155.552 97.6532 156.819C97.5718 156.923 97.4871 157.024 97.4058 157.128C95.9183 159.041 94.6218 161.094 93.535 163.26C93.7993 160.834 93.4838 158.38 92.6146 156.099C91.7336 153.974 90.0823 152.184 88.6282 150.347C86.8816 148.14 83.2999 149.103 82.9922 151.901C82.9892 151.928 82.9863 151.955 82.9835 151.982C83.1994 152.104 83.4109 152.233 83.6177 152.37C83.8776 152.543 84.079 152.792 84.1955 153.082C84.3119 153.372 84.3381 153.69 84.2705 153.995C84.2029 154.3 84.0447 154.578 83.8166 154.792C83.5885 155.005 83.3012 155.145 82.9923 155.193L82.9607 155.198C83.0376 155.976 83.1736 156.748 83.3675 157.505C81.5021 164.72 85.5295 167.347 91.2801 167.465C91.407 167.53 91.5307 167.595 91.6577 167.657C90.5658 170.752 89.8808 173.975 89.6201 177.246C89.4725 179.176 89.4813 181.115 89.6462 183.043L89.6364 182.975C89.2197 180.83 88.0758 178.895 86.3978 177.497C83.9055 175.449 80.3844 174.696 77.6957 173.05C77.41 172.866 77.0777 172.768 76.7381 172.768C76.3986 172.767 76.0658 172.863 75.7792 173.045C75.4926 173.227 75.264 173.488 75.1204 173.795C74.9768 174.103 74.9242 174.445 74.9688 174.782C74.9724 174.806 74.9761 174.83 74.9798 174.854C75.3806 175.017 75.7708 175.205 76.1483 175.417C76.3643 175.539 76.5757 175.668 76.7825 175.805C77.0424 175.978 77.2438 176.227 77.3603 176.517C77.4767 176.807 77.5029 177.125 77.4353 177.43C77.3677 177.735 77.2095 178.013 76.9814 178.227C76.7533 178.44 76.466 178.58 76.1571 178.628L76.1255 178.633C76.1027 178.636 76.0831 178.639 76.0604 178.642C76.7452 180.278 77.7064 181.783 78.9019 183.092C80.0683 189.39 85.0782 189.987 90.4371 188.153H90.4404C91.0284 190.708 91.8803 193.195 92.9824 195.574H102.063C102.096 195.473 102.125 195.369 102.155 195.268C101.314 195.321 100.47 195.271 99.6418 195.119C100.316 194.292 100.989 193.459 101.663 192.632C101.678 192.616 101.692 192.6 101.705 192.583C102.047 192.16 102.392 191.74 102.734 191.317L102.734 191.316C102.752 190.019 102.603 188.725 102.291 187.466Z" fill="#F2F2F2"/>
<path d="M32.4424 173.731L34.948 176.379L46.5824 167.76L42.8845 163.851L32.4424 173.731Z" fill="#C78F8F"/>
<path d="M36.5484 175.196L33.7118 172.531L33.0153 171.878L25.7937 177.652L27.6723 179.638L29.8834 178.219L28.8676 180.901L33.8482 186.165C34.0869 186.418 34.4 186.587 34.7418 186.649C35.0836 186.711 35.4364 186.662 35.7484 186.51C36.0605 186.357 36.3156 186.109 36.4765 185.801C36.6375 185.493 36.6958 185.141 36.6429 184.798L35.568 177.844L37.4622 176.053L36.5484 175.196Z" fill="#2F2E41"/>
<path d="M87.5094 77.31L86.715 85.9825C86.715 85.9825 85.3283 92.5165 86.2885 91.9869C87.2486 91.4573 85.5271 93.8409 85.9805 95.9079C86.4339 97.9749 82.1078 113.389 84.0672 111.792C86.0266 110.196 82.9348 121.227 80.9794 126.669C80.3807 128.351 79.7655 130.054 79.1463 131.744C79.0242 132.087 78.9019 132.425 78.7758 132.767C77.9732 134.967 77.1706 137.134 76.4009 139.179C76.2909 139.464 76.1848 139.749 76.079 140.03C76.0749 140.038 76.0749 140.046 76.0709 140.046C73.5371 146.715 71.3659 151.961 70.4982 152.829C70.0461 153.281 62.8727 158.463 55.6422 163.652C48.0532 169.099 40.403 174.557 40.403 174.557L33.2581 167.062C33.2581 167.062 33.4291 167.013 33.751 166.915C34.3457 166.744 35.4456 166.422 36.8876 165.995C42.9001 164.223 35.2622 161.465 40.7209 159.493C42.2606 158.939 43.2871 158.508 43.5193 158.279C44.8758 156.956 46.6967 153.799 47.5562 155.122C48.4157 156.446 52.3141 146.609 53.4383 145.635C54.0412 145.11 56.0088 142.654 57.6953 140.494C59.1453 138.637 60.3918 136.995 60.3918 136.995C60.3918 136.995 60.4163 136.115 60.4529 134.714C60.506 132.641 60.5833 129.419 60.6649 126.192C60.6607 126.188 60.6607 126.188 60.6649 126.188C60.6933 124.974 60.7218 123.76 60.7504 122.607C60.7707 121.715 60.791 120.856 60.8115 120.062C60.8644 117.683 60.901 115.882 60.901 115.434C60.901 113.964 60.901 115.108 62.062 114.22C62.2354 114.084 62.4 113.937 62.5549 113.78C62.8031 113.557 63.0321 113.313 63.2393 113.051C63.3249 112.868 62.7912 113.116 62.0986 112.978C61.7236 112.903 61.3767 112.725 61.0965 112.464C59.6382 111.153 61.2107 107.12 61.2107 107.12C57.8948 100.488 58.1353 95.0501 59.6871 90.8584C60.8476 87.8505 62.6895 85.1525 65.0682 82.9763C65.9736 82.1136 66.9599 81.34 68.0136 80.6665L68.1154 80.1167L69.2356 74.0511C69.8313 73.7239 70.4509 73.442 71.089 73.208C73.0787 72.4941 75.2137 72.2814 77.3051 72.5888C79.3837 72.8896 81.3962 73.5411 83.2567 74.5156C84.7774 75.2796 86.2045 76.2173 87.5094 77.31Z" fill="#2F2E41"/>
<path d="M56.2229 187.243L59.8528 187.581L62.9116 173.428L57.5537 172.929L56.2229 187.243Z" fill="#C78F8F"/>
<path d="M66.6772 192.79L61.2838 188.273L61.5282 185.674L60.2737 185.633L56.3876 185.507H56.3834L55.4303 185.474L53.813 194.575L56.5382 194.827L57.2592 192.302L58.2654 194.99L59.7074 195.125L65.4796 195.662C65.5285 195.666 65.5815 195.671 65.6304 195.671C65.8599 195.671 66.0868 195.622 66.2961 195.528C66.5053 195.434 66.6922 195.297 66.8443 195.125C67.0806 194.866 67.2251 194.537 67.2556 194.188C67.2795 193.925 67.2393 193.661 67.1386 193.418C67.0378 193.174 66.8795 192.959 66.6772 192.79Z" fill="#2F2E41"/>
<path d="M76.4006 139.179C75.0197 146.694 69.1741 164.316 65.6384 174.631C64.0293 179.344 62.9051 182.533 62.9051 182.533L61.072 181.955H61.0678L57.9679 180.977L56.8395 180.619H56.8354L55.4667 180.183C55.4667 180.183 55.6256 171.767 55.6419 163.653C55.6541 160.251 55.6378 156.899 55.5727 154.243C55.4993 151.346 55.373 149.273 55.1654 148.862C54.3057 147.175 55.7438 146.996 57.2632 146.572C58.7866 146.145 57.5972 145.501 57.0064 144.132C56.6074 143.22 57.3935 142.002 57.9516 141.309C58.1056 141.114 58.2701 140.928 58.4445 140.751C58.4445 140.751 58.1756 140.657 57.695 140.494C59.145 138.637 60.3916 136.995 60.3916 136.995C60.3916 136.995 60.416 136.115 60.4526 134.714C60.5057 132.641 60.5831 129.419 60.6646 126.192C60.6605 126.188 60.6605 126.188 60.6646 126.188C60.6931 124.974 60.7215 123.76 60.7502 122.608C63.0801 124.396 65.3451 126.148 67.3981 127.769C67.4006 127.771 67.4027 127.773 67.4041 127.776C67.4055 127.779 67.4062 127.782 67.4063 127.785C72.3393 131.683 76.0422 134.812 76.5636 135.806C76.7999 136.254 76.7183 137.452 76.4006 139.179Z" fill="#2F2E41"/>
<path d="M293.999 195.939H0.407353C0.299316 195.939 0.195704 195.896 0.119311 195.819C0.0429171 195.743 0 195.639 0 195.531C0 195.423 0.0429171 195.32 0.119311 195.243C0.195704 195.167 0.299316 195.124 0.407353 195.124H293.999C294.107 195.124 294.211 195.167 294.287 195.243C294.363 195.32 294.406 195.423 294.406 195.531C294.406 195.639 294.363 195.743 294.287 195.819C294.211 195.896 294.107 195.939 293.999 195.939Z" fill="#E6E6E6"/>
<path d="M67.1787 62.65L67.9421 69.7306L67.4932 79.0154L88.0584 76.5721L89.9905 62.65L87.5284 62.6745L67.1787 62.65Z" fill="#FFB6B6"/>
<path d="M84.6716 39.7804L76.9319 33.6701L72.8691 33.4338L66.8405 37.2959L65.3644 44.8267L61.8732 53.3071L66.9938 76.1929C66.9938 76.1929 67.474 77.8352 66.2155 78.0324C64.957 78.2297 65.1079 80.6504 65.1079 80.6504C65.1079 80.6504 65.3642 82.7484 64.1421 82.9332C62.9201 83.1179 59.6614 83.1179 62.5129 86.7841C65.3644 90.4503 87.9178 76.5842 87.9178 76.5842L91.1935 59.3962C91.1935 59.3962 97.5462 50.8637 90.7048 45.977L84.6716 39.7804Z" fill="#F9A826"/>
<path d="M50.8841 91.7418C50.543 91.3162 50.2995 90.8211 50.1705 90.2912C50.0415 89.7613 50.0303 89.2096 50.1376 88.6749C50.245 88.1403 50.4682 87.6356 50.7917 87.1965C51.1151 86.7575 51.5309 86.3947 52.0098 86.1337L61.7451 53.462L67.8325 56.5268L57.2305 87.8422C57.6157 88.6757 57.6817 89.6215 57.4161 90.5004C57.1505 91.3793 56.5717 92.1302 55.7894 92.6109C55.0071 93.0916 54.0757 93.2686 53.1716 93.1084C52.2675 92.9482 51.4536 92.462 50.8841 91.7418Z" fill="#C78F8F"/>
<path d="M68.2385 36.9936C68.2385 36.9936 66.4984 36.0688 65.3081 40.0708C64.3552 43.2747 56.6231 62.3583 56.5245 66.998C55.8881 67.1329 55.3148 67.4756 54.8947 67.9722C54.4746 68.4688 54.2316 69.091 54.2041 69.7409L63.7642 71.022C65.4347 69.613 65.873 67.71 65.2266 67.1452L67.3023 61.476L75.962 43.4386L69.5083 37.6398L68.2385 36.9936Z" fill="#F9A826"/>
<path d="M119.321 81.0025C119.444 80.4714 119.45 79.9196 119.337 79.386C119.224 78.8525 118.996 78.3502 118.668 77.9145C118.34 77.4788 117.92 77.1203 117.439 76.8643C116.957 76.6083 116.425 76.461 115.881 76.4327L93.5482 50.927L88.8108 56.5798L111.912 80.2309C111.925 81.149 112.275 82.0304 112.894 82.708C113.514 83.3856 114.361 83.8124 115.274 83.9075C116.187 84.0026 117.104 83.7594 117.849 83.224C118.595 82.6886 119.119 81.8982 119.321 81.0025Z" fill="#C78F8F"/>
<path d="M79.9979 39.1431C79.9979 39.1431 81.167 37.5567 83.9708 40.6504C86.2155 43.1271 101.44 56.9904 103.535 61.1312C104.167 60.9776 104.832 61.0387 105.426 61.3048C106.02 61.5709 106.508 62.0269 106.814 62.601L98.7476 67.8903C96.632 67.3423 95.4139 65.8159 95.7524 65.0271L91.4293 60.8131L75.821 48.2943L79.1325 40.2748L79.9979 39.1431Z" fill="#F9A826"/>
<path d="M187.537 92.5168C186.893 92.2941 186.36 91.8286 186.054 91.2195C185.747 90.6103 185.69 89.9055 185.895 89.255C185.939 89.1234 185.994 88.9957 186.058 88.8732L179.89 82.1359L182.208 77.8033L189.659 87.946C190.147 88.2542 190.518 88.715 190.716 89.2567C190.914 89.7983 190.927 90.3902 190.754 90.94C190.652 91.2519 190.489 91.5407 190.276 91.7898C190.062 92.039 189.802 92.2436 189.509 92.3921C189.216 92.5406 188.897 92.63 188.57 92.6552C188.243 92.6804 187.914 92.6409 187.602 92.539C187.581 92.5319 187.559 92.5245 187.537 92.5168Z" fill="#FFB6B6"/>
<path d="M147.994 41.3439C147.79 42.2952 147.768 43.2766 147.93 44.236C147.973 44.5074 148.031 44.7761 148.106 45.0406C148.382 46.029 148.645 46.9398 148.898 47.7615C149.047 48.2719 149.2 48.7529 149.346 49.1993C150.19 51.8054 150.849 53.2808 151.317 53.5914C151.543 53.7432 151.771 53.8823 151.991 54.0181C153.122 54.7099 153.941 55.2114 153.393 56.4882C153.314 56.6706 153.219 56.8461 153.111 57.013C152.929 57.2935 152.728 57.5611 152.51 57.814C152.386 57.9571 152.271 58.1082 152.166 58.2663C152.03 58.4683 151.97 58.6384 152.044 58.7925C152.137 58.982 152.394 59.0763 152.945 59.1029C153.033 59.1068 153.133 59.1122 153.241 59.1119C153.276 59.1141 153.312 59.1127 153.352 59.113C153.423 59.114 153.504 59.1146 153.585 59.1115C154.267 59.0985 155.146 59.4573 156.087 60.005C158.865 61.6228 162.138 64.8791 162.178 64.9196L182.614 85.8162L183.013 85.5495L183.958 84.9141L184.286 84.6957L184.659 84.4447L186.284 83.3569L187.106 82.8081L181.834 73.13L181.26 72.0779L180.768 71.1702L170.705 52.6893L166.708 46.3358L165.816 44.9202L162.015 38.8837C161.478 38.0295 160.778 37.2895 159.956 36.7057C159.133 36.122 158.203 35.706 157.22 35.4816C156.236 35.2572 155.218 35.2286 154.224 35.3976C153.229 35.5667 152.278 35.9299 151.423 36.4666C151.366 36.5028 151.309 36.5398 151.252 36.5775C149.589 37.6837 148.421 39.3927 147.994 41.3439Z" fill="#F9A826"/>
<path d="M149.35 187.373L145.606 187.341L143.949 172.562L149.475 172.609L149.35 187.373Z" fill="#FFB6B6"/>
<path d="M150.343 185.645L149.366 185.58L145.378 185.307L144.094 185.222L144.07 187.898L138.09 191.955C137.795 192.156 137.571 192.446 137.452 192.782C137.333 193.119 137.325 193.485 137.429 193.827C137.533 194.168 137.743 194.468 138.029 194.682C138.315 194.895 138.662 195.012 139.019 195.015L146.461 195.076L147.765 192.436L148.241 195.092L151.052 195.116L150.343 185.645Z" fill="#2F2E41"/>
<path d="M188.77 184.637L185.192 185.737L179.151 172.149L184.433 170.525L188.77 184.637Z" fill="#FFB6B6"/>
<path d="M189.197 182.692L188.243 182.924L184.362 183.865L183.111 184.171L183.897 186.733L179.42 192.404C179.199 192.684 179.073 193.027 179.061 193.384C179.049 193.741 179.151 194.092 179.352 194.387C179.554 194.681 179.844 194.904 180.181 195.022C180.518 195.14 180.884 195.148 181.225 195.043L188.341 192.856L188.785 189.943L190.044 192.33L192.729 191.503L189.197 182.692Z" fill="#2F2E41"/>
<path d="M141.819 63.108L134.674 83.8724L134.438 85.534C132.638 87.2434 134.9 87.8065 134.052 88.2573C133.204 88.7081 132.633 89.9718 133.776 90.1976C134.919 90.4234 138.603 171.413 143.463 174.557C148.323 177.702 151.281 179.977 150.388 175.372C150.029 173.517 150.537 163.57 151.273 152.353C151.356 151.082 152.674 149.737 151.531 148.501C150.388 147.265 151.672 146.451 151.744 145.426C152.769 130.779 153.952 116.318 153.952 116.318C153.952 116.318 161.527 142.33 163.493 140.317C165.46 138.303 164.682 143.261 165.283 144.742C165.785 145.98 163.642 148.412 166.792 148.45C169.941 148.487 177.338 173.771 178.088 173.743C179.575 173.686 183.754 173.846 186.235 173.335C187.461 173.083 182.021 153.94 177.479 137.41C177.117 136.091 175.145 136.061 176.413 133.516C177.681 130.971 171.372 114.503 171.914 113.741C173.351 111.72 173.898 110.841 172.481 110.709C171.064 110.576 170.645 111.353 170.568 109.392C170.492 107.431 170.247 102.596 170.247 102.596C170.247 102.596 169.221 83.4711 162.033 72.9049L161.42 66.6268L141.819 63.108Z" fill="#2F2E41"/>
<path d="M159.67 23.4637L150.194 24.8129L149.623 31.6739L144.947 38.988C144.947 38.988 134.554 46.3021 141.802 57.8559C139.044 67.8088 136.301 77.354 133.687 83.7177C131.65 96.3456 149.897 97.5559 170.756 93.0868C170.756 93.0868 170.468 87.6873 168.575 85.0914C166.682 82.4956 167.713 81.9289 167.713 81.9289L166.39 77.0793C167.139 70.0694 164.611 69.4402 163.423 66.2015L167.03 32.5971L159.67 23.4637Z" fill="#F9A826"/>
<path d="M114.183 82.2007C114.283 81.5261 114.643 80.9173 115.185 80.5039C115.728 80.0904 116.41 79.905 117.087 79.9869C117.225 80.0057 117.36 80.0359 117.493 80.0771L122.981 72.7758L127.666 74.2573L119.066 83.4463C118.853 83.9821 118.468 84.4321 117.972 84.7262C117.476 85.0204 116.896 85.142 116.324 85.0722C115.667 84.9857 115.071 84.6417 114.668 84.1159C114.265 83.5902 114.086 82.9257 114.173 82.2687C114.176 82.246 114.179 82.2233 114.183 82.2007Z" fill="#FFB6B6"/>
<path d="M162.935 36.7418C162.8 36.5748 162.654 36.4119 162.499 36.2529C161.423 35.144 160.037 34.3859 158.523 34.0777C157.009 33.7696 155.437 33.9257 154.014 34.5258C153.875 34.5827 153.737 34.648 153.602 34.7132C148.734 37.1042 146.107 38.697 145.789 39.4425C145.679 39.6951 145.586 39.9436 145.492 40.1838C145.402 40.4201 145.317 40.6441 145.227 40.8478C144.852 41.7196 144.421 42.2614 143.321 42.0169C142.956 41.9277 142.604 41.7922 142.274 41.6138C142.123 41.5404 141.985 41.463 141.854 41.3896C141.382 41.129 141.039 40.9417 140.807 41.1127C140.583 41.2796 140.575 41.7033 140.779 42.685C140.846 43.0948 140.835 43.5136 140.746 43.9192C140.477 45.1025 140.055 46.2459 139.492 47.3207C138.647 49.0054 137.697 50.6353 136.648 52.2008L126.957 66.0181L126.302 66.951L125.584 67.9735L119.865 76.1287L120.203 76.4748L121.621 77.921L121.935 78.2429L122.22 78.536L122.957 79.2897L123.65 79.9944L139.101 67.4072L140.824 66.0018L143.911 63.4845L150.237 58.3315L162.21 47.2514C162.965 46.5576 163.573 45.7183 163.997 44.7838C164.42 43.8493 164.651 42.8389 164.674 41.8132C164.674 41.744 164.678 41.6788 164.678 41.6096C164.683 39.8333 164.066 38.1113 162.935 36.7418Z" fill="#F9A826"/>
<path d="M153.981 23.214C159.829 23.214 164.569 18.4737 164.569 12.6262C164.569 6.77867 159.829 2.03833 153.981 2.03833C148.134 2.03833 143.393 6.77867 143.393 12.6262C143.393 18.4737 148.134 23.214 153.981 23.214Z" fill="#FFB6B6"/>
<path d="M168.013 27.3077C169.433 29.3414 170.384 31.6659 170.795 34.1125C169.65 34.8452 168.317 35.2299 166.958 35.2203C166.911 35.0423 166.865 34.8642 166.812 34.6862C166.419 33.3076 165.833 31.9913 165.072 30.7761C165.176 32.0865 164.998 33.404 164.551 34.6401C163.832 34.3136 163.063 34.115 162.276 34.0532C161.635 34.0532 161.003 34.2022 160.43 34.4884C159.764 32.2795 159.15 30.2486 158.715 28.7913C158.702 32.4443 153.348 35.6291 147.506 35.1676C147.295 35.0357 149.411 29.0287 149.207 28.8902C148.739 28.5803 148.284 28.244 147.829 27.9143C149.741 24.9603 151.818 21.7952 151.462 21.3205C151.488 21.9074 149.392 24.7295 147.11 27.3934C145.844 26.4637 153.038 11.3375 149.484 10.111C149.424 10.6451 148.64 10.6451 147.684 10.533C147.432 9.65179 147.056 8.81049 146.569 8.03395C146.633 8.81619 146.539 9.60319 146.292 10.3484C145.348 10.3487 144.407 10.4481 143.484 10.6451C143.27 10.309 143.034 9.98735 142.778 9.6824C142.803 10.054 142.792 10.4273 142.745 10.7968C141.802 11.0012 141.024 11.2385 140.912 11.4298C140.173 11.1594 141.433 9.93958 140.971 9.30656C139.798 7.72406 141.538 5.41622 142.64 3.78093C144.901 0.431285 149.866 -0.729236 153.381 1.28187C153.539 0.73457 154.35 0.371925 155.392 0.127953C155.833 0.0306294 156.285 -0.0114596 156.737 0.00266308C161.221 0.0817832 167.446 3.78092 167.69 8.25815C167.709 8.70653 167.742 9.19446 167.775 9.71537C168.092 14.7267 167.703 19.349 171.125 23.0152C172.365 24.3405 172.378 30.6178 171.903 33.8488C170.67 32.5498 169.793 27.4989 168.013 27.3077Z" fill="#2F2E41"/>
<path d="M65.8342 17.0287C64.9042 19.3449 62.2804 23.8999 61.925 26.3848L62.085 26.2275C62.3901 26.7487 62.7369 27.2445 63.1218 27.7099C63.8118 26.9853 64.6451 26.4123 65.5687 26.0275C65.0644 27.0623 64.7723 28.1876 64.7097 29.3371C65.6998 32.4409 70.2774 31.0587 72.9594 30.7198C75.6377 33.7834 79.201 34.5829 83.8671 32.8215C85.1721 32.9559 86.633 33.0374 87.5475 32.2663C88.462 31.4952 87.9174 30.0671 88.4094 28.987C91.914 21.2934 88.6797 18.5175 85.9318 15.0289C85.3271 14.2612 85.3296 13.1156 84.5938 12.3831C83.5728 11.3678 82.0078 11.0555 80.5649 10.8053C80.9397 10.8251 81.3133 10.748 81.6497 10.5815C81.9861 10.4151 82.274 10.1648 82.4857 9.85482C82.6713 9.54253 82.7671 9.18502 82.7625 8.82172C82.7579 8.45843 82.6531 8.10346 82.4595 7.79598C81.9435 6.94045 80.8711 6.44294 79.8366 6.31866C78.8174 6.24945 77.7936 6.33746 76.8011 6.5796C76.1582 6.66415 75.5357 6.86314 74.963 7.16714C74.6927 7.31131 74.4729 7.53455 74.333 7.80699C74.193 8.07944 74.1396 8.38812 74.1798 8.69176C74.266 8.97216 74.4144 9.22948 74.6139 9.44453C74.8134 9.65958 75.0589 9.82681 75.3321 9.93374C75.7486 10.1098 76.1867 10.2298 76.6348 10.2904C74.5765 10.0232 72.4857 10.3892 70.6404 11.3396C68.3279 12.5731 66.7675 14.7136 65.8342 17.0287Z" fill="#2F2E41"/>
<path d="M78.3557 30.0146C82.921 30.0146 86.622 26.3136 86.622 21.7482C86.622 17.1829 82.921 13.4819 78.3557 13.4819C73.7903 13.4819 70.0894 17.1829 70.0894 21.7482C70.0894 26.3136 73.7903 30.0146 78.3557 30.0146Z" fill="#C78F8F"/>
<path d="M70.4015 17.3159C70.8808 18.7645 72.2505 19.2312 73.5164 19.5224C73.9156 19.6154 74.3172 19.7021 74.7226 19.7792C74.8721 19.5922 75.0312 19.409 75.1973 19.2358C75.8873 18.5112 76.7206 17.9382 77.6442 17.5534C77.2448 18.3708 76.9794 19.2471 76.858 20.1487C77.6233 20.2598 78.3929 20.3505 79.1667 20.4209C79.8214 20.5603 80.5046 20.4428 81.0751 20.0927C81.6456 19.7427 82.0598 19.1868 82.2322 18.5401C82.9366 19.692 83.7695 20.7769 84.9086 21.2344C85.5599 21.4685 86.2691 21.4877 86.9322 21.2894C87.5953 21.091 88.1774 20.6854 88.5932 20.1321C89.25 19.2295 89.7054 18.1965 89.9286 17.1028C90.2519 15.8201 90.4314 14.3424 89.7967 13.5285C89.2883 12.8698 88.4112 12.858 87.6019 12.9164C85.8158 13.0535 84.0484 13.3739 82.3279 13.8726L82.1822 14.2001C82.4779 12.4237 81.8365 10.7146 80.6498 10.1068C79.8494 9.70038 78.8863 9.76853 77.9506 9.85096C76.7487 9.90458 75.5612 10.1342 74.4259 10.5326C73.1236 11.0336 72.0079 11.9247 71.2314 13.084C70.4008 14.3451 69.9881 16.0649 70.4015 17.3159Z" fill="#2F2E41"/>
<path d="M82.1859 9.58977C82.1044 9.56569 82.3157 9.59662 82.2424 9.59859C82.2788 9.59649 82.315 9.59142 82.3506 9.58345C82.3566 9.58222 82.4389 9.55597 82.3843 9.57527C82.507 9.53856 82.6165 9.46709 82.6996 9.36949C82.8938 9.12937 83.0461 8.85825 83.1502 8.56751C83.2816 8.18331 83.4927 7.83123 83.7698 7.53439C83.8484 7.45541 83.9446 7.39609 84.0504 7.36124C84.1563 7.32638 84.2689 7.31698 84.379 7.3338C84.4892 7.35062 84.5939 7.39318 84.6845 7.45803C84.7752 7.52287 84.8492 7.60817 84.9007 7.70702C85.0053 8.08834 84.9695 8.49452 84.7998 8.85168C84.6813 9.21509 84.505 9.55702 84.2776 9.86426C83.8966 10.3667 83.3776 10.7474 82.784 10.9601C82.0969 11.2096 81.3476 11.2311 80.6473 11.0211C80.5548 10.9828 80.4755 10.9183 80.4189 10.8356C80.3624 10.7529 80.3312 10.6556 80.329 10.5555C80.3268 10.4553 80.3538 10.3567 80.4067 10.2716C80.4595 10.1866 80.536 10.1187 80.6267 10.0763L81.7946 9.59829C81.8561 9.57099 81.9223 9.55606 81.9895 9.55436C82.0567 9.55267 82.1236 9.56424 82.1863 9.58841C82.249 9.61259 82.3064 9.64889 82.355 9.69525C82.4037 9.74161 82.4428 9.79711 82.47 9.85858C82.4972 9.92005 82.5121 9.98628 82.5137 10.0535C82.5153 10.1207 82.5036 10.1876 82.4793 10.2503C82.4551 10.3129 82.4187 10.3702 82.3723 10.4189C82.3258 10.4675 82.2703 10.5065 82.2088 10.5336L82.2066 10.5346L81.0387 11.0126L81.0181 10.0678C81.1638 10.1099 81.3137 10.1355 81.4651 10.1442C81.6267 10.1604 81.7897 10.1536 81.9494 10.1238C82.1022 10.1038 82.2525 10.0671 82.3974 10.0146C82.4902 9.98067 82.5813 9.94207 82.6702 9.89894C82.7025 9.88326 82.7345 9.86698 82.7662 9.85009C82.7639 9.85132 82.8998 9.77219 82.8402 9.80936C82.9913 9.71284 83.133 9.60244 83.2635 9.47961C83.3096 9.43606 83.3521 9.38881 83.3905 9.33833C83.457 9.25659 83.5187 9.17104 83.5753 9.0821C83.6903 8.89377 83.7814 8.69184 83.8466 8.48098C83.8762 8.39236 83.9013 8.30225 83.9216 8.21102C83.9273 8.16095 83.9363 8.11131 83.9487 8.06247C83.9921 7.94609 83.9405 8.13042 83.9904 8.18085L84.2056 8.33949C84.2461 8.35153 84.2887 8.35432 84.3303 8.34766C84.372 8.34099 84.4116 8.32503 84.4462 8.30096C84.4717 8.26508 84.4662 8.27103 84.4295 8.31882C84.3869 8.37507 84.3479 8.43397 84.3127 8.49517C84.2355 8.63923 84.1657 8.78712 84.1036 8.93826C83.9751 9.2597 83.8126 9.5665 83.619 9.85344C83.4292 10.1437 83.1527 10.3666 82.8288 10.4904C82.5049 10.6143 82.1502 10.6327 81.8153 10.5431C81.6895 10.4931 81.5885 10.3956 81.534 10.2718C81.4795 10.1479 81.4759 10.0076 81.524 9.88108C81.5753 9.75643 81.6729 9.65648 81.7963 9.60218C81.9197 9.54788 82.0593 9.54343 82.1859 9.58977Z" fill="#2F2E41"/>
</g>
<defs>
<clipPath id="clip0_55_253">
<rect width="294.406" height="195.94" fill="white"/>
</clipPath>
</defs>
</svg>
