<svg width="284" height="284" viewBox="0 0 284 284" fill="none" xmlns="http://www.w3.org/2000/svg">
<g clip-path="url(#clip0_42_842)">
<path d="M144.338 185.13C169.761 185.13 190.37 164.521 190.37 139.098C190.37 113.676 169.761 93.0667 144.338 93.0667C118.916 93.0667 98.3066 113.676 98.3066 139.098C98.3066 164.521 118.916 185.13 144.338 185.13Z" fill="#FFE7C1"/>
<path d="M106.238 195.437L115.833 170.915L165.411 163.452L170.737 217.734L120.627 218.801L106.238 195.437Z" fill="#FFE7C1"/>
<path d="M190.816 147.591C190.218 149.985 189.011 155.683 187.125 155.711C185.584 155.734 184.109 131.011 185.648 126.922C187.416 122.224 182.77 116.281 179.27 113.23C172.978 107.745 159.009 119.523 144.806 114.188C144.429 114.047 144.504 114.062 140.019 112.273C126.217 106.766 125.492 106.607 124.701 106.529C118.011 105.867 109.846 111.342 106.511 118.017C103.045 124.956 105.941 130.908 102.682 147.695C102.302 149.652 101.706 152.441 100.767 152.482C99.0517 152.557 97.3765 143.394 96.9378 140.994C95.0998 130.939 93.3276 121.244 96.9378 110.358C97.3317 109.171 99.7587 104.764 104.597 95.998C111.566 83.37 115.072 77.0323 116.085 75.8935C123.35 67.7233 136.575 60.2701 147.678 63.4479C153.289 65.0541 152.283 67.6363 159.166 70.1494C171.431 74.6276 182.091 69.1509 184.057 73.0214C185.099 75.0717 182.185 76.7621 182.142 80.6803C182.07 87.4033 190.573 89.346 195.545 95.9979C198.218 99.574 202.794 99.6124 190.816 147.591Z" fill="#2F2E41"/>
<path d="M247.843 235.95C245.988 238.034 244.063 240.076 242.07 242.07C215.287 268.852 179.677 283.603 141.801 283.603C109.064 283.603 78.0227 272.584 52.9089 252.3C52.8929 252.289 52.8822 252.278 52.8663 252.262C49.5345 249.576 46.3093 246.718 43.196 243.701C43.2546 243.232 43.3186 242.768 43.3879 242.31C43.8251 239.218 44.3102 236.27 44.8539 233.556C49.3052 211.316 107.876 187.967 109.4 187.359C109.421 187.354 109.432 187.348 109.432 187.348C109.432 187.348 116.97 215.133 149.27 214.776C171.27 214.536 167.006 187.348 167.006 187.348C167.006 187.348 167.272 187.402 167.773 187.508C174.128 188.857 218.246 198.548 235.651 211.775C240.955 215.805 244.762 224.388 247.496 234.622C247.614 235.06 247.726 235.507 247.843 235.95Z" fill="#F9A826"/>
</g>
<defs>
<clipPath id="clip0_42_842">
<rect width="283.603" height="283.603" fill="white"/>
</clipPath>
</defs>
</svg>
