<svg width="243" height="197" viewBox="0 0 243 197" fill="none" xmlns="http://www.w3.org/2000/svg">
<g clip-path="url(#clip0_55_234)">
<path d="M241.558 10.6013H1.44262C1.08603 10.6009 0.74416 10.4591 0.492016 10.207C0.239871 9.95482 0.0980455 9.61295 0.0976562 9.25636V1.34496C0.0980455 0.988373 0.239871 0.646503 0.492016 0.394359C0.74416 0.142215 1.08603 0.000389229 1.44262 0H241.558C241.914 0.000389229 242.256 0.142215 242.508 0.394359C242.76 0.646503 242.902 0.988373 242.902 1.34496V9.25636C242.902 9.61295 242.76 9.95482 242.508 10.207C242.256 10.4591 241.914 10.6009 241.558 10.6013Z" fill="#E4E4E4"/>
<path d="M7.90292 6.82426C8.95751 6.82426 9.81242 5.96935 9.81242 4.91475C9.81242 3.86016 8.95751 3.00525 7.90292 3.00525C6.84832 3.00525 5.99341 3.86016 5.99341 4.91475C5.99341 5.96935 6.84832 6.82426 7.90292 6.82426Z" fill="white"/>
<path d="M15.151 6.82426C16.2056 6.82426 17.0605 5.96935 17.0605 4.91475C17.0605 3.86016 16.2056 3.00525 15.151 3.00525C14.0964 3.00525 13.2415 3.86016 13.2415 4.91475C13.2415 5.96935 14.0964 6.82426 15.151 6.82426Z" fill="white"/>
<path d="M22.399 6.82426C23.4536 6.82426 24.3085 5.96935 24.3085 4.91475C24.3085 3.86016 23.4536 3.00525 22.399 3.00525C21.3444 3.00525 20.4895 3.86016 20.4895 4.91475C20.4895 5.96935 21.3444 6.82426 22.399 6.82426Z" fill="white"/>
<path d="M239.739 196.917H132.945C132.081 196.916 131.252 196.572 130.64 195.961C130.029 195.349 129.685 194.521 129.684 193.656V118.165C129.685 117.3 130.029 116.471 130.64 115.86C131.252 115.249 132.081 114.905 132.945 114.904H239.739C240.604 114.905 241.433 115.249 242.044 115.86C242.655 116.471 242.999 117.3 243 118.165V193.656C242.999 194.521 242.655 195.349 242.044 195.961C241.433 196.572 240.604 196.916 239.739 196.917Z" fill="#E6E6E6"/>
<path d="M235.293 119.349H137.392C136.527 119.35 135.698 119.694 135.087 120.306C134.475 120.917 134.131 121.747 134.13 122.611V189.209C134.131 190.074 134.475 190.903 135.087 191.514C135.698 192.126 136.527 192.47 137.392 192.471H235.293C236.158 192.47 236.987 192.126 237.598 191.514C238.209 190.902 238.552 190.073 238.553 189.209V122.611C238.552 121.747 238.209 120.918 237.598 120.306C236.987 119.695 236.158 119.35 235.293 119.349Z" fill="white"/>
<path d="M195.265 151.009C196.889 143.932 192.469 136.878 185.393 135.254C178.316 133.629 171.262 138.049 169.638 145.126C168.013 152.202 172.433 159.256 179.509 160.881C186.586 162.505 193.64 158.086 195.265 151.009Z" fill="#9E616A"/>
<path d="M220.261 180.091C219.778 177.807 218.684 175.696 217.095 173.985C215.507 172.273 213.484 171.024 211.242 170.371L211.233 170.366C210.805 170.155 210.352 170 209.884 169.904L194.085 166.671L190.92 163.274L177.45 164.134L176.044 168.041L160.572 174.917L160.829 174.738C160.166 175.003 159.521 175.312 158.899 175.662L158.821 175.697C158.375 175.897 157.96 176.162 157.591 176.482C153.656 179.213 151.057 183.596 150.96 188.483L150.552 192.471H222.889L220.261 180.091Z" fill="#F9A826"/>
<path d="M196.839 141.021C195.763 137.659 192.614 134.82 189.085 134.911C189.36 134.072 188.89 133.132 188.188 132.598C187.485 132.064 186.596 131.851 185.732 131.671C183.946 131.299 182.085 131.015 180.31 131.434C178.534 131.853 176.852 133.127 176.452 134.907C174.835 133.391 171.845 133.81 170.707 135.713C170.121 136.691 170.038 138.007 170.671 138.956C171.3 139.898 172.491 140.323 173.623 140.376C174.755 140.43 175.876 140.176 177.003 140.057C179.695 139.775 182.539 140.317 184.715 141.927C186.892 143.537 188.282 146.297 187.895 148.976C188.765 148.42 190.019 148.806 190.626 149.641C191.234 150.476 191.282 151.616 191 152.609C190.717 153.603 190.144 154.484 189.579 155.348C188.539 156.939 187.499 158.531 186.459 160.122L186.885 160.406C188.454 161.067 190.152 159.83 191.294 158.567C193.221 156.436 194.772 153.994 195.884 151.345C197.248 148.09 197.915 144.383 196.839 141.021Z" fill="#2F2E41"/>
<path d="M140.126 138.459H4.1517C3.05098 138.458 1.9957 138.02 1.21738 137.242C0.439053 136.463 0.00124592 135.408 0 134.307V38.1887C0.00124197 37.088 0.439048 36.0327 1.21737 35.2544C1.9957 34.476 3.05098 34.0382 4.1517 34.037H140.126C141.227 34.0382 142.282 34.476 143.06 35.2544C143.839 36.0327 144.277 37.088 144.278 38.1887V134.307C144.277 135.408 143.839 136.463 143.06 137.242C142.282 138.02 141.227 138.458 140.126 138.459Z" fill="#E6E6E6"/>
<path d="M134.465 39.6973H9.81422C8.71306 39.6987 7.65741 40.1367 6.87877 40.9154C6.10013 41.694 5.66206 42.7497 5.66064 43.8508V128.645C5.66206 129.746 6.10012 130.802 6.87876 131.58C7.6574 132.359 8.71306 132.797 9.81422 132.799H134.465C135.566 132.797 136.621 132.359 137.399 131.58C138.178 130.801 138.615 129.746 138.616 128.645V43.8508C138.615 42.75 138.178 41.6944 137.399 40.9157C136.621 40.137 135.566 39.6988 134.465 39.6973Z" fill="white"/>
<path d="M90.075 79.4907L89.8451 79.9051C91.8915 74.8618 90.0306 68.6474 86.3801 64.8446C82.7298 61.0419 77.6549 59.3034 72.6578 58.6137C68.9483 58.1016 65.0978 58.1164 61.5705 59.4752C56.4627 61.443 52.5601 65.9981 49.3018 70.7367C47.8114 72.904 46.3461 75.3749 46.4945 78.0839C46.6324 80.5978 48.1246 82.7311 49.3466 84.864C50.5688 86.9969 51.5893 89.643 50.7122 91.9709C50.1895 93.3581 49.0849 94.3572 48.1887 95.492C47.2924 96.6268 46.5551 98.1607 46.9881 99.5845C47.3383 100.736 48.392 101.494 49.4756 101.746C50.5591 101.999 51.6832 101.834 52.7805 101.668L81.2637 97.3647C83.1992 97.0722 85.0352 96.3161 86.6153 95.1607C88.1954 94.0053 89.4726 92.4849 90.3381 90.7292C91.2036 88.9735 91.6317 87.0346 91.5859 85.0776C91.5401 83.1207 91.0217 81.2039 90.075 79.4907Z" fill="#2F2E41"/>
<path d="M68.8886 97.1661C76.5797 97.1661 82.8146 90.9313 82.8146 83.2402C82.8146 75.5491 76.5797 69.3142 68.8886 69.3142C61.1975 69.3142 54.9626 75.5491 54.9626 83.2402C54.9626 90.9313 61.1975 97.1661 68.8886 97.1661Z" fill="#FFB9B9"/>
<path d="M103.624 114.765C102.722 112.79 101.301 111.098 99.5114 109.869C97.722 108.64 95.632 107.921 93.4652 107.789L89.5841 107.555L89.5935 107.595L79.7272 101.66C79.9699 101.938 63.6788 102.52 63.6788 102.52L57.6342 107.735L55.0993 107.888C52.9325 108.02 50.8425 108.739 49.0531 109.968C47.2636 111.197 45.8422 112.889 44.941 114.864L36.709 132.897H53.1164L53.497 131.259C53.9111 131.763 54.3126 132.277 54.7016 132.799H111.855L103.624 114.765Z" fill="#F9A826"/>
<path d="M82.0978 70.3151C81.7383 68.4133 79.7988 67.5435 78.1369 67.1221C73.3167 65.8923 68.3025 65.6169 63.3766 66.3116C59.7857 66.8236 56.1096 67.9528 53.5041 70.7557C51.472 72.9418 50.2424 76.0734 50.1467 79.3068C50.091 81.1912 50.428 83.1522 51.3655 84.7392C52.3032 86.3262 53.9013 87.4773 55.5511 87.4369L55.7182 88.018C62.71 87.0438 69.2047 82.6935 73.2952 76.2446C72.5275 78.9858 70.9997 81.4539 68.8885 83.3635C73.6089 81.4747 77.7121 78.3123 80.7411 74.2288C81.5682 73.131 82.3713 71.7619 82.0978 70.3151Z" fill="#2F2E41"/>
<path d="M234.456 3.60061H226.11C226.029 3.60086 225.948 3.58505 225.873 3.5541C225.797 3.52314 225.729 3.47764 225.671 3.42021C225.614 3.36278 225.568 3.29454 225.537 3.2194C225.506 3.14427 225.49 3.06372 225.49 2.98237C225.49 2.90103 225.506 2.82047 225.537 2.74534C225.568 2.67021 225.614 2.60197 225.671 2.54454C225.729 2.4871 225.797 2.4416 225.873 2.41065C225.948 2.37969 226.029 2.36389 226.11 2.36414H234.456C234.62 2.36465 234.776 2.43001 234.892 2.54589C235.008 2.66178 235.072 2.81874 235.072 2.98237C235.072 3.14601 235.008 3.30296 234.892 3.41885C234.776 3.53474 234.62 3.6001 234.456 3.60061Z" fill="white"/>
<path d="M234.456 5.91897H226.11C226.029 5.91922 225.948 5.90341 225.873 5.87246C225.797 5.8415 225.729 5.796 225.671 5.73857C225.614 5.68114 225.568 5.6129 225.537 5.53776C225.506 5.46263 225.49 5.38208 225.49 5.30073C225.49 5.21938 225.506 5.13883 225.537 5.0637C225.568 4.98857 225.614 4.92033 225.671 4.86289C225.729 4.80546 225.797 4.75996 225.873 4.72901C225.948 4.69805 226.029 4.68225 226.11 4.6825H234.456C234.62 4.68301 234.776 4.74837 234.892 4.86425C235.008 4.98014 235.072 5.1371 235.072 5.30073C235.072 5.46437 235.008 5.62132 234.892 5.73721C234.776 5.8531 234.62 5.91846 234.456 5.91897Z" fill="white"/>
<path d="M234.456 8.23732H226.11C226.029 8.23758 225.948 8.22177 225.873 8.19082C225.797 8.15986 225.729 8.11436 225.671 8.05693C225.614 7.99949 225.568 7.93126 225.537 7.85612C225.506 7.78099 225.49 7.70044 225.49 7.61909C225.49 7.53774 225.506 7.45719 225.537 7.38206C225.568 7.30693 225.614 7.23869 225.671 7.18125C225.729 7.12382 225.797 7.07832 225.873 7.04737C225.948 7.01641 226.029 7.0006 226.11 7.00086H234.456C234.62 7.00137 234.776 7.06673 234.892 7.18261C235.008 7.2985 235.072 7.45546 235.072 7.61909C235.072 7.78272 235.008 7.93968 234.892 8.05557C234.776 8.17146 234.62 8.23682 234.456 8.23732Z" fill="white"/>
</g>
<defs>
<clipPath id="clip0_55_234">
<rect width="243" height="196.917" fill="white"/>
</clipPath>
</defs>
</svg>
