<svg width="371" height="196" viewBox="0 0 371 196" fill="none" xmlns="http://www.w3.org/2000/svg">
<g clip-path="url(#clip0_55_299)" filter="url(#filter0_d_55_299)">
<path d="M366.518 187.099H4.48209C4.3545 187.099 4.23225 187.048 4.14216 186.957C4.05206 186.867 4.00146 186.745 4.00146 186.617C4.00146 186.49 4.05206 186.367 4.14216 186.277C4.23225 186.186 4.3545 186.136 4.48209 186.135H366.518C366.646 186.136 366.768 186.186 366.858 186.277C366.948 186.367 366.999 186.49 366.999 186.617C366.999 186.745 366.948 186.867 366.858 186.957C366.768 187.048 366.646 187.099 366.518 187.099Z" fill="#3F3D56"/>
<path d="M117.495 23.2564C118.941 23.2564 120.113 22.0842 120.113 20.6384C120.113 19.1925 118.941 18.0204 117.495 18.0204C116.049 18.0204 114.877 19.1925 114.877 20.6384C114.877 22.0842 116.049 23.2564 117.495 23.2564Z" fill="#F2F2F2"/>
<path d="M107.061 23.2564C108.507 23.2564 109.679 22.0842 109.679 20.6384C109.679 19.1925 108.507 18.0204 107.061 18.0204C105.615 18.0204 104.443 19.1925 104.443 20.6384C104.443 22.0842 105.615 23.2564 107.061 23.2564Z" fill="#F2F2F2"/>
<path d="M96.6275 23.2564C98.0734 23.2564 99.2455 22.0842 99.2455 20.6384C99.2455 19.1925 98.0734 18.0204 96.6275 18.0204C95.1816 18.0204 94.0095 19.1925 94.0095 20.6384C94.0095 22.0842 95.1816 23.2564 96.6275 23.2564Z" fill="#F2F2F2"/>
<path d="M86.1937 23.2564C87.6395 23.2564 88.8116 22.0842 88.8116 20.6384C88.8116 19.1925 87.6395 18.0204 86.1937 18.0204C84.7478 18.0204 83.5757 19.1925 83.5757 20.6384C83.5757 22.0842 84.7478 23.2564 86.1937 23.2564Z" fill="#F2F2F2"/>
<path d="M117.495 34.1866C118.941 34.1866 120.113 33.0145 120.113 31.5687C120.113 30.1228 118.941 28.9507 117.495 28.9507C116.049 28.9507 114.877 30.1228 114.877 31.5687C114.877 33.0145 116.049 34.1866 117.495 34.1866Z" fill="#F2F2F2"/>
<path d="M107.061 34.1866C108.507 34.1866 109.679 33.0145 109.679 31.5687C109.679 30.1228 108.507 28.9507 107.061 28.9507C105.615 28.9507 104.443 30.1228 104.443 31.5687C104.443 33.0145 105.615 34.1866 107.061 34.1866Z" fill="#F2F2F2"/>
<path d="M96.6275 34.1866C98.0734 34.1866 99.2455 33.0145 99.2455 31.5687C99.2455 30.1228 98.0734 28.9507 96.6275 28.9507C95.1816 28.9507 94.0095 30.1228 94.0095 31.5687C94.0095 33.0145 95.1816 34.1866 96.6275 34.1866Z" fill="#F2F2F2"/>
<path d="M86.1937 34.1866C87.6395 34.1866 88.8116 33.0145 88.8116 31.5687C88.8116 30.1228 87.6395 28.9507 86.1937 28.9507C84.7478 28.9507 83.5757 30.1228 83.5757 31.5687C83.5757 33.0145 84.7478 34.1866 86.1937 34.1866Z" fill="#F2F2F2"/>
<path d="M117.495 45.1171C118.941 45.1171 120.113 43.945 120.113 42.4991C120.113 41.0532 118.941 39.8811 117.495 39.8811C116.049 39.8811 114.877 41.0532 114.877 42.4991C114.877 43.945 116.049 45.1171 117.495 45.1171Z" fill="#F2F2F2"/>
<path d="M107.061 45.1171C108.507 45.1171 109.679 43.945 109.679 42.4991C109.679 41.0532 108.507 39.8811 107.061 39.8811C105.615 39.8811 104.443 41.0532 104.443 42.4991C104.443 43.945 105.615 45.1171 107.061 45.1171Z" fill="#F2F2F2"/>
<path d="M96.6275 45.1171C98.0734 45.1171 99.2455 43.945 99.2455 42.4991C99.2455 41.0532 98.0734 39.8811 96.6275 39.8811C95.1816 39.8811 94.0095 41.0532 94.0095 42.4991C94.0095 43.945 95.1816 45.1171 96.6275 45.1171Z" fill="#F2F2F2"/>
<path d="M86.1937 45.1171C87.6395 45.1171 88.8116 43.945 88.8116 42.4991C88.8116 41.0532 87.6395 39.8811 86.1937 39.8811C84.7478 39.8811 83.5757 41.0532 83.5757 42.4991C83.5757 43.945 84.7478 45.1171 86.1937 45.1171Z" fill="#F2F2F2"/>
<path d="M117.495 56.0474C118.941 56.0474 120.113 54.8753 120.113 53.4294C120.113 51.9835 118.941 50.8114 117.495 50.8114C116.049 50.8114 114.877 51.9835 114.877 53.4294C114.877 54.8753 116.049 56.0474 117.495 56.0474Z" fill="#F2F2F2"/>
<path d="M107.061 56.0474C108.507 56.0474 109.679 54.8753 109.679 53.4294C109.679 51.9835 108.507 50.8114 107.061 50.8114C105.615 50.8114 104.443 51.9835 104.443 53.4294C104.443 54.8753 105.615 56.0474 107.061 56.0474Z" fill="#F2F2F2"/>
<path d="M96.6275 56.0474C98.0734 56.0474 99.2455 54.8753 99.2455 53.4294C99.2455 51.9835 98.0734 50.8114 96.6275 50.8114C95.1816 50.8114 94.0095 51.9835 94.0095 53.4294C94.0095 54.8753 95.1816 56.0474 96.6275 56.0474Z" fill="#F2F2F2"/>
<path d="M86.1937 56.0474C87.6395 56.0474 88.8116 54.8753 88.8116 53.4294C88.8116 51.9835 87.6395 50.8114 86.1937 50.8114C84.7478 50.8114 83.5757 51.9835 83.5757 53.4294C83.5757 54.8753 84.7478 56.0474 86.1937 56.0474Z" fill="#F2F2F2"/>
<path d="M117.495 66.9778C118.941 66.9778 120.113 65.8057 120.113 64.3598C120.113 62.9139 118.941 61.7418 117.495 61.7418C116.049 61.7418 114.877 62.9139 114.877 64.3598C114.877 65.8057 116.049 66.9778 117.495 66.9778Z" fill="#F2F2F2"/>
<path d="M107.061 66.9778C108.507 66.9778 109.679 65.8057 109.679 64.3598C109.679 62.9139 108.507 61.7418 107.061 61.7418C105.615 61.7418 104.443 62.9139 104.443 64.3598C104.443 65.8057 105.615 66.9778 107.061 66.9778Z" fill="#F2F2F2"/>
<path d="M96.6275 66.9778C98.0734 66.9778 99.2455 65.8057 99.2455 64.3598C99.2455 62.9139 98.0734 61.7418 96.6275 61.7418C95.1816 61.7418 94.0095 62.9139 94.0095 64.3598C94.0095 65.8057 95.1816 66.9778 96.6275 66.9778Z" fill="#F2F2F2"/>
<path d="M86.1937 66.9778C87.6395 66.9778 88.8116 65.8057 88.8116 64.3598C88.8116 62.9139 87.6395 61.7418 86.1937 61.7418C84.7478 61.7418 83.5757 62.9139 83.5757 64.3598C83.5757 65.8057 84.7478 66.9778 86.1937 66.9778Z" fill="#F2F2F2"/>
<path d="M117.495 77.9082C118.941 77.9082 120.113 76.7361 120.113 75.2902C120.113 73.8444 118.941 72.6722 117.495 72.6722C116.049 72.6722 114.877 73.8444 114.877 75.2902C114.877 76.7361 116.049 77.9082 117.495 77.9082Z" fill="#F2F2F2"/>
<path d="M107.061 77.9082C108.507 77.9082 109.679 76.7361 109.679 75.2902C109.679 73.8444 108.507 72.6722 107.061 72.6722C105.615 72.6722 104.443 73.8444 104.443 75.2902C104.443 76.7361 105.615 77.9082 107.061 77.9082Z" fill="#F2F2F2"/>
<path d="M96.6275 77.9082C98.0734 77.9082 99.2455 76.7361 99.2455 75.2902C99.2455 73.8444 98.0734 72.6722 96.6275 72.6722C95.1816 72.6722 94.0095 73.8444 94.0095 75.2902C94.0095 76.7361 95.1816 77.9082 96.6275 77.9082Z" fill="#F2F2F2"/>
<path d="M86.1937 77.9082C87.6395 77.9082 88.8116 76.7361 88.8116 75.2902C88.8116 73.8444 87.6395 72.6722 86.1937 72.6722C84.7478 72.6722 83.5757 73.8444 83.5757 75.2902C83.5757 76.7361 84.7478 77.9082 86.1937 77.9082Z" fill="#F2F2F2"/>
<path d="M94.4907 146.71V147.519C94.4919 148.861 95.0254 150.148 95.9742 151.096C96.9229 152.045 98.2093 152.579 99.5511 152.58H135.986C137.328 152.579 138.614 152.046 139.563 151.097C140.512 150.148 141.046 148.861 141.046 147.519V146.71C141.049 145.526 140.633 144.379 139.872 143.471C139.619 143.17 139.332 142.898 139.018 142.661C139.018 142.661 118.987 142.208 118.987 141.649H99.5511C98.2096 141.651 96.9235 142.185 95.9749 143.134C95.0263 144.082 94.4926 145.368 94.4907 146.71Z" fill="#CCCCCC"/>
<path d="M120.692 152.379H115.43V186.385H120.692V152.379Z" fill="#CCCCCC"/>
<path d="M135.671 186.2C135.671 186.768 127.696 186.42 117.859 186.42C108.021 186.42 100.046 186.768 100.046 186.2C100.046 185.631 108.021 181.122 117.859 181.122C127.696 181.122 135.671 185.631 135.671 186.2Z" fill="#CCCCCC"/>
<path d="M128.436 146.023C128.816 145.513 129.079 144.927 129.208 144.304C129.336 143.681 129.327 143.038 129.18 142.419C129.033 141.801 128.752 141.222 128.357 140.724C127.962 140.225 127.463 139.82 126.894 139.535L115.74 101.528L107.247 105.688L120.882 141.74C120.467 142.727 120.429 143.831 120.774 144.844C121.12 145.857 121.825 146.709 122.756 147.237C123.687 147.765 124.78 147.933 125.826 147.709C126.873 147.486 127.802 146.886 128.436 146.023Z" fill="#A0616A"/>
<path d="M118.267 107.875L108.761 110.448C108.49 110.521 108.207 110.536 107.931 110.489C107.654 110.443 107.391 110.338 107.159 110.181C106.927 110.024 106.731 109.819 106.586 109.58C106.44 109.341 106.348 109.073 106.315 108.794L105.166 99.043C104.799 97.6571 104.997 96.1822 105.716 94.9419C106.435 93.7015 107.616 92.7969 109.001 92.4263C110.386 92.0558 111.862 92.2495 113.104 92.9651C114.346 93.6806 115.254 94.8596 115.629 96.2435L119.545 105.213C119.657 105.47 119.712 105.748 119.707 106.028C119.702 106.308 119.637 106.584 119.516 106.836C119.394 107.089 119.22 107.313 119.005 107.492C118.789 107.671 118.538 107.802 118.267 107.875Z" fill="#F9A826"/>
<path d="M130.92 182.214L135.883 182.213L138.245 169.342H130.919L130.92 182.214Z" fill="#A0616A"/>
<path d="M129.654 180.593L139.428 180.593H139.429C140.247 180.593 141.057 180.754 141.813 181.067C142.568 181.38 143.255 181.839 143.833 182.417C144.412 182.996 144.871 183.682 145.184 184.438C145.497 185.194 145.658 186.004 145.658 186.822V187.024L129.655 187.025L129.654 180.593Z" fill="#2F2E41"/>
<path d="M136.681 175.311C136.623 175.311 136.565 175.308 136.507 175.303L129.638 174.803C129.361 174.777 129.093 174.688 128.855 174.542C128.617 174.396 128.416 174.198 128.267 173.962C128.118 173.726 128.025 173.459 127.995 173.182C127.966 172.904 128 172.624 128.096 172.362L137.289 151.71C137.354 151.526 137.381 151.33 137.367 151.135C137.354 150.94 137.3 150.75 137.209 150.577C137.119 150.401 136.992 150.247 136.838 150.125C136.684 150.002 136.505 149.913 136.314 149.864C131.992 148.734 120.901 145.726 111.301 142.206C107.188 140.697 104.598 138.518 103.602 135.728C102.289 132.049 104.231 128.694 104.314 128.553L104.38 128.443L113.413 129.264L123.206 130.097L144.668 141.606C146.466 142.578 147.832 144.192 148.494 146.127C149.155 148.061 149.064 150.174 148.238 152.044L138.343 174.231C138.2 174.553 137.967 174.826 137.672 175.017C137.377 175.209 137.033 175.311 136.681 175.311Z" fill="#2F2E41"/>
<path d="M114.984 88.4052C120.475 88.4052 124.927 83.9536 124.927 78.4622C124.927 72.9708 120.475 68.5192 114.984 68.5192C109.493 68.5192 105.041 72.9708 105.041 78.4622C105.041 83.9536 109.493 88.4052 114.984 88.4052Z" fill="#A0616A"/>
<path d="M128.086 181.809L133.05 181.809L135.411 168.937H128.086L128.086 181.809Z" fill="#A0616A"/>
<path d="M126.82 180.189L136.594 180.188H136.595C137.413 180.188 138.223 180.349 138.979 180.662C139.734 180.975 140.421 181.434 140.999 182.013C141.578 182.591 142.037 183.278 142.35 184.033C142.663 184.789 142.824 185.599 142.824 186.417V186.619L126.821 186.62L126.82 180.189Z" fill="#2F2E41"/>
<path d="M133.847 176.526C133.79 176.526 133.732 176.523 133.673 176.517L126.805 176.017C126.527 175.991 126.259 175.902 126.021 175.756C125.783 175.611 125.582 175.412 125.433 175.176C125.284 174.94 125.191 174.674 125.162 174.396C125.132 174.119 125.167 173.838 125.263 173.576L134.455 152.924C134.521 152.74 134.547 152.544 134.534 152.349C134.52 152.154 134.466 151.964 134.375 151.791C134.285 151.616 134.158 151.462 134.004 151.339C133.85 151.216 133.671 151.128 133.48 151.079C129.158 149.949 118.068 146.94 108.467 143.42C104.354 141.912 101.764 139.732 100.768 136.942C99.4551 133.263 101.397 129.909 101.481 129.768L101.546 129.658L110.579 130.479L120.373 131.312L141.834 142.82C143.632 143.793 144.998 145.407 145.66 147.341C146.322 149.276 146.23 151.388 145.404 153.258L135.51 175.446C135.367 175.767 135.133 176.04 134.838 176.232C134.543 176.423 134.199 176.526 133.847 176.526Z" fill="#2F2E41"/>
<path d="M118.051 94.0434L107.525 90.3999C107.525 90.3999 100.917 95.4765 104.092 108.07C105.749 114.569 105.266 121.429 102.715 127.632C102.408 128.399 102.054 129.147 101.655 129.871C101.655 129.871 113.395 144.04 124.325 133.514L120.075 113.07C120.075 113.07 126.754 99.5085 118.051 94.0434Z" fill="#2F2E41"/>
<path d="M116.218 88.7434C114.803 86.6252 113.686 83.688 115.244 81.6727C116.782 79.6833 119.816 79.9764 122.171 79.0961C125.452 77.87 127.355 74.0157 126.761 70.564C126.168 67.1123 123.397 64.251 120.096 63.0802C116.795 61.9094 113.073 62.2902 109.841 63.6384C105.861 65.2981 102.448 68.5086 101.017 72.5755C99.5853 76.6424 100.35 81.5255 103.32 84.6514C106.503 88.0027 111.5 88.8958 116.122 88.8416" fill="#2F2E41"/>
<path d="M106.969 70.6748C105.186 72.1265 102.465 71.4817 100.551 70.2077C98.6371 68.9337 97.0838 67.1195 95.0128 66.1207C91.3615 64.3596 86.947 65.5303 83.3935 67.4809C79.8399 69.4315 76.6899 72.1263 72.9362 73.6571C69.1826 75.1878 64.3928 75.2634 61.5505 72.3731C60.851 74.3996 60.7939 76.5926 61.3868 78.6528C61.9797 80.7129 63.1938 82.54 64.8634 83.8848C66.533 85.2295 68.5769 86.0263 70.7161 86.1665C72.8553 86.3068 74.9857 85.7836 76.8166 84.6683C80.9295 82.1631 83.2012 76.9103 87.8142 75.5276C90.3668 74.7624 93.1079 75.3787 95.6878 76.0462C98.2677 76.7137 100.958 77.4349 103.561 76.8667C106.165 76.2984 108.6 73.9587 108.269 71.3145L106.969 70.6748Z" fill="#2F2E41"/>
<path d="M139.337 164.363C138.284 157.525 138.284 150.565 139.337 143.727C139.404 143.32 139.613 142.95 139.927 142.683C140.241 142.415 140.64 142.268 141.052 142.267H157.194C157.455 142.266 157.714 142.325 157.949 142.439C158.184 142.553 158.391 142.72 158.552 142.926C158.717 143.134 158.832 143.378 158.889 143.638C158.946 143.898 158.942 144.167 158.879 144.425C157.369 150.75 157.369 157.341 158.879 163.665C158.942 163.923 158.945 164.193 158.889 164.452C158.832 164.712 158.717 164.956 158.552 165.165C158.391 165.37 158.184 165.537 157.949 165.651C157.714 165.765 157.455 165.824 157.194 165.823H141.052C140.64 165.822 140.241 165.675 139.927 165.408C139.613 165.14 139.404 164.77 139.337 164.363Z" fill="#F9A826"/>
<path d="M152.226 152.257H143.756C143.434 152.257 143.125 152.128 142.898 151.901C142.67 151.673 142.542 151.364 142.542 151.042V150.568C142.542 150.246 142.67 149.937 142.898 149.71C143.125 149.482 143.434 149.354 143.756 149.354H152.226C152.548 149.354 152.857 149.482 153.085 149.71C153.313 149.937 153.441 150.246 153.441 150.568V151.042C153.441 151.364 153.313 151.673 153.085 151.901C152.857 152.128 152.548 152.257 152.226 152.257Z" fill="white"/>
<path d="M152.226 157.254H143.756C143.434 157.254 143.125 157.126 142.898 156.898C142.67 156.671 142.542 156.362 142.542 156.04V155.565C142.542 155.243 142.67 154.935 142.898 154.707C143.125 154.479 143.434 154.351 143.756 154.351H152.226C152.548 154.351 152.857 154.479 153.085 154.707C153.313 154.935 153.441 155.243 153.441 155.565V156.04C153.441 156.362 153.313 156.671 153.085 156.898C152.857 157.126 152.548 157.254 152.226 157.254Z" fill="white"/>
<path d="M143.582 144.202C143.822 143.613 143.931 142.979 143.9 142.344C143.868 141.709 143.699 141.088 143.402 140.526C143.105 139.964 142.688 139.474 142.182 139.09C141.675 138.706 141.09 138.438 140.468 138.304L120.172 104.289L112.987 110.439L135.197 141.941C135.042 143 135.281 144.08 135.869 144.974C136.456 145.869 137.352 146.517 138.385 146.796C139.419 147.074 140.519 146.964 141.476 146.486C142.434 146.008 143.183 145.195 143.582 144.202Z" fill="#A0616A"/>
<path d="M124.205 109.804L115.643 114.671C115.399 114.809 115.128 114.893 114.849 114.918C114.57 114.942 114.289 114.906 114.025 114.812C113.761 114.718 113.52 114.569 113.319 114.373C113.119 114.178 112.962 113.942 112.861 113.68L109.312 104.525C108.611 103.275 108.434 101.797 108.82 100.417C109.207 99.0362 110.125 97.8652 111.373 97.1603C112.621 96.4555 114.098 96.2745 115.48 96.657C116.862 97.0394 118.035 97.9541 118.744 99.2005L124.777 106.907C124.949 107.128 125.073 107.383 125.138 107.656C125.203 107.928 125.208 108.211 125.154 108.486C125.1 108.761 124.987 109.021 124.823 109.249C124.659 109.476 124.448 109.665 124.205 109.804Z" fill="#2F2E41"/>
<path d="M215.307 121.752H50.9468C50.2489 121.752 49.5796 122.029 49.0861 122.523C48.5927 123.016 48.3154 123.686 48.3154 124.383C48.3154 125.081 48.5927 125.751 49.0861 126.244C49.5796 126.738 50.2489 127.015 50.9468 127.015H55.6023V184.298C55.6023 184.996 55.8796 185.665 56.3731 186.159C56.8665 186.652 57.5358 186.93 58.2337 186.93C58.9316 186.93 59.6009 186.652 60.0944 186.159C60.5879 185.665 60.8651 184.996 60.8651 184.298V132.071L90.3655 185.54C90.7151 186.143 91.2897 186.583 91.9631 186.762C92.6366 186.942 93.3537 186.847 93.9573 186.499C94.5609 186.15 95.0016 185.576 95.1827 184.903C95.3638 184.23 95.2704 183.513 94.9231 182.909L64.085 127.015H204.984V127.049L174.165 182.909C173.816 183.513 173.722 184.231 173.902 184.905C174.083 185.579 174.524 186.154 175.128 186.503C175.732 186.852 176.451 186.947 177.125 186.766C177.799 186.585 178.374 186.144 178.723 185.54L204.984 137.941V184.298C204.984 184.996 205.261 185.665 205.755 186.159C206.248 186.652 206.918 186.93 207.616 186.93C208.313 186.93 208.983 186.652 209.476 186.159C209.97 185.665 210.247 184.996 210.247 184.298V128.402L211.013 127.015H215.307C216.005 127.015 216.674 126.738 217.168 126.244C217.661 125.751 217.939 125.081 217.939 124.383C217.939 123.686 217.661 123.016 217.168 122.523C216.674 122.029 216.005 121.752 215.307 121.752Z" fill="#3F3D56"/>
<path d="M147.296 120.133H115.315C114.532 120.133 113.898 120.767 113.898 121.55C113.898 122.332 114.532 122.967 115.315 122.967H147.296C148.079 122.967 148.713 122.332 148.713 121.55C148.713 120.767 148.079 120.133 147.296 120.133Z" fill="#CCCCCC"/>
<path d="M168.752 122.967H132.722C132.025 122.966 131.356 122.688 130.862 122.195C130.369 121.702 130.092 121.033 130.091 120.335V100.499C130.092 99.8009 130.369 99.1321 130.862 98.6388C131.356 98.1455 132.025 97.868 132.722 97.8672H168.752C169.45 97.868 170.118 98.1455 170.612 98.6388C171.105 99.1321 171.383 99.8009 171.383 100.499V120.335C171.383 121.033 171.105 121.702 170.612 122.195C170.118 122.688 169.45 122.966 168.752 122.967Z" fill="#CCCCCC"/>
<path d="M150.737 112.846C152.079 112.846 153.166 111.758 153.166 110.417C153.166 109.075 152.079 107.988 150.737 107.988C149.396 107.988 148.308 109.075 148.308 110.417C148.308 111.758 149.396 112.846 150.737 112.846Z" fill="white"/>
<path d="M196.248 74.0923V3.04489C196.249 2.23761 196.57 1.46367 197.141 0.89284C197.712 0.322011 198.486 0.000918248 199.293 0H255.455C256.262 0.000918248 257.036 0.322011 257.607 0.89284C258.177 1.46367 258.498 2.23761 258.499 3.04489V74.0923C258.498 74.8996 258.177 75.6736 257.607 76.2444C257.036 76.8152 256.262 77.1363 255.455 77.1372H199.293C198.486 77.1363 197.712 76.8152 197.141 76.2444C196.57 75.6736 196.249 74.8996 196.248 74.0923ZM199.293 0.676644C198.665 0.677349 198.063 0.927086 197.619 1.37107C197.175 1.81505 196.926 2.41701 196.925 3.04489V74.0923C196.926 74.7202 197.175 75.3222 197.619 75.7662C198.063 76.2101 198.665 76.4599 199.293 76.4606H255.455C256.082 76.4599 256.684 76.2101 257.128 75.7662C257.572 75.3222 257.822 74.7202 257.823 74.0923V3.04489C257.822 2.41701 257.572 1.81505 257.128 1.37107C256.684 0.927086 256.082 0.677349 255.455 0.676644H199.293Z" fill="#E6E6E6"/>
<path d="M230.523 32.6283V18.04C230.524 17.6364 230.684 17.2494 230.97 16.964C231.255 16.6786 231.642 16.518 232.046 16.5176H244.408C244.812 16.518 245.199 16.6786 245.484 16.964C245.769 17.2494 245.93 17.6364 245.93 18.04V32.6283C245.93 33.0319 245.769 33.4189 245.484 33.7043C245.199 33.9898 244.812 34.1503 244.408 34.1507H232.046C231.642 34.1503 231.255 33.9898 230.97 33.7043C230.684 33.4189 230.524 33.0319 230.523 32.6283Z" fill="#F9A826"/>
<path d="M206.502 39.3947V24.8064C206.503 24.4028 206.663 24.0158 206.949 23.7303C207.234 23.4449 207.621 23.2844 208.025 23.2839H220.387C220.791 23.2844 221.178 23.4449 221.463 23.7303C221.749 24.0158 221.909 24.4028 221.91 24.8064V39.3947C221.909 39.7983 221.749 40.1853 221.463 40.4707C221.178 40.7561 220.791 40.9167 220.387 40.9171H208.025C207.621 40.9167 207.234 40.7561 206.949 40.4707C206.663 40.1853 206.503 39.7983 206.502 39.3947Z" fill="#CCCCCC"/>
<path d="M225.787 60.0324V45.4441C225.787 45.0404 225.948 44.6535 226.233 44.368C226.519 44.0826 226.906 43.9221 227.309 43.9216H239.672C240.075 43.9221 240.462 44.0826 240.748 44.368C241.033 44.6535 241.194 45.0404 241.194 45.4441V60.0324C241.194 60.436 241.033 60.823 240.748 61.1084C240.462 61.3938 240.075 61.5544 239.672 61.5548H227.309C226.906 61.5544 226.519 61.3938 226.233 61.1084C225.948 60.823 225.787 60.436 225.787 60.0324Z" fill="#FF6584"/>
<path d="M320.066 7.4032C321.512 7.4032 322.684 6.23109 322.684 4.78522C322.684 3.33935 321.512 2.16724 320.066 2.16724C318.621 2.16724 317.448 3.33935 317.448 4.78522C317.448 6.23109 318.621 7.4032 320.066 7.4032Z" fill="#F2F2F2"/>
<path d="M320.066 17.837C321.512 17.837 322.684 16.6649 322.684 15.2191C322.684 13.7732 321.512 12.6011 320.066 12.6011C318.621 12.6011 317.448 13.7732 317.448 15.2191C317.448 16.6649 318.621 17.837 320.066 17.837Z" fill="#F2F2F2"/>
<path d="M320.066 28.2706C321.512 28.2706 322.684 27.0985 322.684 25.6526C322.684 24.2068 321.512 23.0347 320.066 23.0347C318.621 23.0347 317.448 24.2068 317.448 25.6526C317.448 27.0985 318.621 28.2706 320.066 28.2706Z" fill="#F2F2F2"/>
<path d="M320.066 38.7045C321.512 38.7045 322.684 37.5324 322.684 36.0865C322.684 34.6406 321.512 33.4685 320.066 33.4685C318.621 33.4685 317.448 34.6406 317.448 36.0865C317.448 37.5324 318.621 38.7045 320.066 38.7045Z" fill="#F2F2F2"/>
<path d="M309.136 7.4032C310.582 7.4032 311.754 6.23109 311.754 4.78522C311.754 3.33935 310.582 2.16724 309.136 2.16724C307.69 2.16724 306.518 3.33935 306.518 4.78522C306.518 6.23109 307.69 7.4032 309.136 7.4032Z" fill="#F2F2F2"/>
<path d="M309.136 17.837C310.582 17.837 311.754 16.6649 311.754 15.2191C311.754 13.7732 310.582 12.6011 309.136 12.6011C307.69 12.6011 306.518 13.7732 306.518 15.2191C306.518 16.6649 307.69 17.837 309.136 17.837Z" fill="#F2F2F2"/>
<path d="M309.136 28.2706C310.582 28.2706 311.754 27.0985 311.754 25.6526C311.754 24.2068 310.582 23.0347 309.136 23.0347C307.69 23.0347 306.518 24.2068 306.518 25.6526C306.518 27.0985 307.69 28.2706 309.136 28.2706Z" fill="#F2F2F2"/>
<path d="M309.136 38.7045C310.582 38.7045 311.754 37.5324 311.754 36.0865C311.754 34.6406 310.582 33.4685 309.136 33.4685C307.69 33.4685 306.518 34.6406 306.518 36.0865C306.518 37.5324 307.69 38.7045 309.136 38.7045Z" fill="#F2F2F2"/>
<path d="M298.206 7.4032C299.651 7.4032 300.824 6.23109 300.824 4.78522C300.824 3.33935 299.651 2.16724 298.206 2.16724C296.76 2.16724 295.588 3.33935 295.588 4.78522C295.588 6.23109 296.76 7.4032 298.206 7.4032Z" fill="#F2F2F2"/>
<path d="M298.206 17.837C299.651 17.837 300.824 16.6649 300.824 15.2191C300.824 13.7732 299.651 12.6011 298.206 12.6011C296.76 12.6011 295.588 13.7732 295.588 15.2191C295.588 16.6649 296.76 17.837 298.206 17.837Z" fill="#F2F2F2"/>
<path d="M298.206 28.2706C299.651 28.2706 300.824 27.0985 300.824 25.6526C300.824 24.2068 299.651 23.0347 298.206 23.0347C296.76 23.0347 295.588 24.2068 295.588 25.6526C295.588 27.0985 296.76 28.2706 298.206 28.2706Z" fill="#F2F2F2"/>
<path d="M298.206 38.7045C299.651 38.7045 300.824 37.5324 300.824 36.0865C300.824 34.6406 299.651 33.4685 298.206 33.4685C296.76 33.4685 295.588 34.6406 295.588 36.0865C295.588 37.5324 296.76 38.7045 298.206 38.7045Z" fill="#F2F2F2"/>
<path d="M287.275 7.4032C288.721 7.4032 289.893 6.23109 289.893 4.78522C289.893 3.33935 288.721 2.16724 287.275 2.16724C285.83 2.16724 284.657 3.33935 284.657 4.78522C284.657 6.23109 285.83 7.4032 287.275 7.4032Z" fill="#F2F2F2"/>
<path d="M287.275 17.837C288.721 17.837 289.893 16.6649 289.893 15.2191C289.893 13.7732 288.721 12.6011 287.275 12.6011C285.83 12.6011 284.657 13.7732 284.657 15.2191C284.657 16.6649 285.83 17.837 287.275 17.837Z" fill="#F2F2F2"/>
<path d="M287.275 28.2706C288.721 28.2706 289.893 27.0985 289.893 25.6526C289.893 24.2068 288.721 23.0347 287.275 23.0347C285.83 23.0347 284.657 24.2068 284.657 25.6526C284.657 27.0985 285.83 28.2706 287.275 28.2706Z" fill="#F2F2F2"/>
<path d="M287.275 38.7045C288.721 38.7045 289.893 37.5324 289.893 36.0865C289.893 34.6406 288.721 33.4685 287.275 33.4685C285.83 33.4685 284.657 34.6406 284.657 36.0865C284.657 37.5324 285.83 38.7045 287.275 38.7045Z" fill="#F2F2F2"/>
<path d="M276.345 7.4032C277.791 7.4032 278.963 6.23109 278.963 4.78522C278.963 3.33935 277.791 2.16724 276.345 2.16724C274.899 2.16724 273.727 3.33935 273.727 4.78522C273.727 6.23109 274.899 7.4032 276.345 7.4032Z" fill="#F2F2F2"/>
<path d="M276.345 17.837C277.791 17.837 278.963 16.6649 278.963 15.2191C278.963 13.7732 277.791 12.6011 276.345 12.6011C274.899 12.6011 273.727 13.7732 273.727 15.2191C273.727 16.6649 274.899 17.837 276.345 17.837Z" fill="#F2F2F2"/>
<path d="M276.345 28.2706C277.791 28.2706 278.963 27.0985 278.963 25.6526C278.963 24.2068 277.791 23.0347 276.345 23.0347C274.899 23.0347 273.727 24.2068 273.727 25.6526C273.727 27.0985 274.899 28.2706 276.345 28.2706Z" fill="#F2F2F2"/>
<path d="M276.345 38.7045C277.791 38.7045 278.963 37.5324 278.963 36.0865C278.963 34.6406 277.791 33.4685 276.345 33.4685C274.899 33.4685 273.727 34.6406 273.727 36.0865C273.727 37.5324 274.899 38.7045 276.345 38.7045Z" fill="#F2F2F2"/>
<path d="M265.415 7.4032C266.86 7.4032 268.033 6.23109 268.033 4.78522C268.033 3.33935 266.86 2.16724 265.415 2.16724C263.969 2.16724 262.797 3.33935 262.797 4.78522C262.797 6.23109 263.969 7.4032 265.415 7.4032Z" fill="#F2F2F2"/>
<path d="M265.415 17.837C266.86 17.837 268.033 16.6649 268.033 15.2191C268.033 13.7732 266.86 12.6011 265.415 12.6011C263.969 12.6011 262.797 13.7732 262.797 15.2191C262.797 16.6649 263.969 17.837 265.415 17.837Z" fill="#F2F2F2"/>
<path d="M265.415 28.2706C266.86 28.2706 268.033 27.0985 268.033 25.6526C268.033 24.2068 266.86 23.0347 265.415 23.0347C263.969 23.0347 262.797 24.2068 262.797 25.6526C262.797 27.0985 263.969 28.2706 265.415 28.2706Z" fill="#F2F2F2"/>
<path d="M265.415 38.7045C266.86 38.7045 268.033 37.5324 268.033 36.0865C268.033 34.6406 266.86 33.4685 265.415 33.4685C263.969 33.4685 262.797 34.6406 262.797 36.0865C262.797 37.5324 263.969 38.7045 265.415 38.7045Z" fill="#F2F2F2"/>
<path d="M275.962 97.6659C275.747 97.0763 275.659 96.448 275.704 95.8221C275.749 95.1962 275.926 94.5869 276.223 94.0341C276.52 93.4812 276.93 92.9974 277.427 92.6142C277.924 92.231 278.496 91.9571 279.106 91.8105C279.3 91.7651 279.496 91.7331 279.694 91.7148L289.532 74.4697L287.048 70.2018L293.232 65.431L297.963 72.0022C298.527 72.7921 298.822 73.7429 298.803 74.7135C298.784 75.684 298.452 76.6226 297.858 77.3899L284.351 94.6817C284.4 94.8191 284.442 94.9589 284.477 95.1006C284.623 95.7108 284.639 96.3451 284.523 96.9619C284.407 97.5786 284.163 98.164 283.805 98.6796C283.447 99.1952 282.984 99.6294 282.447 99.9537C281.91 100.278 281.31 100.485 280.687 100.562C280.507 100.584 280.324 100.596 280.142 100.596C279.23 100.593 278.34 100.31 277.592 99.7867C276.845 99.2629 276.276 98.5228 275.962 97.6659Z" fill="#FFB8B8"/>
<path d="M256.767 182.532L251.804 182.532L249.443 163.389L256.768 163.389L256.767 182.532Z" fill="#FFB8B8"/>
<path d="M248.259 181.114H257.831V187.141H242.232C242.232 186.349 242.388 185.565 242.691 184.834C242.994 184.103 243.438 183.439 243.997 182.879C244.557 182.319 245.221 181.876 245.953 181.573C246.684 181.27 247.467 181.114 248.259 181.114Z" fill="#2F2E41"/>
<path d="M297.655 182.532L292.692 182.532L290.331 163.389L297.656 163.389L297.655 182.532Z" fill="#FFB8B8"/>
<path d="M289.146 181.114H298.718V187.141H283.12C283.12 186.349 283.276 185.565 283.579 184.834C283.881 184.103 284.325 183.439 284.885 182.879C285.445 182.319 286.109 181.876 286.84 181.573C287.571 181.27 288.355 181.114 289.146 181.114Z" fill="#2F2E41"/>
<path d="M294.609 66.3632L283.466 70.5975L280.745 63.0407C280.384 62.0373 280.389 60.9384 280.76 59.9384C281.13 58.9383 281.842 58.1015 282.77 57.5757C283.709 57.0438 284.807 56.8651 285.866 57.0718C286.924 57.2785 287.874 57.8571 288.544 58.7029L294.609 66.3632Z" fill="#F9A826"/>
<path d="M257.195 167.028L247.85 164.896C247.353 164.782 246.918 164.484 246.632 164.062C246.345 163.64 246.229 163.125 246.307 162.621C250.057 138.854 253.664 124.936 262.962 107.26C263.092 106.931 264.543 100.241 265.491 95.8094C265.48 95.3211 265.647 94.8456 265.961 94.4714C266.275 94.0972 266.714 93.8499 267.197 93.7756L284.622 91.0938C284.885 91.0026 285.163 90.9608 285.441 90.9706L285.615 91.0036L285.613 91.175C285.61 91.3521 285.434 91.3792 285.368 91.3895L285.136 91.4251C285.4 91.5481 285.643 91.7131 285.855 91.9135C293.49 101.097 297.46 131.198 302.502 164.453C302.53 164.723 302.498 164.995 302.406 165.251C302.315 165.506 302.167 165.738 301.975 165.929C301.792 166.128 301.571 166.289 301.325 166.4C301.079 166.511 300.813 166.572 300.543 166.577L289.409 166.849C288.92 166.859 288.444 166.692 288.069 166.378C287.694 166.064 287.446 165.624 287.371 165.141L279.872 121.804C279.82 121.466 279.662 121.153 279.42 120.91C279.178 120.668 278.865 120.509 278.526 120.457C278.188 120.405 277.842 120.462 277.538 120.62C277.234 120.778 276.989 121.029 276.838 121.337C270.788 133.657 265.146 144.313 259.589 165.571C259.479 166.002 259.229 166.384 258.878 166.657C258.526 166.93 258.094 167.078 257.649 167.079C257.497 167.079 257.344 167.062 257.195 167.028Z" fill="#2F2E41"/>
<path d="M266.267 96.3044C266.032 96.1385 265.836 95.9246 265.69 95.6769C265.545 95.4292 265.454 95.1533 265.423 94.8677C263.996 81.5449 264.99 71.1188 268.462 62.9936C269.073 61.5922 269.994 60.3476 271.156 59.3533C272.318 58.3591 273.69 57.6411 275.169 57.2532L284.176 56.7986L284.222 56.8211C286.255 57.8167 287.913 59.4407 288.949 61.4525C289.986 63.4643 290.347 65.7566 289.979 67.9897C287.082 75.6261 284.656 83.5768 286.506 89.9906C286.583 90.2587 286.606 90.5398 286.572 90.8169C286.539 91.094 286.45 91.3614 286.31 91.6032C286.175 91.8369 285.993 92.0404 285.776 92.2011C285.559 92.3619 285.312 92.4765 285.049 92.538L267.893 96.6191C267.615 96.6852 267.326 96.6913 267.046 96.637C266.765 96.5828 266.5 96.4694 266.267 96.3044Z" fill="#F9A826"/>
<path d="M262.389 77.1853L245.113 63.5563C244.976 63.6047 244.836 63.646 244.694 63.6801C244.084 63.8227 243.451 63.8355 242.836 63.7175C242.221 63.5995 241.638 63.3535 241.124 62.9953C240.607 62.637 240.173 62.1723 239.85 61.6323C239.527 61.0924 239.323 60.4898 239.251 59.8646C239.136 58.8653 239.361 57.8562 239.891 57.0009C240.42 56.1457 241.223 55.4946 242.17 55.1532C242.76 54.9413 243.389 54.8566 244.015 54.9047C244.64 54.9527 245.249 55.1324 245.8 55.4319C246.352 55.7315 246.834 56.1441 247.214 56.6429C247.595 57.1416 247.866 57.7152 248.01 58.326C248.054 58.5195 248.085 58.716 248.103 58.9138L265.3 68.8351L269.58 66.3712L274.321 72.578L267.676 77.3142C266.898 77.8641 265.964 78.1485 265.011 78.1253C264.059 78.1021 263.139 77.7724 262.389 77.1853Z" fill="#FFB8B8"/>
<path d="M276.429 74.5109L266.572 67.808L271.204 61.247C271.82 60.3758 272.723 59.7501 273.755 59.4804C274.786 59.2108 275.88 59.3145 276.843 59.7734C277.817 60.2376 278.593 61.0347 279.03 62.0208C279.468 63.0069 279.539 64.117 279.229 65.1506L276.429 74.5109Z" fill="#F9A826"/>
<path d="M281.17 53.4344C286.661 53.4344 291.113 48.9827 291.113 43.4913C291.113 38 286.661 33.5483 281.17 33.5483C275.678 33.5483 271.227 38 271.227 43.4913C271.227 48.9827 275.678 53.4344 281.17 53.4344Z" fill="#FFB8B8"/>
<path d="M277.524 42.0104C274.969 43.7594 271.613 45.5574 269.003 43.6947C267.289 42.4717 266.749 40.207 267.444 38.2195C268.694 34.6454 272.128 33.072 275.411 31.8659C279.68 30.2979 284.328 29.0506 288.735 30.1735C293.141 31.2963 297.036 35.5629 296.241 40.0403C295.601 43.641 292.204 46.637 292.687 50.2621C293.172 53.9105 297.275 55.8309 300.897 56.4829C304.519 57.135 308.573 57.3445 311.176 59.9463C314.497 63.2654 313.668 69.198 310.543 72.7023C307.418 76.2066 302.702 77.7951 298.133 78.8749C292.079 80.3057 285.531 81.0576 279.781 78.6831C274.032 76.3087 269.557 69.9168 271.223 63.9232C271.926 61.3915 273.584 59.2518 275.186 57.1688C276.787 55.0858 278.409 52.9076 279.02 50.3519C279.529 48.2222 279.153 45.7496 277.74 44.1521C277.483 43.8724 277.322 43.5186 277.278 43.1414C277.235 42.7641 277.313 42.3829 277.5 42.0524L277.524 42.0104Z" fill="#2F2E41"/>
</g>
<defs>
<filter id="filter0_d_55_299" x="0" y="0" width="371" height="195.141" filterUnits="userSpaceOnUse" color-interpolation-filters="sRGB">
<feFlood flood-opacity="0" result="BackgroundImageFix"/>
<feColorMatrix in="SourceAlpha" type="matrix" values="0 0 0 0 0 0 0 0 0 0 0 0 0 0 0 0 0 0 127 0" result="hardAlpha"/>
<feOffset dy="4"/>
<feGaussianBlur stdDeviation="2"/>
<feComposite in2="hardAlpha" operator="out"/>
<feColorMatrix type="matrix" values="0 0 0 0 0 0 0 0 0 0 0 0 0 0 0 0 0 0 0.25 0"/>
<feBlend mode="normal" in2="BackgroundImageFix" result="effect1_dropShadow_55_299"/>
<feBlend mode="normal" in="SourceGraphic" in2="effect1_dropShadow_55_299" result="shape"/>
</filter>
<clipPath id="clip0_55_299">
<rect width="363" height="187.141" fill="white" transform="translate(4)"/>
</clipPath>
</defs>
</svg>
